<svg width="240" height="121" viewBox="0 0 240 121" fill="none" xmlns="http://www.w3.org/2000/svg">
<g clip-path="url(#clip0_1315_7165)">
<path d="M69.4262 113.363C52.453 107.8 39.0851 94.6529 37.0516 70.3731C35.3367 49.913 38.813 15.604 67.3103 8.64555C94.884 1.91516 194.274 -11.658 200.657 31.3491C204.291 55.8127 204.56 97.3389 173.019 110.704C151.632 119.77 105.8 125.285 69.4226 113.36L69.4262 113.363Z" fill="#FEFBDD"/>
<path fill-rule="evenodd" clip-rule="evenodd" d="M149.47 89.8065L159.786 100.073C161.402 101.686 161.407 104.299 159.786 105.913L159.217 106.479C157.601 108.088 154.967 108.088 153.35 106.479L143.013 96.1895C140.84 97.3358 138.369 97.9918 135.743 97.9918C127.154 97.9918 120.167 91.0346 120.167 82.4832C120.167 73.9341 127.154 66.979 135.743 66.979C144.334 66.979 151.322 73.9341 151.322 82.4832C151.322 85.1306 150.65 87.6236 149.47 89.8065ZM135.743 73.0911C130.534 73.0911 126.307 77.2975 126.307 82.4832C126.307 87.6734 130.534 91.8798 135.743 91.8798C140.955 91.8798 145.182 87.6734 145.182 82.4832C145.182 77.2975 140.955 73.0911 135.743 73.0911Z" fill="url(#paint0_linear_1315_7165)"/>
<path d="M77 31.6646C77 30.058 78.3084 28.7556 79.9224 28.7556H86.5341V13.9342C86.5341 13.6981 86.5706 13.4705 86.6384 13.2567V11.7282H88.3552C88.4967 11.7005 88.6429 11.686 88.7926 11.686L147.514 11.686C148.761 11.686 149.773 12.6926 149.773 13.9342L149.773 66.9041C147.801 65.1468 145.495 63.7536 142.963 62.8316L142.963 20.925L93.414 20.925V88.2421H115.518C116.536 91.7963 118.475 94.9671 121.061 97.4812L86.6384 97.4812V95.9105C86.5706 95.6967 86.5341 95.4691 86.5341 95.233V79.7659H79.9224C78.3084 79.7659 77 78.4635 77 76.8569C77 75.2504 78.3084 73.948 79.9224 73.948H86.5341V57.4925H79.9224C78.3084 57.4925 77 56.1901 77 54.5836C77 52.977 78.3084 51.6746 79.9224 51.6746H86.5341V34.5735H79.9224C78.3084 34.5735 77 33.2711 77 31.6646Z" fill="url(#paint1_linear_1315_7165)"/>
<path d="M117.322 72.4103C116.388 74.0938 115.68 75.9183 115.239 77.8432H112.207V72.4103H117.322Z" fill="url(#paint2_linear_1315_7165)"/>
<path d="M130.503 62.2236C126.828 63.1653 123.54 65.0725 120.927 67.6565H112.207V62.2236H130.503Z" fill="url(#paint3_linear_1315_7165)"/>
<path d="M106.977 31.0976H99.1307V36.5305H106.977V31.0976Z" fill="url(#paint4_linear_1315_7165)"/>
<path d="M137.517 31.0976H112.207V36.5305H135.437L137.517 31.0976Z" fill="url(#paint5_linear_1315_7165)"/>
<path d="M112.207 52.0369H137.517L135.437 57.4698H112.207V52.0369Z" fill="url(#paint6_linear_1315_7165)"/>
<path d="M106.977 52.0369H99.1307V57.4698H106.977V52.0369Z" fill="url(#paint7_linear_1315_7165)"/>
<path d="M112.207 41.2843H137.517L135.437 46.7172H112.207V41.2843Z" fill="url(#paint8_linear_1315_7165)"/>
<path d="M106.977 41.2843H99.1307V46.7172H106.977V41.2843Z" fill="url(#paint9_linear_1315_7165)"/>
<path d="M106.977 62.2236H99.1307V67.6565H106.977V62.2236Z" fill="url(#paint10_linear_1315_7165)"/>
<path d="M106.977 72.4103H99.1307V77.8432H106.977V72.4103Z" fill="url(#paint11_linear_1315_7165)"/>
</g>
<defs>
<linearGradient id="paint0_linear_1315_7165" x1="62.5625" y1="97.686" x2="187.137" y2="42.1791" gradientUnits="userSpaceOnUse">
<stop stop-color="#FFB612"/>
<stop offset="1" stop-color="#F9E11E"/>
</linearGradient>
<linearGradient id="paint1_linear_1315_7165" x1="62.5625" y1="97.686" x2="187.137" y2="42.1791" gradientUnits="userSpaceOnUse">
<stop stop-color="#FFB612"/>
<stop offset="1" stop-color="#F9E11E"/>
</linearGradient>
<linearGradient id="paint2_linear_1315_7165" x1="62.5625" y1="97.686" x2="187.137" y2="42.1791" gradientUnits="userSpaceOnUse">
<stop stop-color="#FFB612"/>
<stop offset="1" stop-color="#F9E11E"/>
</linearGradient>
<linearGradient id="paint3_linear_1315_7165" x1="62.5625" y1="97.686" x2="187.137" y2="42.1791" gradientUnits="userSpaceOnUse">
<stop stop-color="#FFB612"/>
<stop offset="1" stop-color="#F9E11E"/>
</linearGradient>
<linearGradient id="paint4_linear_1315_7165" x1="62.5625" y1="97.686" x2="187.137" y2="42.1791" gradientUnits="userSpaceOnUse">
<stop stop-color="#FFB612"/>
<stop offset="1" stop-color="#F9E11E"/>
</linearGradient>
<linearGradient id="paint5_linear_1315_7165" x1="62.5625" y1="97.686" x2="187.137" y2="42.1791" gradientUnits="userSpaceOnUse">
<stop stop-color="#FFB612"/>
<stop offset="1" stop-color="#F9E11E"/>
</linearGradient>
<linearGradient id="paint6_linear_1315_7165" x1="62.5625" y1="97.686" x2="187.137" y2="42.1791" gradientUnits="userSpaceOnUse">
<stop stop-color="#FFB612"/>
<stop offset="1" stop-color="#F9E11E"/>
</linearGradient>
<linearGradient id="paint7_linear_1315_7165" x1="62.5625" y1="97.686" x2="187.137" y2="42.1791" gradientUnits="userSpaceOnUse">
<stop stop-color="#FFB612"/>
<stop offset="1" stop-color="#F9E11E"/>
</linearGradient>
<linearGradient id="paint8_linear_1315_7165" x1="62.5625" y1="97.686" x2="187.137" y2="42.1791" gradientUnits="userSpaceOnUse">
<stop stop-color="#FFB612"/>
<stop offset="1" stop-color="#F9E11E"/>
</linearGradient>
<linearGradient id="paint9_linear_1315_7165" x1="62.5625" y1="97.686" x2="187.137" y2="42.1791" gradientUnits="userSpaceOnUse">
<stop stop-color="#FFB612"/>
<stop offset="1" stop-color="#F9E11E"/>
</linearGradient>
<linearGradient id="paint10_linear_1315_7165" x1="62.5625" y1="97.686" x2="187.137" y2="42.1791" gradientUnits="userSpaceOnUse">
<stop stop-color="#FFB612"/>
<stop offset="1" stop-color="#F9E11E"/>
</linearGradient>
<linearGradient id="paint11_linear_1315_7165" x1="62.5625" y1="97.686" x2="187.137" y2="42.1791" gradientUnits="userSpaceOnUse">
<stop stop-color="#FFB612"/>
<stop offset="1" stop-color="#F9E11E"/>
</linearGradient>
<clipPath id="clip0_1315_7165">
<rect width="240" height="120" fill="white" transform="translate(0 0.686035)"/>
</clipPath>
</defs>
</svg>
