<svg width="240" height="121" viewBox="0 0 240 121" fill="none" xmlns="http://www.w3.org/2000/svg">
<g clip-path="url(#clip0_1314_2586)">
<path d="M69.4262 113.363C52.453 107.8 39.0851 94.6529 37.0516 70.3731C35.3367 49.913 38.813 15.604 67.3103 8.64555C94.884 1.91516 194.274 -11.658 200.657 31.3491C204.291 55.8127 204.56 97.3389 173.019 110.704C151.632 119.77 105.8 125.285 69.4226 113.36L69.4262 113.363Z" fill="#FEFBDD"/>
<path d="M99 91.686C99 98.3135 93.6274 103.686 87 103.686C80.3726 103.686 75 98.3135 75 91.686C75 85.0586 80.3726 79.686 87 79.686C93.6274 79.686 99 85.0586 99 91.686Z" fill="url(#paint0_linear_1314_2586)"/>
<path d="M111 79.686C111 73.0586 105.627 67.686 99 67.686C92.3726 67.686 87 73.0586 87 79.686C87 86.3135 92.3726 91.686 99 91.686V99.686C87.9543 99.686 79 90.7317 79 79.686C79 68.6403 87.9543 59.686 99 59.686C110.046 59.686 119 68.6403 119 79.686C119 90.7317 110.046 99.686 99 99.686V91.686C105.627 91.686 111 86.3135 111 79.686Z" fill="url(#paint1_linear_1314_2586)"/>
<path d="M135 69.686C135 55.3266 123.359 43.686 109 43.686C94.6406 43.686 83 55.3266 83 69.686C83 84.0454 94.6406 95.686 109 95.686V103.686C90.2223 103.686 75 88.4637 75 69.686C75 50.9084 90.2223 35.686 109 35.686C127.778 35.686 143 50.9084 143 69.686C143 88.4637 127.778 103.686 109 103.686V95.686C123.359 95.686 135 84.0454 135 69.686Z" fill="url(#paint2_linear_1314_2586)"/>
<path d="M159 59.686C159 37.5946 141.091 19.686 119 19.686C96.9086 19.686 79 37.5946 79 59.686C79 81.7774 96.9086 99.686 119 99.686V107.686C92.4903 107.686 71 86.1957 71 59.686C71 33.1764 92.4903 11.686 119 11.686C145.51 11.686 167 33.1764 167 59.686C167 86.1957 145.51 107.686 119 107.686V99.686C141.091 99.686 159 81.7774 159 59.686Z" fill="url(#paint3_linear_1314_2586)"/>
<path d="M87 97.686C83.6863 97.686 81 94.9997 81 91.686C81 88.3723 83.6863 85.686 87 85.686C90.3137 85.686 93 88.3723 93 91.686C93 94.9997 90.3137 97.686 87 97.686Z" fill="url(#paint4_linear_1314_2586)"/>
</g>
<defs>
<linearGradient id="paint0_linear_1314_2586" x1="54.5" y1="97.686" x2="190" y2="28.686" gradientUnits="userSpaceOnUse">
<stop stop-color="#FFB612"/>
<stop offset="1" stop-color="#F9E11E"/>
</linearGradient>
<linearGradient id="paint1_linear_1314_2586" x1="54.5" y1="97.686" x2="190" y2="28.686" gradientUnits="userSpaceOnUse">
<stop stop-color="#FFB612"/>
<stop offset="1" stop-color="#F9E11E"/>
</linearGradient>
<linearGradient id="paint2_linear_1314_2586" x1="54.5" y1="97.686" x2="190" y2="28.686" gradientUnits="userSpaceOnUse">
<stop stop-color="#FFB612"/>
<stop offset="1" stop-color="#F9E11E"/>
</linearGradient>
<linearGradient id="paint3_linear_1314_2586" x1="54.5" y1="97.686" x2="190" y2="28.686" gradientUnits="userSpaceOnUse">
<stop stop-color="#FFB612"/>
<stop offset="1" stop-color="#F9E11E"/>
</linearGradient>
<linearGradient id="paint4_linear_1314_2586" x1="54.5" y1="97.686" x2="190" y2="28.686" gradientUnits="userSpaceOnUse">
<stop stop-color="#FFB612"/>
<stop offset="1" stop-color="#F9E11E"/>
</linearGradient>
<clipPath id="clip0_1314_2586">
<rect width="240" height="120" fill="white" transform="translate(0 0.686035)"/>
</clipPath>
</defs>
</svg>
