<svg width="240" height="121" viewBox="0 0 240 121" fill="none" xmlns="http://www.w3.org/2000/svg">
<g clip-path="url(#clip0_1315_7183)">
<path d="M69.4262 8.00917C52.453 13.5719 39.0851 26.7194 37.0516 50.9992C35.3367 71.4593 38.813 105.768 67.3103 112.727C94.884 119.457 194.274 133.03 200.657 90.0232C204.291 65.5596 204.56 24.0334 173.019 10.668C151.632 1.60219 105.8 -3.91285 69.4226 8.01257L69.4262 8.00917Z" fill="#FEFBDD"/>
<path d="M163.105 43.9078C164.043 43.9068 164.932 44.3389 165.518 45.0815C166.105 45.8241 166.326 46.7966 166.119 47.7233L161.476 68.5677C161.146 70.0554 159.804 71.0843 158.299 71.0038C156.799 70.92 155.57 69.7593 155.394 68.2429L154.446 60.0303L143.473 70.4286C142.157 71.6771 141.402 73.4404 141.402 75.2664V103.27C141.402 105.87 139.321 106.408 136.753 106.408C134.185 106.408 132.104 105.87 132.104 103.27V75.2664C132.104 70.8467 133.932 66.5788 137.119 63.5579L148.581 52.6959L140.974 49.9898C139.551 49.4856 138.701 48.0152 138.951 46.5141C139.204 45.0104 140.491 43.9113 141.997 43.9124L163.105 43.9078Z" fill="url(#paint0_linear_1315_7183)"/>
<path d="M75.0903 43.9078C74.1521 43.9068 73.2634 44.3389 72.6767 45.0815C72.09 45.8241 71.8687 46.7966 72.0763 47.7233L76.7194 68.5677C77.0494 70.0554 78.3911 71.0843 79.8957 71.0038C81.3957 70.92 82.6247 69.7593 82.8008 68.2429L83.749 60.0303L94.7217 70.4286C96.0383 71.6771 96.7934 73.4404 96.7934 75.2664V103.27C96.7934 105.87 98.874 106.408 101.442 106.408C104.01 106.408 106.091 105.87 106.091 103.27V75.2664C106.091 70.8467 104.263 66.5788 101.076 63.5579L89.6139 52.6959L97.2215 49.9898C98.6445 49.4856 99.4942 48.0152 99.2437 46.5141C98.9906 45.0104 97.704 43.9113 96.1981 43.9124L75.0903 43.9078Z" fill="url(#paint1_linear_1315_7183)"/>
<path d="M114.362 33.1281L105.675 37.956C104.203 38.7737 102.344 38.4607 101.239 37.21C100.134 35.9592 100.094 34.1194 101.144 32.8259L116.806 13.4975C117.477 12.6689 118.5 12.186 119.583 12.186C120.666 12.186 121.689 12.6689 122.36 13.4975L138.021 32.8258C139.071 34.1183 139.032 35.9598 137.927 37.2099C136.822 38.4606 134.963 38.7736 133.491 37.9559L127.306 34.5186C127.306 34.5186 125.375 27.4452 125.207 26.8386C125.073 26.3545 124.803 26.5115 124.803 26.5115L124.802 104.599C124.802 107.363 122.35 108.187 119.583 108.186C116.813 108.187 114.361 107.362 114.361 104.599L114.362 33.1281Z" fill="url(#paint2_linear_1315_7183)"/>
</g>
<defs>
<linearGradient id="paint0_linear_1315_7183" x1="55.8102" y1="98.186" x2="189.79" y2="31.2427" gradientUnits="userSpaceOnUse">
<stop stop-color="#FFB612"/>
<stop offset="1" stop-color="#F9E11E"/>
</linearGradient>
<linearGradient id="paint1_linear_1315_7183" x1="55.8102" y1="98.186" x2="189.79" y2="31.2427" gradientUnits="userSpaceOnUse">
<stop stop-color="#FFB612"/>
<stop offset="1" stop-color="#F9E11E"/>
</linearGradient>
<linearGradient id="paint2_linear_1315_7183" x1="55.8102" y1="98.186" x2="189.79" y2="31.2427" gradientUnits="userSpaceOnUse">
<stop stop-color="#FFB612"/>
<stop offset="1" stop-color="#F9E11E"/>
</linearGradient>
<clipPath id="clip0_1315_7183">
<rect width="240" height="120" fill="white" transform="translate(0 0.686035)"/>
</clipPath>
</defs>
</svg>
