<svg width="240" height="121" viewBox="0 0 240 121" fill="none" xmlns="http://www.w3.org/2000/svg">
<g clip-path="url(#clip0_1315_7174)">
<path d="M169.574 8.00917C186.547 13.5719 199.915 26.7194 201.948 50.9992C203.663 71.4593 200.187 105.768 171.69 112.727C144.116 119.457 44.726 133.03 38.3427 90.0232C34.709 65.5596 34.4405 24.0334 65.9809 10.668C87.3682 1.60219 133.2 -3.91285 169.577 8.01257L169.574 8.00917Z" fill="#FEFBDD"/>
<path d="M98.96 80.1412C98.96 82.766 96.8378 84.8938 94.22 84.8938C91.6021 84.8938 89.48 82.766 89.48 80.1412C89.48 77.5164 91.6021 75.3886 94.22 75.3886C96.8378 75.3886 98.96 77.5164 98.96 80.1412Z" fill="url(#paint0_linear_1315_7174)"/>
<path d="M115.146 18.2769C116.916 18.1557 118.776 18.1558 120.546 18.2769C140.236 19.625 145.308 37.8797 145.742 54.3735C145.761 54.5276 145.77 54.6891 145.77 54.8583V56.0457C145.774 56.5015 145.773 56.9554 145.77 57.407V67.9615C145.77 67.9615 146.025 68.1099 146.152 67.6505C146.312 67.0734 148.139 60.3632 148.139 60.3632L153.992 57.1016C155.384 56.3258 157.145 56.623 158.19 57.8097C159.236 58.9959 159.273 60.7437 158.28 61.9701L143.458 80.3103C142.824 81.0964 141.855 81.5542 140.831 81.5543C139.806 81.5543 138.837 81.0965 138.202 80.3103L123.381 61.9693C122.387 60.742 122.424 58.9965 123.471 57.8097C124.516 56.623 126.276 56.3258 127.668 57.1016L135.587 61.514C136.251 48.7475 135.663 26.4514 119.09 24.3735C118.253 24.2686 117.44 24.2687 116.603 24.3735C99.2613 26.5475 99.419 67.1088 100.202 79.4761C89.6685 79.7376 100.202 79.4763 89.6683 79.7377C88.5535 61.7223 91.8146 19.8744 115.146 18.2769Z" fill="url(#paint1_linear_1315_7174)"/>
<path fill-rule="evenodd" clip-rule="evenodd" d="M136.579 102.11C145.04 102.09 139.757 101.733 146.099 102.148C158.21 102.941 158.21 91.0591 148.73 91.0591C148.73 85.5143 136.579 82.3459 133.375 90.4007C123.868 88.8141 121.08 102.148 136.579 102.11Z" fill="url(#paint2_linear_1315_7174)"/>
<path fill-rule="evenodd" clip-rule="evenodd" d="M90.9797 102.11C99.4403 102.09 94.158 101.733 100.5 102.148C112.611 102.941 112.611 91.0591 103.131 91.0591C103.131 85.5143 90.9797 82.3459 87.776 90.4007C78.269 88.8141 75.4809 102.148 90.9797 102.11Z" fill="url(#paint3_linear_1315_7174)"/>
</g>
<defs>
<linearGradient id="paint0_linear_1315_7174" x1="66.4219" y1="93.436" x2="180.644" y2="38.7336" gradientUnits="userSpaceOnUse">
<stop stop-color="#FFB612"/>
<stop offset="1" stop-color="#F9E11E"/>
</linearGradient>
<linearGradient id="paint1_linear_1315_7174" x1="66.4219" y1="93.436" x2="180.644" y2="38.7336" gradientUnits="userSpaceOnUse">
<stop stop-color="#FFB612"/>
<stop offset="1" stop-color="#F9E11E"/>
</linearGradient>
<linearGradient id="paint2_linear_1315_7174" x1="66.4219" y1="93.436" x2="180.644" y2="38.7336" gradientUnits="userSpaceOnUse">
<stop stop-color="#FFB612"/>
<stop offset="1" stop-color="#F9E11E"/>
</linearGradient>
<linearGradient id="paint3_linear_1315_7174" x1="66.4219" y1="93.436" x2="180.644" y2="38.7336" gradientUnits="userSpaceOnUse">
<stop stop-color="#FFB612"/>
<stop offset="1" stop-color="#F9E11E"/>
</linearGradient>
<clipPath id="clip0_1315_7174">
<rect width="240" height="120" fill="white" transform="translate(0 0.686035)"/>
</clipPath>
</defs>
</svg>
