<svg width="20" height="21" viewBox="0 0 20 21" fill="none" xmlns="http://www.w3.org/2000/svg">
<g clip-path="url(#clip0_1325_1118)">
<path d="M3.77881 0.275267C4.57278 0.161843 5.68595 0.420812 7.12433 1.24489L7.39735 1.4065L7.55795 1.50687L7.95644 1.42356C9.47593 1.12995 11.0349 1.10278 12.5637 1.34326L13.0214 1.42356L13.4189 1.50687L13.5805 1.4065C14.9707 0.563345 16.0768 0.232106 16.915 0.254188L17.0796 0.262218L17.2271 0.279282L17.3034 0.293335L17.3536 0.304376L17.4981 0.351553C17.7348 0.449375 17.9251 0.633943 18.0301 0.867483C18.4409 1.78261 18.5792 2.7967 18.4286 3.78841L18.3815 4.05641L18.3353 4.25315L18.4587 4.41676C19.0349 5.21475 19.3922 6.15125 19.4926 7.13393L19.5157 7.43004L19.5227 7.70306C19.5227 11.5725 17.8575 13.6082 14.8613 14.4081L14.6154 14.4694L14.4829 14.4985L14.4969 14.6601L14.5049 14.8177L14.509 15.184L14.507 15.3978L14.5039 19.2462C14.5039 19.4921 14.4136 19.7294 14.2503 19.9131C14.0869 20.0968 13.8618 20.2142 13.6176 20.243L13.5002 20.25H7.47765C7.2318 20.25 6.99451 20.1597 6.81079 19.9963C6.62706 19.833 6.50969 19.6078 6.48092 19.3637L6.4739 19.2462V18.5095C4.64907 18.7705 3.43252 18.0839 2.34846 16.6244L1.81145 15.8556C1.5304 15.4581 1.35474 15.2744 1.22024 15.2091L1.17206 15.1901C0.923542 15.1093 0.716313 14.9348 0.594417 14.7037C0.472521 14.4725 0.445569 14.203 0.519288 13.9523C0.593007 13.7016 0.761586 13.4895 0.989196 13.3612C1.21681 13.2328 1.4855 13.1982 1.73818 13.2649C2.38259 13.4536 2.81621 13.835 3.31408 14.5085L3.8541 15.2804C4.61695 16.3635 5.2192 16.7449 6.47289 16.4759L6.4739 15.7953L6.45583 15.6267C6.42619 15.352 6.41914 15.0754 6.43475 14.7996L6.45182 14.6139L6.47089 14.4935L6.36248 14.4694C3.3753 13.7567 1.64182 11.8867 1.46917 8.30732L1.45914 7.99615L1.45512 7.70306C1.45628 6.61557 1.77288 5.55176 2.36653 4.6406L2.5191 4.41777L2.64156 4.25415L2.59639 4.05742C2.41543 3.17568 2.46557 2.26213 2.74194 1.4055L2.84231 1.12244L2.94871 0.868486C3.0535 0.635133 3.24342 0.450591 3.4797 0.352556L3.62424 0.30538L3.77881 0.275267Z" fill="white"/>
</g>
<defs>
<clipPath id="clip0_1325_1118">
<rect width="20" height="20" fill="white" transform="translate(0 0.25)"/>
</clipPath>
</defs>
</svg>
