<svg width="20" height="20" viewBox="0 0 20 20" fill="none" xmlns="http://www.w3.org/2000/svg">
  <g clip-path="url(#clip0_2242_1648)">
    <path d="M10.1613 11.7221C10.1613 12.0098 10.3832 12.1907 10.7694 12.1907C11.09 12.1907 11.3365 12.1248 11.616 11.977V11.2126C11.4599 11.2044 11.2461 11.1961 11.0818 11.1961C10.416 11.1961 10.1613 11.4099 10.1613 11.7221Z" fill="white"/>
    <path d="M6.56956 8.35246H6.51188L5.81219 10.8549H7.24463L6.56956 8.35246Z" fill="white"/>
    <path fill-rule="evenodd" clip-rule="evenodd" d="M6.04 -0.0800781H18.2392C18.6594 -0.0800781 19 0.260518 19 0.680674V16.1199C19 16.5176 18.6777 16.8399 18.28 16.8399H17.2V1.71992H6.04C5.365 1.71992 3.475 1.85492 3.11075 2.89147C2.99429 3.22289 3.14888 3.51992 3.4772 3.51992H15.3579C15.7788 3.51992 16.12 3.86052 16.12 4.28067V19.3192C16.12 19.7393 15.7788 20.0799 15.3579 20.0799H3.16C1.76475 20.0799 1 19.0876 1 17.6169V3.50772C1 0.887422 3.54383 -0.0800781 6.04 -0.0800781ZM9.55317 9.85657C9.98873 9.67574 10.3176 9.61008 10.712 9.61008C11.353 9.61008 11.616 9.85653 11.616 10.3004V10.5305C11.5335 10.5305 11.4491 10.5286 11.361 10.5267C11.2649 10.5245 11.1644 10.5223 11.0572 10.5223C9.78332 10.5223 9.208 11.0483 9.208 11.7962C9.208 12.4782 9.66815 12.9303 10.4982 12.9303C10.9831 12.9303 11.3119 12.8316 11.6488 12.618V12.881H12.52V10.1935C12.52 9.28125 11.9777 8.7635 10.8846 8.7635C10.3586 8.7635 9.92307 8.86218 9.42166 9.07584L9.55317 9.85657ZM5.85341 7.47992H7.34331L8.93206 12.8799H7.80436L7.45865 11.6452H5.61477L5.2691 12.8799H4.24832L5.85341 7.47992Z" fill="white"/>
  </g>
  <defs>
    <clipPath id="clip0_2242_1648">
      <rect width="20" height="20" fill="white"/>
    </clipPath>
  </defs>
</svg>
