<svg width="24" height="25" viewBox="0 0 24 25" fill="none" xmlns="http://www.w3.org/2000/svg">
<path d="M21.2 5.5H2.8C2.3582 5.5 2 5.8582 2 6.3V18.3C2 18.7418 2.3582 19.1 2.8 19.1H21.2C21.6418 19.1 22 18.7418 22 18.3V6.3C22 5.8582 21.6418 5.5 21.2 5.5ZM19.6168 7.5L12 12.5406L4.38324 7.5H19.6168ZM4 9.165L11.5586 14.1672C11.6922 14.2557 11.8461 14.3 12 14.3C12.1539 14.3 12.3078 14.2557 12.4414 14.1672L20 9.165V17.074L15.266 13.6297C15.266 13.6297 15.1695 13.691 15.2562 13.7969C15.343 13.9028 17.9804 17.1 17.9804 17.1H6.06756C6.06756 17.1 8.7012 13.909 8.78752 13.8031C8.87384 13.6972 8.78244 13.6297 8.78244 13.6297L4.01272 17.1H4V9.165Z" fill="white"/>
</svg>
