<svg width="20" height="20" viewBox="0 0 20 20" fill="none" xmlns="http://www.w3.org/2000/svg">
<g clip-path="url(#clip0_1325_1112)">
<path d="M9.42052 -0.353111C5.49637 -0.081654 2.15505 2.3415 0.725908 5.94629C-0.551537 9.17982 -0.0565266 12.8445 2.04327 15.6269C3.6321 17.7427 5.92351 19.1 8.60216 19.4992C9.26084 19.607 10.5183 19.6269 11.1371 19.5471C13.0812 19.2956 14.8177 18.5651 16.2868 17.3834C16.8057 16.9643 17.6042 16.1379 17.9714 15.6389C19.0253 14.2217 19.68 12.613 19.9275 10.8365C19.9914 10.3455 19.9914 8.8924 19.9275 8.40138C19.7678 7.27164 19.4485 6.21376 18.9614 5.22773C18.4505 4.1898 17.9036 3.41934 17.0932 2.60098C16.678 2.17384 15.9754 1.57503 15.9036 1.57503C15.8796 1.57503 15.8876 1.99419 15.9155 2.61296L15.9674 3.65088L16.2469 3.99819C17.0053 4.94429 17.5562 6.13391 17.7718 7.31156C17.8716 7.87044 17.8916 9.02813 17.8117 9.53911C17.6321 10.6489 17.205 11.6948 16.5742 12.593C16.2309 13.08 15.4564 13.8545 14.9694 14.1978C14.0113 14.8764 12.9734 15.2996 11.7758 15.5152C11.3766 15.587 9.81972 15.587 9.42052 15.5152C7.70395 15.2078 6.27481 14.4772 5.14108 13.3275C3.97142 12.1419 3.28479 10.7726 3.04926 9.15986C2.96942 8.60098 2.98938 7.48322 3.08918 6.96425C3.59218 4.46525 5.26882 2.4932 7.66403 1.60298C7.98339 1.48322 8.39856 1.37144 8.84168 1.27563C8.90954 1.25966 10.2149 -0.241335 10.2509 -0.345127C10.2628 -0.385047 9.84367 -0.385047 9.42052 -0.361095V-0.353111Z" fill="white"/>
<path d="M12.8624 0.982086C12.8105 1.01402 12.527 1.35334 12.2237 1.72859C11.9282 2.10783 11.3294 2.84636 10.8983 3.3733C8.86238 5.85634 8.26358 6.63079 8.07994 7.00604C7.84042 7.48508 7.74461 7.84436 7.72066 8.3234C7.67276 9.11382 7.92026 9.76053 8.47914 10.3194C8.86238 10.6987 9.18174 10.8983 9.7007 11.0659C10.06 11.1857 10.1159 11.1937 10.6588 11.1937C11.2097 11.1937 11.2576 11.1937 11.561 11.0739C12.4871 10.7146 13.1179 9.94017 13.3574 8.85035C13.4372 8.523 13.4372 7.70464 13.3734 5.66871L13.2935 2.79446C13.2536 1.3254 13.2376 1.1258 13.1738 1.03797C13.0939 0.918214 12.9821 0.894262 12.8624 0.982086Z" fill="white"/>
</g>
<defs>
<clipPath id="clip0_1325_1112">
<rect width="20" height="20" fill="white"/>
</clipPath>
</defs>
</svg>
