<svg xmlns="http://www.w3.org/2000/svg" width="20" height="21" fill="none" viewBox="0 0 20 21">
  <path fill="#fff" fill-rule="evenodd" d="M20 3.525a.412.412 0 0 0-.412-.412H4.079a.403.403 0 0 0-.405.403l.003 8.94c0 2.57-.31 2.353-.37 2.299L2.129 5.97H.454c-.25 0-.44.219-.405.465.228 1.549.705 4.785.963 6.567.387 2.68.754 5.213 3.886 5.213h12.22c1.991 0 2.882-2.887 2.882-5.75v-8.94ZM10.573 14.13c-.035.44-.069.744-.213 1.229H6.355c.073-.388.124-.801.152-1.229h4.066Zm6.162 1.229c.257-.544.408-1.418.408-2.49v-2.816h-5.306v3.3a7.9 7.9 0 0 1-.233 2.006h5.13ZM6.53 13.318h4.082v-1.225H6.53v1.224Zm4.082-2.042H6.53v-1.224h4.082v1.224Zm6.53-2.857H6.53V5.97h10.613v2.45Z" clip-rule="evenodd"/>
</svg>
