<?xml version="1.0" encoding="utf-8"?>
<!-- Generator: Adobe Illustrator 27.8.0, SVG Export Plug-In . SVG Version: 6.00 Build 0)  -->
<svg version="1.1" id="Layer_1" xmlns="http://www.w3.org/2000/svg" xmlns:xlink="http://www.w3.org/1999/xlink" x="0px" y="0px"
	 viewBox="0 0 850.4 850.4" style="enable-background:new 0 0 850.4 850.4;" xml:space="preserve">
<style type="text/css">
	.st0{fill:#F9A825;}
	.st1{fill:#03A9F4;}
	.st2{fill:#1A237E;}
</style>
<path class="st0" d="M257.3,410.9c0,9.7,3.8,19,10.6,25.9c6.8,6.9,16.2,10.8,25.9,10.8c9.7,0,19-3.8,25.9-10.7l116.6-116.8
	c6.9-6.9,10.7-16.3,10.7-26V293c0.4-10.1-3.5-19.9-10.7-27L319.7,149.4c-9.3-8.9-22.6-12.2-35-8.7c-12.4,3.4-22,13.1-25.5,25.5
	c-3.4,12.4-0.1,25.7,8.8,35l92,92l-92,92C261.2,391.9,257.3,401.2,257.3,410.9z"/>
<path class="st1" d="M593,410.9c0,9.7-3.8,19-10.6,25.9c-6.8,6.9-16.2,10.8-25.9,10.8c-9.7,0-19-3.8-25.9-10.7L414,320.2
	c-6.9-6.9-10.7-16.3-10.7-26V293c-0.4-10.1,3.5-19.9,10.7-27l116.7-116.5c9.3-8.9,22.6-12.2,35-8.7c12.4,3.4,22,13.1,25.5,25.5
	c3.4,12.4,0.1,25.7-8.8,35l-92,92l92,92C589.2,391.9,593.1,401.2,593,410.9z"/>
<path class="st2" d="M447.1,294.3v-1.2c0.4-10.1-3.5-19.9-10.7-27l-11.2-11.2L414,266c-7.2,7.1-11,16.9-10.7,27v1.2
	c0,9.7,3.8,19.1,10.7,26l11.2,11.2l11.2-11.2C443.3,313.4,447.1,304,447.1,294.3z"/>
<g>
	<path d="M581.6,503.8c-10.7-7.1-23.5-11.2-37.3-11.2c-36.6,0-66.3,29.7-66.3,66.3s29.7,66.3,66.3,66.3c16.2,0,31.3-6.2,43-16
		c3.4-2.1,5.7-5.5,5.7-9.8c0-6.4-5-11.4-11.4-11.4c-2.7,0-5,0.7-7.1,2.3c-8,7.3-18.5,12.1-30.4,12.1c-23.8,0-40.2-19-40.2-42.7
		c0-23.5,16.5-43,40.2-43c10.1,0,19.7,3.7,27.2,9.1c1.6,0.7,3,0.9,4.6,0.9c6.4,0,12.1-5.5,12.1-12.1
		C588,510.2,585.1,505.8,581.6,503.8 M439.7,522.3c5.5,0,11.2-5.7,11.2-11.4c0-5.3-3.2-10.1-8.5-11.9c-8-2.7-19.9-6.4-31.5-6.4
		c-29.5,0-45.9,13.7-45.9,37.3c0,45.7,67.6,37.7,67.6,59c0,7.5-10.3,13.5-21,13.5c-17.4,0-31.1-4.8-35.9-7.5
		c-0.5-0.2-1.1-0.5-1.8-0.5c-5.7,0-10.3,6.2-10.3,11.7c0,5.3,3,9.6,7.8,11.2c13.7,7.1,29.5,8,43.4,8c18.3,0,43.4-13.3,43.4-34.5
		c0-44.1-67.4-35.9-67.4-59.6c0-2.7,0.5-14.6,20.8-14.6C420.1,516.4,433.8,520.5,439.7,522.3 M283.2,572.3h40.4
		c6.2,0,11.2-5.3,11.2-11.4c0-6.2-5-11.4-11.2-11.4h-40.4v-31.8h53c6.2,0,11.4-5.5,11.4-11.7c0-6.4-5.3-11.9-11.4-11.9h-66
		c-7.1,0-12.8,5.9-12.8,13V611c0,7.1,5.7,13,12.8,13c7.1,0,13-5.9,13-13V572.3z"/>
</g>
</svg>
