<svg width="50" height="18" viewBox="0 0 50 18" fill="none" xmlns="http://www.w3.org/2000/svg">
<path d="M13.2474 6.21683H7.69828V4.80183H13.2474V6.21683Z" fill="#101729"/>
<path d="M13.2474 8.95567H7.69828V7.54066H13.2474V8.95567Z" fill="#101729"/>
<path d="M7.69828 11.7857H13.2474V10.3707H7.69828V11.7857Z" fill="#101729"/>
<path fill-rule="evenodd" clip-rule="evenodd" d="M0.68228 3.58124C0.345218 3.58124 0.0719757 3.85448 0.0719757 4.19154C0.0719757 4.5286 0.345218 4.80185 0.68228 4.80185H2.06306V8.38969H0.68228C0.345218 8.38969 0.0719757 8.66293 0.0719757 8.99999C0.0719757 9.33706 0.345218 9.6103 0.68228 9.6103H2.06306V13.0627H0.68228C0.345218 13.0627 0.0719757 13.3359 0.0719757 13.673C0.0719757 14.0101 0.345218 14.2833 0.68228 14.2833H2.06306V17.5283C2.06306 17.5779 2.0707 17.6256 2.08485 17.6705V18L14.7981 18C15.0586 18 15.2697 17.7888 15.2697 17.5283L15.2698 0.471668C15.2698 0.211174 15.0586 0 14.7981 0H2.53473C2.50348 0 2.47294 0.00303896 2.44339 0.00883801H2.08485V0.329539C2.0707 0.37439 2.06306 0.422137 2.06306 0.471667V3.58124H0.68228ZM6.79569 17.0616V0.938357L14.3391 0.938358L14.3391 17.0616L6.79569 17.0616ZM3.79294 6.21682C3.4022 6.21682 3.08544 5.90006 3.08544 5.50932C3.08544 5.11858 3.4022 4.80182 3.79294 4.80182H4.66841C5.05915 4.80182 5.37591 5.11858 5.37591 5.50932C5.37591 5.90006 5.05915 6.21682 4.66841 6.21682H3.79294ZM5.37591 8.24815C5.37591 8.6389 5.05915 8.95565 4.66841 8.95565H3.79294C3.4022 8.95565 3.08544 8.6389 3.08544 8.24815C3.08544 7.85741 3.4022 7.54065 3.79294 7.54065H4.66841C5.05915 7.54065 5.37591 7.85741 5.37591 8.24815ZM3.79294 11.7857C3.4022 11.7857 3.08544 11.4689 3.08544 11.0782C3.08544 10.6874 3.4022 10.3707 3.79294 10.3707H4.66841C5.05915 10.3707 5.37591 10.6874 5.37591 11.0782C5.37591 11.4689 5.05915 11.7857 4.66841 11.7857H3.79294ZM4.66841 14.6157C5.05915 14.6157 5.37591 14.2989 5.37591 13.9082C5.37591 13.5174 5.05915 13.2007 4.66841 13.2007H3.79294C3.4022 13.2007 3.08544 13.5174 3.08544 13.9082C3.08544 14.2989 3.4022 14.6157 3.79294 14.6157H4.66841Z" fill="#101729"/>
<path d="M44.468 14.68C44.248 14.68 44.108 14.58 44.048 14.4L39.028 4.5C39.008 4.46 39.008 4.4 39.008 4.3C39.008 3.66 39.628 3.32 40.208 3.32C40.628 3.32 41.028 3.54 41.248 3.92L44.468 10.32L47.688 3.92C47.908 3.54 48.308 3.32 48.728 3.32C49.308 3.32 49.928 3.66 49.928 4.3C49.928 4.4 49.928 4.46 49.908 4.5L44.888 14.4C44.828 14.58 44.688 14.68 44.468 14.68Z" fill="#101729"/>
<path d="M32.5455 14.68H29.5655C28.9455 14.68 28.4455 14.16 28.4455 13.54V4.46C28.4455 3.84 28.9455 3.32 29.5655 3.32H32.5455C35.7455 3.32 38.0055 5.84 38.0055 9.04C38.0055 12.24 35.7455 14.68 32.5455 14.68ZM30.7055 12.66H32.1855C34.2655 12.66 35.7455 11.18 35.7455 9.1C35.7455 7.02 34.2655 5.4 32.1855 5.4H30.7055V12.66Z" fill="#101729"/>
<path d="M25.1698 14.68H19.3898C18.7698 14.68 18.2698 14.16 18.2698 13.54V4.46C18.2698 3.84 18.7698 3.32 19.3898 3.32C20.0098 3.32 20.5298 3.84 20.5298 4.46V12.66H25.1698C25.7098 12.66 26.1698 13.12 26.1698 13.68C26.1698 14.22 25.7098 14.68 25.1698 14.68Z" fill="#101729"/>
</svg>
