<svg width="50" height="14" viewBox="0 0 50 14" fill="none" xmlns="http://www.w3.org/2000/svg">
<path d="M1.50297 12.333L1.50003 12.3324C1.50179 12.151 1.57405 11.9869 1.68377 11.8767L1.68381 11.8767L1.69072 11.8697L5.77183 7.69008L6.454 6.99145L5.77183 6.29282L1.70182 2.12461C1.55156 1.95745 1.49017 1.71291 1.55114 1.48323C1.61714 1.24588 1.7913 1.08033 1.9895 1.02437L1.98951 1.02438L1.99443 1.02297C2.19341 0.965687 2.40887 1.01664 2.56525 1.16581L7.72693 6.45202L7.7269 6.45205L7.73349 6.45868C7.85617 6.582 7.92557 6.75565 7.9184 6.94051L7.91765 6.95989V6.97928V7.02796C7.91765 7.21535 7.84535 7.3883 7.72693 7.50958L7.72633 7.5102L2.55575 12.8147C2.55566 12.8147 2.55558 12.8148 2.5555 12.8149C2.43666 12.9365 2.28139 13 2.12175 13C1.96472 13 1.80853 12.9356 1.69286 12.8169C1.57419 12.692 1.50297 12.5185 1.50297 12.333Z" fill="white" stroke="#101729" stroke-width="2"/>
<path d="M15.3928 12.333C15.3928 12.7741 15.2235 13.1969 14.9235 13.5103C14.6205 13.8236 14.2047 14 13.774 14C13.3433 14 12.9305 13.8266 12.6245 13.5133L7.45336 8.21126C7.14743 7.89794 6.97813 7.47207 6.97813 7.031V6.97624C6.9603 6.51692 7.13258 6.07279 7.45336 5.75035L12.6305 0.45744C13.0433 0.0528662 13.6344 -0.096188 14.1839 0.061991C14.7334 0.217128 15.1611 0.658204 15.3156 1.22096C15.4671 1.78371 15.3185 2.38905 14.9265 2.81188L10.8454 6.99145L14.9265 11.171C15.2294 11.4722 15.4017 11.892 15.3958 12.333H15.3928Z" fill="#101729"/>
<path d="M8.92064 7.03708V6.98233C8.93846 6.523 8.76619 6.07888 8.4454 5.75644L7.94937 5.24844L7.45334 5.7534C7.13256 6.07584 6.96622 6.51996 6.9781 6.97929V7.03404C6.9781 7.47512 7.14741 7.90098 7.45334 8.2143L7.94937 8.7223L8.4454 8.2143C8.75133 7.90403 8.92064 7.47816 8.92064 7.03708Z" fill="white"/>
<mask id="mask0_7_13" style="mask-type:alpha" maskUnits="userSpaceOnUse" x="6" y="5" width="3" height="4">
<path d="M8.91862 7.0517V6.99695C8.93644 6.53762 8.76417 6.0935 8.44339 5.77106L7.94736 5.26306L7.45133 5.76802C7.13054 6.09046 6.96421 6.53458 6.97609 6.99391V7.04866C6.97609 7.48973 7.14539 7.9156 7.45133 8.22892L7.94736 8.73692L8.44339 8.22892C8.74932 7.91864 8.91862 7.49278 8.91862 7.0517Z" fill="#1A237E"/>
</mask>
<g mask="url(#mask0_7_13)">
<path fill-rule="evenodd" clip-rule="evenodd" d="M9.40581 5.49006L5.54736 7.77149L5.25034 7.24461L9.10879 4.96319L9.40581 5.49006Z" fill="#101729"/>
<path fill-rule="evenodd" clip-rule="evenodd" d="M9.85137 6.28037L5.99292 8.5618L5.69589 8.03493L9.55434 5.7535L9.85137 6.28037Z" fill="#101729"/>
<path fill-rule="evenodd" clip-rule="evenodd" d="M10.2969 7.07067L6.43844 9.3521L6.14142 8.82523L9.99987 6.5438L10.2969 7.07067Z" fill="#101729"/>
</g>
<path d="M23.0619 8.6067H26.5104C27.0391 8.6067 27.4668 8.14433 27.4668 7.60895C27.4668 7.07358 27.0391 6.61121 26.5104 6.61121H23.0619V3.83091H27.5856C28.1143 3.83091 28.5598 3.35028 28.5598 2.80883C28.5598 2.26737 28.1084 1.76849 27.5856 1.76849H21.954C21.3481 1.76849 20.861 2.28258 20.861 2.90312V11.9832C20.861 12.6038 21.3481 13.1178 21.954 13.1178C22.56 13.1178 23.0649 12.6007 23.0649 11.9832V8.60062L23.0619 8.6067ZM36.4191 4.23548C36.8884 4.23548 37.3755 3.73661 37.3755 3.23774C37.3755 2.77537 37.1022 2.35558 36.6508 2.1974C35.9676 1.96014 34.9518 1.6377 33.9627 1.6377C31.4439 1.6377 30.045 2.83621 30.045 4.89862C30.045 8.89264 35.8132 8.193 35.8132 10.0546C35.8132 10.7087 34.934 11.2349 34.0221 11.2349C32.537 11.2349 31.3667 10.8151 30.9598 10.5809C30.9182 10.5626 30.8647 10.5383 30.8053 10.5383C30.3182 10.5383 29.9262 11.0798 29.9262 11.5604C29.9262 12.041 30.1816 12.4 30.5915 12.5399C31.7618 13.1604 33.1102 13.2395 34.2954 13.2395C35.8577 13.2395 37.9993 12.0775 37.9993 10.225C37.9993 6.3709 32.2459 7.08575 32.2459 5.01725C32.2459 4.77998 32.2875 3.74269 34.0221 3.74269C34.7468 3.72444 35.9171 4.08339 36.4191 4.24157M48.5287 2.62023C47.6169 1.99968 46.5238 1.64074 45.3446 1.64074C42.22 1.64074 39.6864 4.23548 39.6864 7.43557C39.6864 10.6356 42.22 13.2304 45.3446 13.2304C46.7258 13.2304 48.0149 12.6889 49.0129 11.8311C49.304 11.6486 49.5 11.3505 49.5 10.9733C49.5 10.4136 49.0723 9.97555 48.5258 9.97555C48.2941 9.97555 48.0981 10.0364 47.9198 10.1763C47.2367 10.8151 46.3397 11.2349 45.3268 11.2349C43.2952 11.2349 41.8962 9.57402 41.8962 7.50249C41.8962 5.43095 43.3041 3.74269 45.3268 3.74269C46.1882 3.74269 47.008 4.06514 47.6496 4.53663C47.7862 4.59747 47.905 4.61572 48.0416 4.61572C48.5881 4.61572 49.0753 4.1351 49.0753 3.55714C49.0753 3.17386 48.8287 2.78753 48.5287 2.61414" fill="#101729"/>
</svg>
