<svg width="50" height="22" viewBox="0 0 50 22" fill="none" xmlns="http://www.w3.org/2000/svg">
<path d="M44.4734 16.68C44.2534 16.68 44.1134 16.58 44.0534 16.4L39.0334 6.50001C39.0134 6.46001 39.0134 6.40001 39.0134 6.30001C39.0134 5.66001 39.6334 5.32001 40.2134 5.32001C40.6334 5.32001 41.0334 5.54001 41.2534 5.92001L44.4734 12.32L47.6934 5.92001C47.9134 5.54001 48.3134 5.32001 48.7334 5.32001C49.3134 5.32001 49.9334 5.66001 49.9334 6.30001C49.9334 6.40001 49.9334 6.46001 49.9134 6.50001L44.8934 16.4C44.8334 16.58 44.6934 16.68 44.4734 16.68Z" fill="#101729"/>
<path d="M32.4548 7.38001H30.1548C29.6148 7.38001 29.1548 6.90001 29.1548 6.36001C29.1548 5.80001 29.6148 5.32001 30.1548 5.32001H37.0148C37.5548 5.32001 38.0148 5.80001 38.0148 6.36001C38.0148 6.90001 37.5548 7.38001 37.0148 7.38001H34.7148V15.54C34.7148 16.16 34.1948 16.68 33.5748 16.68C32.9548 16.68 32.4548 16.16 32.4548 15.54V7.38001Z" fill="#101729"/>
<path d="M21.9999 12.16V15.54C21.9999 16.16 21.4799 16.68 20.8599 16.68C20.2399 16.68 19.7399 16.16 19.7399 15.54V6.46001C19.7399 5.84001 20.2399 5.32001 20.8599 5.32001H26.6399C27.1799 5.32001 27.6399 5.80001 27.6399 6.36001C27.6399 6.90001 27.1799 7.38001 26.6399 7.38001H21.9999V10.16H25.5399C26.0799 10.16 26.5199 10.62 26.5199 11.16C26.5199 11.7 26.0799 12.16 25.5399 12.16H21.9999Z" fill="#101729"/>
<path d="M14.3084 15.1779V12.5737C14.9881 12.2208 15.5669 11.7 15.9899 11.0605C16.413 10.421 16.6664 9.68398 16.7262 8.91905C16.786 8.15411 16.6502 7.38652 16.3317 6.68881C16.0132 5.99109 15.5225 5.38629 14.9059 4.93156C14.9704 4.63769 15.003 4.33768 15.0031 4.03678C15.0031 2.11842 13.7561 0.555176 12.2242 0.555176C11.1023 0.555176 10.1053 1.38728 9.67115 2.65807C9.5982 2.6511 9.52178 2.64414 9.44536 2.64414C8.24808 2.64529 7.10016 3.12251 6.25355 3.97107C5.40695 4.81963 4.93082 5.97019 4.92967 7.17023C4.92967 7.63849 5.00353 8.1038 5.14851 8.54894L0.167354 13.5381C0.103358 13.6045 0.0672896 13.693 0.0666199 13.7853V16.2224C0.0668948 16.3147 0.10358 16.4031 0.168663 16.4683C0.233746 16.5335 0.321939 16.5703 0.413981 16.5706H2.84551C2.93755 16.5703 3.02574 16.5335 3.09082 16.4683C3.15591 16.4031 3.19259 16.3147 3.19287 16.2224V15.1779H4.23495C4.32699 15.1776 4.41518 15.1409 4.48027 15.0756C4.54535 15.0104 4.58204 14.922 4.58231 14.8298V13.7853H5.62439C5.71648 13.7846 5.80479 13.7485 5.87102 13.6843L8.06981 11.477C8.35235 11.5669 8.64333 11.6276 8.93822 11.658C9.28468 12.0287 9.69099 12.3383 10.1401 12.5737V19.3559C10.1408 19.4482 10.1768 19.5367 10.2408 19.603L11.9776 21.3438C12.0435 21.4086 12.132 21.4448 12.2242 21.4448C12.3165 21.4448 12.405 21.4086 12.4709 21.3438L14.2077 19.603C14.2728 19.5373 14.3093 19.4485 14.3093 19.3559C14.3093 19.2632 14.2728 19.1744 14.2077 19.1087L13.4087 18.3114L14.2077 17.5141C14.2728 17.4483 14.3093 17.3595 14.3093 17.2669C14.3093 17.1743 14.2728 17.0854 14.2077 17.0197L13.4087 16.2224L14.2077 15.4251C14.2717 15.3587 14.3077 15.2702 14.3084 15.1779ZM12.2242 1.2515C13.374 1.2515 14.3084 2.50139 14.3084 4.03678C14.3076 4.20332 14.296 4.36962 14.2737 4.53465C13.7875 4.2852 13.2603 4.12596 12.7175 4.06464C12.0909 3.39776 11.2768 2.93757 10.3832 2.74511C10.7375 1.83989 11.4462 1.2515 12.2242 1.2515ZM13.6137 12.3578V15.0352L12.6723 15.9752C12.6073 16.0409 12.5707 16.1298 12.5707 16.2224C12.5707 16.315 12.6073 16.4039 12.6723 16.4696L13.4713 17.2669L12.6723 18.0642C12.6073 18.1299 12.5707 18.2188 12.5707 18.3114C12.5707 18.404 12.6073 18.4928 12.6723 18.5586L13.4713 19.3559L12.2242 20.6057L10.8348 19.2131V12.3578C10.8347 12.2913 10.8157 12.2261 10.7801 12.17C10.7444 12.1139 10.6935 12.0692 10.6333 12.041C10.1645 11.8263 9.74396 11.5187 9.39695 11.1367C9.04994 10.7547 8.78369 10.3062 8.61424 9.81832C8.44479 9.33042 8.37565 8.81319 8.41098 8.29779C8.44631 7.7824 8.58539 7.2795 8.81983 6.81943C9.05427 6.35935 9.37922 5.9516 9.77509 5.62077C10.171 5.28994 10.6296 5.04287 11.1233 4.89445C11.617 4.74602 12.1355 4.69932 12.6477 4.75716C13.1599 4.815 13.6551 4.97617 14.1035 5.23097C13.9913 5.55642 13.8206 5.85851 13.5998 6.12226C13.3381 5.78184 12.96 5.55041 12.5383 5.47249C12.1166 5.39456 11.6811 5.47564 11.3154 5.70012C10.9498 5.92461 10.6799 6.27666 10.5575 6.68858C10.4352 7.1005 10.4691 7.5432 10.6528 7.93157C10.8364 8.31993 11.1568 8.62654 11.5524 8.79244C11.9479 8.95833 12.3907 8.9718 12.7956 8.83025C13.2005 8.68871 13.5388 8.40214 13.7456 8.02565C13.9524 7.64916 14.0131 7.20933 13.9159 6.79073C14.2487 6.4647 14.5112 6.07365 14.687 5.6418C15.1793 6.05675 15.5588 6.58983 15.7902 7.19139C16.0215 7.79294 16.0972 8.4434 16.0102 9.08217C15.9231 9.72094 15.6762 10.3272 15.2924 10.8446C14.9086 11.362 14.4004 11.7735 13.8152 12.041C13.755 12.0692 13.7041 12.1139 13.6684 12.17C13.6328 12.2261 13.6138 12.2913 13.6137 12.3578ZM12.2242 7.51839C12.583 7.51678 12.9363 7.43093 13.2559 7.26771C13.2314 7.51007 13.1225 7.73605 12.9484 7.90603C12.7743 8.07601 12.5461 8.17915 12.3037 8.19738C12.0614 8.21561 11.8203 8.14775 11.6229 8.00571C11.4254 7.86367 11.2842 7.65651 11.2238 7.42053C11.1635 7.18455 11.1879 6.93481 11.2929 6.71509C11.3978 6.49537 11.5766 6.31969 11.7978 6.21883C12.0191 6.11797 12.2687 6.09837 12.5029 6.16347C12.7371 6.22857 12.9409 6.37421 13.0788 6.57487C12.8218 6.73406 12.5263 6.81956 12.2242 6.82207C12.1321 6.82207 12.0438 6.85875 11.9786 6.92404C11.9135 6.98933 11.8769 7.07789 11.8769 7.17023C11.8769 7.26257 11.9135 7.35112 11.9786 7.41642C12.0438 7.48171 12.1321 7.51839 12.2242 7.51839Z" fill="#101729"/>
</svg>
