<svg width="24" height="25" viewBox="0 0 24 25" fill="none" xmlns="http://www.w3.org/2000/svg">
    <path d="M20.6509 3.88636C21.2399 3.98705 21.688 4.44665 21.786 5.05074C22.0698 6.79718 22.0698 7.19761 22.0698 8.94516C22.0698 9.52728 22.0698 11.0929 21.786 12.8397C21.688 13.4435 21.2399 13.9031 20.6509 14.0039C20.2999 14.0639 19.8996 14.111 19.482 14.1488L20.2275 16.1894C20.2861 16.3359 20.2803 16.4531 20.2041 16.5468C20.0975 16.6779 19.9056 16.7424 19.7048 16.6084L16.9007 14.3365C16.9132 13.8914 16.9135 13.5364 16.9135 13.3099C16.9135 11.369 16.9135 10.8471 16.5861 8.83277C16.4178 7.79548 15.6501 7.01252 14.6302 6.83822C13.0378 6.56593 10.6125 6.50897 9.11789 6.50229C9.15936 6.04625 9.21723 5.55661 9.29943 5.05074C9.39756 4.44665 9.84561 3.98705 10.4345 3.88636C12.1372 3.59521 14.9752 3.59521 15.5428 3.59521C16.1102 3.59521 18.9482 3.59521 20.6509 3.88636Z" fill="#154273"/>
    <path d="M8.79276 7.34522C9.42539 7.34522 12.5895 7.34522 14.4879 7.66985C15.1445 7.78209 15.644 8.29445 15.7533 8.96792C16.0697 10.9152 16.0697 11.3617 16.0697 13.3099C16.0697 13.9588 16.0697 15.7045 15.7533 17.6517C15.644 18.3251 15.1445 18.8375 14.4879 18.9499C12.7618 19.2449 9.99576 19.2716 9.03111 19.274L4.8118 21.8521C4.62689 21.9697 4.38333 21.9148 4.26689 21.7294C4.21304 21.6434 4.19549 21.5463 4.21158 21.4533L4.23115 21.3839L4.23471 21.3857L5.45642 17.0742C5.45642 17.0742 5.38019 17.0045 5.30646 17.1119L3.90081 19.0607C3.61735 19.0288 3.34611 18.9923 3.09764 18.9499C2.44082 18.8375 1.94133 18.3251 1.83201 17.6517C1.51562 15.7045 1.51562 13.9588 1.51562 13.3099C1.51562 12.661 1.51562 10.9152 1.83201 8.96792C1.94133 8.29445 2.44082 7.78209 3.09764 7.66985C4.99589 7.34522 8.15995 7.34522 8.79276 7.34522Z" fill="#154273"/>
</svg>

