<svg width="24" height="24" viewBox="0 0 24 24" fill="none" xmlns="http://www.w3.org/2000/svg">
    <path d="M22.1058 9.61681L12.4521 16.7991C12.182 17 11.8174 17 11.5473 16.7991L1.89356 9.61681C1.7334 9.49767 1.7334 9.25197 1.89356 9.13284L11.5473 1.9505C11.8174 1.74957 12.182 1.74957 12.4521 1.9505L22.1058 9.13284C22.266 9.25201 22.266 9.49767 22.1058 9.61681Z" fill="#154273"/>
    <path d="M11.9997 18.5361L20.7047 12.2492L22.1058 13.2916C22.266 13.4107 22.266 13.6564 22.1058 13.7756L12.4521 20.9579C12.182 21.1588 11.8174 21.1588 11.5473 20.9579L1.89356 13.7756C1.7334 13.6564 1.7334 13.4107 1.89356 13.2916L3.29471 12.2492L11.9997 18.5361Z" fill="#154273"/>
</svg>
