<svg width="24" height="25" viewBox="0 0 24 25" fill="none" xmlns="http://www.w3.org/2000/svg">
    <path d="M11.813 14.273C12.9191 14.273 13.8158 13.3958 13.8158 12.3138C13.8158 11.2317 12.9191 10.3546 11.813 10.3546C10.7068 10.3546 9.81012 11.2317 9.81012 12.3138C9.81012 13.3958 10.7068 14.273 11.813 14.273Z" fill="#154273"/>
    <path fill-rule="evenodd" clip-rule="evenodd" d="M20.0086 5.60741C19.8796 4.83464 19.2915 4.24687 18.5173 4.11798C16.2835 3.74561 12.5576 3.74561 11.812 3.74561C11.0672 3.74561 7.34128 3.74561 5.10594 4.11798C4.33329 4.24691 3.7451 4.83464 3.61622 5.60741C3.24414 7.84342 3.24414 11.5685 3.24414 12.3135C3.24414 13.0591 3.24414 16.7842 3.61622 19.0195C3.7451 19.7929 4.33329 20.3807 5.10594 20.5096C7.34128 20.8828 11.0672 20.8828 11.812 20.8828C12.5576 20.8828 16.2835 20.8828 18.5173 20.5096C19.2915 20.3807 19.8796 19.7929 20.0086 19.0195C20.3813 16.7842 20.3813 13.0591 20.3813 12.3135C20.3813 10.0777 20.3813 7.84338 20.0086 5.60741ZM18.0588 12.6312C18.0588 12.8098 17.925 13.0147 17.7614 13.0866L16.6466 13.5917C16.4799 13.656 16.2871 13.8435 16.218 14.0082L16.1555 14.1571C16.0865 14.322 16.0929 14.5887 16.1698 14.75L16.61 15.8442C16.6789 16.009 16.6308 16.2461 16.503 16.371L15.9964 16.8664C15.8686 16.9913 15.6272 17.0422 15.4599 16.9795L14.3111 16.5648C14.1467 16.4948 13.8766 16.4923 13.711 16.5593L13.548 16.6252C13.3824 16.6922 13.1959 16.884 13.1337 17.0515L12.6547 18.1296C12.5844 18.2939 12.3806 18.4283 12.2019 18.4283H11.4813C11.3027 18.4283 11.0956 18.2954 11.0211 18.133L10.5094 17.0538C10.4427 16.8881 10.2526 16.6976 10.087 16.6305L9.92458 16.5648C9.75898 16.4977 9.49052 16.5036 9.32795 16.5777L8.2031 17.0125C8.03728 17.079 7.79709 17.0313 7.66937 16.9063L7.16188 16.4099C7.03415 16.285 6.98274 16.0466 7.04762 15.8801L7.46747 14.7623C7.53984 14.5989 7.5422 14.3306 7.47279 14.166L7.41043 14.0182C7.34098 13.8535 7.14643 13.6698 6.97813 13.6098L5.86708 13.1363C5.70185 13.0684 5.56663 12.8666 5.56663 12.6879V11.9944C5.56663 11.8157 5.70054 11.6109 5.86427 11.5393L6.97655 11.037C7.14328 10.9728 7.33637 10.7856 7.40563 10.6209L7.4687 10.4709C7.538 10.3062 7.53189 10.0394 7.4552 9.87806L7.01597 8.78407C6.94715 8.61918 6.99538 8.38199 7.12307 8.25708L7.62909 7.76189C7.75678 7.63691 7.99828 7.58572 8.16568 7.64812L9.31794 8.06204C9.48238 8.13191 9.75238 8.13397 9.91787 8.06662L10.0769 8.00193C10.2425 7.93466 10.4289 7.74258 10.4913 7.57514L10.9713 6.49679C11.0417 6.33262 11.2456 6.19826 11.4242 6.19826H12.1448C12.3235 6.19826 12.5305 6.33119 12.6049 6.49361L13.116 7.57413C13.1827 7.73988 13.3728 7.93034 13.5385 7.99732L13.7001 8.06276C13.8658 8.12977 14.1342 8.12384 14.2967 8.04959L15.423 7.61542C15.5888 7.54897 15.8291 7.59686 15.9569 7.72173L16.4628 8.21613C16.5905 8.34104 16.6421 8.57947 16.5774 8.74597L16.1588 9.86452C16.0864 10.0278 16.0838 10.2962 16.153 10.4609L16.2162 10.6112C16.2854 10.7759 16.4798 10.9596 16.6482 11.0195L17.7583 11.4914C17.9236 11.5592 18.0589 11.7608 18.0589 11.9395L18.0588 12.6312Z" fill="#154273"/>
</svg>
