<svg width="224" height="128" viewBox="0 0 224 128" fill="none" xmlns="http://www.w3.org/2000/svg">
<g clip-path="url(#clip0_1359_5503)">
<path d="M68.1531 4.18629L70.8624 12.1002H65.3689L68.1531 4.18629ZM67.0003 0.150314L60.4541 17.9882H63.3384L64.5662 14.407H71.615L72.8406 17.9882H75.7271L69.182 0.150314H67.0003ZM85.6272 17.9882V16.7115C85.1933 17.172 84.668 17.537 84.0851 17.783C83.5021 18.0291 82.8742 18.1509 82.2415 18.1405C81.0859 18.1814 79.9604 17.767 79.1071 16.9866C78.1294 16.0361 77.8281 14.831 77.8281 13.4042V5.2868H80.3861V13.0291C80.3861 15.0072 81.5139 15.8588 82.9419 15.8588C84.3709 15.8588 85.5749 14.9834 85.5749 13.0279V5.28567H88.1341V17.9882H85.6272ZM95.3283 17.9882C92.9488 17.9882 91.8438 16.2851 91.8438 14.4547V1.65329H94.4018V5.28339H96.8597V7.23658H94.4006V14.3308C94.4006 15.2574 94.8554 15.811 95.807 15.811H96.8597V17.9882H95.3283ZM108.488 16.633C107.664 17.4857 106.407 18.1405 104.679 18.1405C102.949 18.1405 101.719 17.4868 100.892 16.633C99.6872 15.3836 99.387 13.7817 99.387 11.6239C99.387 9.49559 99.6883 7.89143 100.892 6.63971C101.719 5.78704 102.949 5.13673 104.678 5.13673C106.407 5.13673 107.664 5.78704 108.488 6.63971C109.693 7.89029 109.994 9.49559 109.994 11.6239C109.994 13.7817 109.692 15.3836 108.488 16.633ZM106.561 8.14382C106.312 7.9024 106.017 7.71356 105.694 7.58855C105.371 7.46354 105.026 7.40492 104.679 7.41621C104.337 7.40519 103.996 7.46403 103.677 7.58912C103.358 7.71421 103.068 7.90295 102.824 8.14382C102.047 8.91804 101.946 10.2482 101.946 11.6239C101.946 13.004 102.047 14.3297 102.824 15.1062C103.066 15.3504 103.356 15.5429 103.675 15.672C103.993 15.8012 104.335 15.8643 104.679 15.8576C105.027 15.8647 105.373 15.8018 105.696 15.6727C106.019 15.5436 106.313 15.351 106.561 15.1062C107.338 14.3308 107.44 13.004 107.44 11.6239C107.44 10.2482 107.337 8.91804 106.561 8.14382ZM120.081 8.26774C119.504 7.69247 119.054 7.41734 118.175 7.41734C116.795 7.41734 115.643 8.51786 115.643 10.2721V17.9893H113.084V5.2868H115.595V6.66245C116.243 5.76202 117.549 5.13673 118.977 5.13673C120.206 5.13673 121.134 5.46302 122.012 6.3407L120.081 8.26774ZM124.014 0.076416H126.725V2.78336H124.014V0.076416ZM124.094 5.28908H126.649V17.9905H124.094V5.28908ZM134.09 17.9882C131.709 17.9882 130.605 16.2851 130.605 14.4547V1.65329H133.16V5.28339H135.62V7.23658H133.16V14.3308C133.16 15.2574 133.614 15.811 134.564 15.811H135.62V17.9882H134.09ZM140.63 12.3776C140.63 14.5548 141.784 15.9327 143.865 15.9327C145.291 15.9327 146.047 15.5325 146.948 14.6332L148.579 16.1623C147.275 17.4629 146.046 18.1405 143.81 18.1405C140.63 18.1405 138.095 16.4613 138.095 11.6239C138.095 7.51625 140.228 5.13673 143.487 5.13673C146.898 5.13673 148.881 7.64245 148.881 11.2487V12.3776H140.63ZM145.995 8.86916C145.789 8.37929 145.438 7.96369 144.991 7.67742C144.543 7.39115 144.018 7.24772 143.487 7.26614C142.953 7.24711 142.425 7.38998 141.973 7.67603C141.521 7.96208 141.167 8.37796 140.955 8.86916C140.721 9.41421 140.61 10.0043 140.63 10.5972H146.348C146.358 10.0023 146.238 9.41239 145.995 8.86916ZM152.184 0.076416H154.894V2.78336H152.186L152.184 0.076416ZM152.258 5.28908H154.817V17.9905H152.259L152.258 5.28908ZM162.016 17.9882C159.633 17.9882 158.532 16.2851 158.532 14.4547V1.65329H161.089V5.28339H163.547V7.23658H161.089V14.3308C161.089 15.2574 161.541 15.811 162.491 15.811H163.547V17.9882H162.016Z" fill="#5F1F7A"/>
<path d="M162.225 37.5966L165.513 44.0608L165.536 44.1063H167.988L171.272 37.5981V47.7382H174.918V29.7358H171.351L166.764 39.2797L162.148 29.7358H158.583V47.7382H162.225V37.5966Z" fill="#5F1F7A"/>
<path d="M183.074 34.3755C180.78 34.3755 179.533 34.8541 178.3 36.2059L178.248 36.2616L180.443 38.408L180.5 38.3421C181.203 37.5372 181.773 37.2905 182.942 37.2905C184.619 37.2905 185.3 37.8646 185.3 39.2652V39.8382H182.295C178.941 39.8382 177.75 41.8346 177.75 43.7014C177.717 44.8028 178.111 45.8742 178.85 46.6914C179.642 47.4804 180.754 47.8647 182.245 47.8647C183.625 47.8647 184.495 47.5509 185.374 46.7199V47.7408H188.72V39.0674C188.72 35.9978 186.77 34.3755 183.074 34.3755ZM185.301 42.851C185.301 43.6741 185.167 44.1516 184.846 44.4461C184.312 44.9634 183.796 45.0486 182.847 45.0486C181.686 45.0486 181.046 44.5427 181.046 43.623C181.046 42.7362 181.685 42.228 182.797 42.228H185.3L185.301 42.851ZM198.623 34.3743C197.431 34.3688 196.282 34.8261 195.42 35.6499V34.5244H192.073V47.7396H195.493V39.7928C195.493 38.1943 196.543 37.4655 197.517 37.4655C198.29 37.4655 198.704 37.7293 199.194 38.2193L199.251 38.2761L201.823 35.684L201.763 35.6272C200.877 34.7381 199.967 34.3743 198.623 34.3743Z" fill="#5F1F7A"/>
<path d="M203.474 47.7381H206.896V43.804L208.181 42.3548L211.334 47.6977L211.358 47.7381H215.586L210.528 39.8752L215.266 34.5222H211.12L206.896 39.7161V29.7366H203.474V47.7381Z" fill="#5F1F7A"/>
<path d="M224 37.3018V34.6574H220.71V31.1842H217.288V44.0721C217.288 45.9707 218.485 47.8852 221.155 47.8852H224V44.9691H221.755C221.052 44.9691 220.709 44.6121 220.709 43.872V37.3018H224ZM20.9473 34.3743C18.8315 34.3743 17.5525 35.2611 16.8522 36.0024C15.6016 37.3075 15.3503 38.9287 15.3503 41.1184C15.3503 43.3831 15.5948 44.952 16.851 46.2651C17.5559 47.0064 18.8372 47.8932 20.9473 47.8932C23.1949 47.8932 24.4944 46.8734 25.0697 46.2651C26.3248 44.9531 26.5704 43.3854 26.5704 41.1184C26.5704 38.9265 26.3202 37.3075 25.0697 36.0024C24.4967 35.3941 23.2006 34.3743 20.9473 34.3743ZM22.4218 44.2471C22.2268 44.435 21.9953 44.5808 21.7417 44.6756C21.4881 44.7705 21.2177 44.8123 20.9473 44.7985C20.6813 44.8127 20.4152 44.7709 20.1664 44.6759C19.9175 44.581 19.6913 44.4349 19.5023 44.2471C18.827 43.5741 18.7724 42.3849 18.7724 41.1184C18.7724 39.8678 18.827 38.6854 19.5023 38.0181C19.6917 37.8313 19.9179 37.6859 20.1664 37.591C20.4149 37.4961 20.6804 37.4538 20.9461 37.4667C21.2165 37.4548 21.4866 37.4974 21.7401 37.5922C21.9937 37.6869 22.2255 37.8318 22.4218 38.0181C23.096 38.6889 23.1517 39.8701 23.1517 41.1184C23.1517 42.3804 23.096 43.5707 22.4218 44.2471ZM36.0475 34.3743C34.8664 34.3634 33.7265 34.8085 32.8653 35.617V34.5256H29.5195V47.7397H32.9392V39.7678C32.9392 38.0704 34.0272 37.4656 35.0459 37.4656C36.0486 37.4656 37.1207 38.0704 37.1207 39.7678V47.7397H40.5416V39.3176C40.5416 37.627 40.1381 36.5003 39.1887 35.5522C38.4225 34.7814 37.3356 34.3743 36.0475 34.3743ZM49.921 39.6393L47.8644 39.4369C46.7184 39.3403 46.5854 38.7923 46.5854 38.3876C46.5854 37.8225 47.0515 37.2177 48.3589 37.2177C49.7062 37.2177 50.71 37.5065 51.3444 38.0749L51.4035 38.1261L53.5182 35.9796L53.4602 35.9239C52.313 34.853 50.7566 34.3755 48.4112 34.3755C45.9464 34.3755 43.2884 35.7022 43.2884 38.6127C43.2884 40.8831 44.5594 42.1064 47.172 42.3497L49.2321 42.5554C50.1245 42.6418 50.5395 42.9954 50.5395 43.6764C50.5395 44.6155 49.3389 44.9497 48.31 44.9497C47.3562 44.9497 45.9646 44.8247 44.8812 43.7446L44.8243 43.6878L42.6369 45.8752L42.5801 45.9309L42.6369 45.99C44.2229 47.5748 45.9646 47.8932 48.26 47.8932C51.7287 47.8932 53.8842 46.2299 53.8842 43.5502C53.8842 41.2469 52.5131 39.8928 49.921 39.6393ZM63.9082 42.4986C63.9082 44.1948 62.8202 44.7985 61.8016 44.7985C61.3161 44.7985 59.7279 44.6325 59.7279 42.4986V34.5244H56.307V42.9511C56.307 44.6405 56.7106 45.7694 57.6599 46.7142C58.4341 47.4861 59.5176 47.8932 60.8 47.8932C61.9815 47.9034 63.1216 47.4589 63.9844 46.6517V47.7408H67.3291V34.5244H63.9071L63.9082 42.4986ZM84.727 34.3743C83.1013 34.3743 81.9269 34.8587 80.823 35.9853C80.0055 34.9166 78.8402 34.3743 77.3554 34.3743C76.1759 34.3704 75.0393 34.816 74.1767 35.6204V34.5244H70.8274V47.7397H74.2517V39.7678C74.2517 38.0704 75.3363 37.4656 76.3515 37.4656C77.3554 37.4656 78.4275 38.0704 78.4275 39.7678V47.7397H81.8507V39.6927C81.8507 38.0499 82.9819 37.4656 83.9517 37.4656C84.9567 37.4656 86.0276 38.0704 86.0276 39.7678V47.7397H89.4497V39.3176C89.4497 37.7396 88.9881 36.5413 87.9945 35.551C87.2475 34.8041 86.0572 34.3743 84.727 34.3743ZM97.9207 34.3755C94.3588 34.3755 92.1487 36.9585 92.1487 41.1195C92.1487 46.7176 95.4775 47.8943 98.2697 47.8943C100.722 47.8943 102.01 47.0962 103.293 45.8138L103.352 45.7547L101.255 43.7128L101.198 43.7696C100.4 44.57 99.7318 44.977 98.2981 44.977C96.6383 44.977 95.5525 43.9004 95.5196 42.228H103.694V40.6932C103.694 36.8562 101.427 34.3755 97.9207 34.3755ZM95.523 39.8383C95.5348 39.3939 95.6329 38.956 95.8118 38.549C96.0067 38.1563 96.3074 37.8259 96.68 37.5949C97.0526 37.3639 97.4823 37.2415 97.9207 37.2415C98.3591 37.2415 98.7888 37.3639 99.1614 37.5949C99.534 37.8259 99.8347 38.1563 100.03 38.549C100.21 38.9555 100.308 39.3937 100.318 39.8383H95.523ZM113.068 34.3743C111.887 34.3641 110.748 34.8092 109.888 35.617V34.5256H106.543V47.7397H109.963V39.7678C109.963 38.0704 111.05 37.4656 112.066 37.4656C113.071 37.4656 114.141 38.0704 114.141 39.7678V47.7397H117.563V39.3176C117.563 37.6247 117.158 36.5003 116.211 35.551C115.439 34.7814 114.35 34.3743 113.068 34.3743ZM124.483 31.1842H121.062V44.0743C121.062 45.9707 122.257 47.8863 124.931 47.8863H127.772V44.9691H125.532C124.825 44.9691 124.483 44.6121 124.483 43.872V37.3018H127.772V34.6574H124.483V31.1842ZM9.75342 40.2839C9.74306 40.9401 9.68607 41.5947 9.58288 42.2428C9.29411 43.3285 8.55627 44.6234 6.67698 44.6234C6.27134 44.6388 5.86718 44.5663 5.49218 44.4109C5.11719 44.2555 4.78022 44.0208 4.50437 43.723C3.86317 43.0102 3.64716 42.1894 3.64716 38.74C3.64716 35.2952 3.86317 34.4733 4.50551 33.7559C4.78097 33.458 5.11776 33.2235 5.49265 33.0684C5.86754 32.9134 6.27161 32.8415 6.67698 32.8577C8.59833 32.8577 9.33276 34.2004 9.60789 35.3282L9.62381 35.3885H13.3187L13.3005 35.2952C12.7025 31.722 10.2161 29.5903 6.65197 29.5903C5.7483 29.5716 4.85031 29.7374 4.01289 30.0775C3.17546 30.4176 2.4162 30.925 1.78151 31.5685C-0.00113681 33.3443 1.84453e-09 35.5067 1.84453e-09 38.5001V38.9754C1.84453e-09 41.9711 0 44.1334 1.78151 45.9138C2.41612 46.5575 3.17537 47.0649 4.01281 47.405C4.85025 47.7451 5.74828 47.9109 6.65197 47.892C10.1286 47.892 12.5934 45.8433 13.2573 42.4065L13.2744 42.3451C13.2744 42.3337 13.2789 42.3212 13.2812 42.2917C13.2834 42.2764 13.2864 42.2612 13.2903 42.2462L13.3005 42.1803V42.0916C13.3619 41.5527 13.3972 40.9615 13.4074 40.2851V40.2055H9.75455L9.75342 40.2839ZM146.778 41.223C145.072 44.8861 142.729 45.0725 142.275 45.0725H142.232L142.115 45.068C141.637 45.068 141.17 44.9179 140.781 44.6389C140.393 44.3599 140.101 43.9659 139.948 43.5125C139.795 43.0591 139.788 42.5691 139.928 42.1115C140.068 41.6539 140.348 41.2517 140.728 40.9615L140.782 40.9194C141.145 40.6102 141.591 40.2566 141.907 40.0213L142.104 39.8803L142.108 39.886L143.695 38.7127C144.013 38.4751 144.397 38.1693 144.697 37.9124C145.207 37.5207 145.621 37.0166 145.905 36.4393C146.189 35.8619 146.336 35.2269 146.334 34.5835C146.334 33.624 146.008 32.6931 145.408 31.944C144.808 31.1949 143.971 30.6724 143.035 30.4623C142.099 30.2523 141.119 30.3673 140.257 30.7884C139.395 31.2096 138.702 31.9117 138.292 32.7793L138.265 32.8339C138.23 32.9123 138.197 32.9873 138.176 33.0476L138.157 33.101C138.141 33.142 138.129 33.1795 138.117 33.2068C138.095 33.2693 138.076 33.3295 138.055 33.3955L137.987 33.6661L137.964 33.7775C137.914 34.0398 137.888 34.3062 137.887 34.5733C137.886 35.2156 138.032 35.8496 138.315 36.4264C138.598 37.0032 139.009 37.5073 139.517 37.8999C139.638 38.0033 139.771 38.1102 139.899 38.2159C139.617 38.4331 139.331 38.6661 139.088 38.8753C138.488 39.3343 138.003 39.9256 137.67 40.603C137.337 41.2804 137.165 42.0257 137.167 42.7805C137.172 44.084 137.689 45.3334 138.608 46.2581C139.526 47.1829 140.772 47.7086 142.075 47.7215C142.127 47.7261 142.179 47.728 142.231 47.7272C143.274 47.7272 146.864 47.3384 149.19 42.344L149.221 42.2712L146.814 41.1514L146.778 41.223ZM140.584 34.2334C140.593 34.2024 140.601 34.1709 140.607 34.139L140.697 33.9094C140.823 33.6418 141.022 33.4157 141.271 33.2579C141.521 33.1001 141.811 33.0173 142.106 33.0192C142.434 33.018 142.753 33.1199 143.02 33.3102C143.286 33.5006 143.486 33.7699 143.591 34.0801C143.696 34.3903 143.701 34.7256 143.605 35.0387C143.509 35.3518 143.317 35.6269 143.057 35.825L143.002 35.8671C142.72 36.1081 142.37 36.3878 142.115 36.5742L142.104 36.5674C141.801 36.3384 141.506 36.1007 141.217 35.8546L141.165 35.8137C140.972 35.6694 140.816 35.4823 140.709 35.2672C140.601 35.0521 140.545 34.8149 140.545 34.5744C140.548 34.4598 140.561 34.3457 140.584 34.2334Z" fill="#5F1F7A"/>
<path d="M91.8704 110.538C91.9045 110.784 91.9647 111.109 92.0318 111.443L92.0523 111.44C91.81 110.176 91.6875 108.893 91.6862 107.606C91.6867 104.483 92.4094 101.402 93.7979 98.6037C95.1863 95.8058 97.2028 93.3667 99.6899 91.4771C101.799 89.6899 104.439 87.5708 106.411 86.1167L111.958 82.0091L117.591 86.1792L90.5573 66.1664C87.8685 64.1803 86.004 65.2649 86.4087 68.5835L90.4981 101.881C90.8028 104.365 91.3508 107.787 91.8704 110.538Z" fill="#E5007D"/>
<path d="M133.445 66.0982L106.411 86.1166L111.956 82.009L117.591 86.1792C119.564 87.6401 122.201 89.7547 124.313 91.5464C127.325 93.826 129.637 96.9049 130.986 100.433C132.335 103.961 132.667 107.797 131.945 111.505C132.014 111.16 132.077 110.815 132.132 110.468C132.651 107.722 133.201 104.297 133.504 101.815L137.589 68.5186C138.001 65.1989 136.135 64.1098 133.445 66.0982Z" fill="#B2ADC9"/>
<path d="M124.313 91.5476C122.203 89.7547 119.564 87.6401 117.591 86.1792L111.956 82.009L106.411 86.1166C104.438 87.5719 101.799 89.6899 99.6887 91.4782C97.2461 93.343 95.2585 95.7379 93.8758 98.4824C92.493 101.227 91.7513 104.249 91.7063 107.322C91.6613 110.395 92.3143 113.438 93.6161 116.222C94.9179 119.005 96.8346 121.458 99.2216 123.393C101.609 125.328 104.404 126.697 107.397 127.395C110.389 128.094 113.502 128.104 116.499 127.425C119.496 126.745 122.3 125.395 124.699 123.475C127.099 121.555 129.031 119.115 130.351 116.34C130.406 116.224 130.47 116.109 130.52 115.991C130.674 115.651 130.81 115.302 130.947 114.954C131.152 114.428 131.336 113.893 131.498 113.352C131.616 112.931 131.729 112.51 131.824 112.075L131.945 111.505C132.667 107.797 132.335 103.962 130.985 100.434C129.636 96.9057 127.324 93.8271 124.313 91.5476Z" fill="#5F1F7A"/>
</g>
<defs>
<clipPath id="clip0_1359_5503">
<rect width="224" height="127.847" fill="white" transform="translate(0 0.076416)"/>
</clipPath>
</defs>
</svg>
