<svg width="224" height="52" viewBox="0 0 224 52" fill="none" xmlns="http://www.w3.org/2000/svg">
<g clip-path="url(#clip0_1359_4488)">
<path d="M70.3465 39.6538H70.2206C69.4026 41.101 66.5083 44.2471 61.8521 44.2471C57.1959 44.2471 53.6094 41.164 53.6094 36.8853C53.6094 27.7617 66.1307 27.1954 70.3465 27.0066V22.0359C70.3465 17.6943 69.0251 16.2471 66.6341 16.2471C62.733 16.2471 62.7959 20.9033 62.6701 22.7909H54.679C54.679 16.5617 58.8319 13.2898 66.697 13.2898C76.0094 13.2898 77.8341 17.6314 77.8341 23.546V43.492H70.3465V39.6538ZM70.3465 29.901C67.8296 30.1527 61.3487 30.9707 61.3487 35.8156C61.3487 38.2696 62.6071 39.9684 64.7465 39.9684C68.2701 39.9684 70.3465 36.2561 70.3465 32.1033V29.901Z" fill="#203471"/>
<path d="M86.7061 14.0449H94.1937V21.4067H94.3195C96.3959 17.5685 98.724 13.7303 104.324 13.3528V21.0921C96.8364 21.0921 94.1937 23.7348 94.1937 30.3415V43.555H86.7061V14.0449Z" fill="#203471"/>
<path d="M131.883 42.4224C128.863 43.555 126.472 44.2472 122.697 44.2472C114.076 44.2472 107.344 39.4651 107.344 27.6359C107.344 19.1415 111.434 13.3528 120.683 13.3528C129.429 13.3528 132.072 17.3168 132.072 24.0494H124.081C124.081 18.8269 123.577 16.3101 120.368 16.3101C116.971 16.3101 115.461 20.9033 115.461 25.1191C115.461 32.7955 119.299 40.409 126.031 40.409C128.297 40.409 130.058 39.9056 131.883 39.2764V42.4224Z" fill="#203471"/>
<path d="M137.357 0.768555H144.845V20.6517H144.971C145.978 18.4495 148.557 13.3528 154.661 13.3528C160.198 13.3528 162.086 16.9393 162.086 23.2315V43.5551H154.598V25.1191C154.598 21.4697 154.283 18.7641 151.389 18.7641C146.103 18.7641 144.908 27.2584 144.908 31.9775V43.5551H137.42V0.768555H137.357Z" fill="#203471"/>
<path d="M194.867 28.2022L185.177 14.0449H193.798L199.335 22.2876L205.061 14.0449H212.674L202.795 27.8876L213.744 43.555H205.123L198.454 33.6764L191.595 43.555H183.919L194.867 28.2022Z" fill="#F5C320"/>
<path d="M216.261 0.768555H223.748V43.5551L216.261 32.1034V0.768555Z" fill="#F5C320"/>
<path d="M171.271 22.3506L178.759 13.8562V43.4922H171.271V22.3506Z" fill="#203471"/>
<path d="M0.251953 14.2336V51.2314C7.92836 41.2269 16.2969 32.4179 25.2317 24.8674C29.8879 20.9662 34.6699 17.3797 39.6407 14.2336H0.251953Z" fill="#F5C320"/>
<path d="M25.2314 24.8674C30.3281 29.5235 35.1101 34.746 39.6404 40.5348V14.2336C34.6696 17.3797 29.8876 20.9662 25.2314 24.8674Z" fill="#203471"/>
</g>
<defs>
<clipPath id="clip0_1359_4488">
<rect width="224" height="50.9663" fill="white" transform="translate(0 0.516846)"/>
</clipPath>
</defs>
</svg>
