<svg width="128" height="50" viewBox="0 0 128 50" fill="none" xmlns="http://www.w3.org/2000/svg">
<g clip-path="url(#clip0_1281_2387)">
<path d="M9.49023 32.5419C9.49023 31.0486 10.1851 30.2979 11.2102 30.2979C12.2354 30.2979 12.9303 31.0486 12.9303 32.5419C12.9303 34.0352 12.2354 34.827 11.2102 34.827C10.1851 34.827 9.49023 34.0352 9.49023 32.5419ZM11.8854 32.5419C11.8854 31.4544 11.5749 31.2063 11.2102 31.2063C10.8455 31.2063 10.5351 31.4544 10.5351 32.5419C10.5351 33.6294 10.8455 33.9186 11.2102 33.9186C11.5749 33.9186 11.8854 33.6294 11.8854 32.5419ZM10.6599 32.5419C10.6599 32.2117 10.8932 31.9916 11.2102 31.9916C11.5273 31.9916 11.7606 32.2117 11.7606 32.5419C11.7606 32.8721 11.5273 33.0923 11.2102 33.0923C10.8932 33.0923 10.6599 32.8721 10.6599 32.5419Z" fill="#00BAFF"/>
<path d="M23.4377 43.5207C23.4048 43.3909 23.3605 43.2858 23.3194 43.2151L23.3095 43.1971L19.1434 35.6599H17.8045C18.1528 36.1643 18.3532 36.8789 18.3532 37.8071C18.3532 39.8343 17.4102 40.9087 16.0188 40.9087C14.6273 40.9087 13.6844 39.8343 13.6844 37.8071C13.6844 36.8789 13.8848 36.1643 14.2331 35.6599H8.05779L3.88343 43.2086L3.87686 43.2201C3.83743 43.2907 3.79308 43.3926 3.76186 43.5191C3.72901 43.6472 3.71094 43.8 3.71094 43.9544C3.71094 44.1121 3.73065 44.2731 3.76679 44.4111C3.80129 44.5507 3.85222 44.6674 3.9015 44.7512C3.99186 44.9072 4.10849 45.0551 4.2547 45.1947C4.40091 45.3327 4.57834 45.4625 4.78369 45.5726C5.19274 45.7927 5.71351 45.9323 6.28356 45.9323H20.9193C21.3464 45.9323 21.7472 45.8551 22.0922 45.7221C22.4389 45.589 22.728 45.4034 22.9481 45.1964C23.0943 45.0567 23.211 44.9089 23.303 44.7528C23.3523 44.669 23.4015 44.5507 23.4377 44.4128C23.4738 44.2731 23.4935 44.1138 23.4935 43.9561C23.4935 43.8016 23.4738 43.6505 23.4426 43.5207H23.4377ZM11.8724 44.0924H8.76583V43.1872H9.85337V41.0384H8.93668V40.3435C9.52645 40.2515 9.81394 40.1464 10.1556 39.9378H10.982V43.1872H11.8724V44.0924Z" fill="url(#paint0_linear_1281_2387)"/>
<path d="M16.0166 39.6765C16.5111 39.6765 16.9316 39.2838 16.9316 37.8086C16.9316 36.3334 16.5111 35.9966 16.0166 35.9966C15.5221 35.9966 15.1016 36.3334 15.1016 37.8086C15.1016 39.2838 15.5221 39.6765 16.0166 39.6765ZM15.2691 37.8086C15.2691 37.3601 15.5862 37.0611 16.0166 37.0611C16.447 37.0611 16.7641 37.3601 16.7641 37.8086C16.7641 38.2571 16.447 38.5561 16.0166 38.5561C15.5862 38.5561 15.2691 38.2571 15.2691 37.8086Z" fill="url(#paint1_linear_1281_2387)"/>
<path d="M12.3789 28.0849H13.4664V25.9361H12.5498V25.2412C13.1395 25.1492 13.427 25.0441 13.7687 24.8354H14.595V28.0849H15.4854V28.9901H12.3789V28.0849Z" fill="#00BAFF"/>
<path d="M8.71177 16.978V26.4914C8.71177 26.6984 8.6592 26.9021 8.55899 27.0828L0.662048 41.3637L0.658763 41.3719C0.433699 41.7662 0.269419 42.1884 0.160994 42.6237C0.0525696 43.0591 0 43.5075 0 43.956C0 44.416 0.0558552 44.8776 0.169208 45.3245C0.282562 45.773 0.455056 46.2083 0.689976 46.6124C0.965966 47.0888 1.30931 47.5176 1.70523 47.8905C2.29828 48.4507 3.00632 48.8877 3.78337 49.1851C4.56041 49.4824 5.4081 49.6401 6.28207 49.6401H20.9178C22.0842 49.6401 23.2013 49.3592 24.1689 48.8417C24.6535 48.5822 25.0987 48.2635 25.4946 47.8905C25.8905 47.5176 26.2339 47.0888 26.5099 46.6124C26.7448 46.2067 26.9156 45.7713 27.0306 45.3245C27.144 44.876 27.1998 44.416 27.1998 43.9544C27.1998 43.5059 27.1473 43.0574 27.0388 42.6221C26.9321 42.1917 26.7694 41.7728 26.5477 41.3834L18.6409 27.0812C18.5406 26.9005 18.4881 26.6968 18.4881 26.4898V16.9763H19.1337C19.5198 16.9763 19.8335 16.6626 19.8335 16.2765V15.7311C19.8335 15.345 19.5198 15.0312 19.1337 15.0312H8.06615C7.68009 15.0312 7.36632 15.345 7.36632 15.7311V16.2765C7.36632 16.6626 7.68009 16.9763 8.06615 16.9763L8.71177 16.978ZM24.8457 42.3329L24.849 42.3395C24.9771 42.5646 25.079 42.8209 25.148 43.0952C25.217 43.3696 25.2515 43.662 25.2515 43.9577C25.2515 44.26 25.2137 44.5622 25.1414 44.8481C25.0691 45.1339 24.9607 45.4033 24.8244 45.6399C24.6453 45.9487 24.4202 46.2297 24.1557 46.481C23.7582 46.8572 23.2703 47.1611 22.7183 47.3731C22.1679 47.5833 21.5552 47.7 20.9145 47.7H6.28043C5.42617 47.7 4.62284 47.493 3.94765 47.1316C3.61087 46.9509 3.30531 46.7324 3.03918 46.481C2.77469 46.2297 2.54963 45.9487 2.37056 45.6399C2.23257 45.4033 2.12578 45.1339 2.0535 44.8481C1.98122 44.5622 1.94343 44.2583 1.94343 43.9577C1.94343 43.6636 1.97793 43.3712 2.04693 43.0952C2.11593 42.8209 2.21614 42.5662 2.34428 42.3428L2.3492 42.3346L10.2593 28.0258C10.5188 27.556 10.6552 27.0286 10.6552 26.4931V16.9796H16.5381V26.4931C16.5381 27.0286 16.6744 27.5576 16.934 28.0258L24.8457 42.3329Z" fill="#083CE5"/>
<path d="M12.668 2.38823C12.668 1.03785 13.2972 0.359375 14.2237 0.359375C15.1502 0.359375 15.7794 1.03785 15.7794 2.38823C15.7794 3.73861 15.1502 4.45488 14.2237 4.45488C13.2972 4.45488 12.668 3.73861 12.668 2.38823ZM14.8348 2.38823C14.8348 1.4042 14.5555 1.18077 14.2253 1.18077C13.8951 1.18077 13.6159 1.4042 13.6159 2.38823C13.6159 3.37227 13.8968 3.63348 14.2253 3.63348C14.5539 3.63348 14.8348 3.37227 14.8348 2.38823ZM13.7276 2.38823C13.7276 2.08924 13.9395 1.89046 14.2253 1.89046C14.5112 1.89046 14.7231 2.08924 14.7231 2.38823C14.7231 2.68722 14.5112 2.886 14.2253 2.886C13.9395 2.886 13.7276 2.68722 13.7276 2.38823Z" fill="#00BAFF"/>
<path d="M16.4043 2.38823C16.4043 1.03785 17.0335 0.359375 17.96 0.359375C18.8866 0.359375 19.5158 1.03785 19.5158 2.38823C19.5158 3.73861 18.8866 4.45488 17.96 4.45488C17.0335 4.45488 16.4043 3.73861 16.4043 2.38823ZM18.5712 2.38823C18.5712 1.4042 18.2919 1.18077 17.9617 1.18077C17.6315 1.18077 17.3522 1.4042 17.3522 2.38823C17.3522 3.37227 17.6331 3.63348 17.9617 3.63348C18.2902 3.63348 18.5712 3.37227 18.5712 2.38823ZM17.4639 2.38823C17.4639 2.08924 17.6758 1.89046 17.9617 1.89046C18.2475 1.89046 18.4594 2.08924 18.4594 2.38823C18.4594 2.68722 18.2475 2.886 17.9617 2.886C17.6758 2.886 17.4639 2.68722 17.4639 2.38823Z" fill="#00BAFF"/>
<path d="M20.2773 3.52181H21.3107V1.47981H20.44V0.819408C21.0002 0.732339 21.2745 0.632128 21.5982 0.43335H22.3818V3.52181H23.2278V4.381H20.2773V3.52181Z" fill="#00BAFF"/>
<path d="M23.875 2.38823C23.875 1.03785 24.5042 0.359375 25.4307 0.359375C26.3573 0.359375 26.9865 1.03785 26.9865 2.38823C26.9865 3.73861 26.3573 4.45488 25.4307 4.45488C24.5042 4.45488 23.875 3.73861 23.875 2.38823ZM26.0419 2.38823C26.0419 1.4042 25.7626 1.18077 25.4324 1.18077C25.1022 1.18077 24.8229 1.4042 24.8229 2.38823C24.8229 3.37227 25.1038 3.63348 25.4324 3.63348C25.7609 3.63348 26.0419 3.37227 26.0419 2.38823ZM24.9346 2.38823C24.9346 2.08924 25.1465 1.89046 25.4324 1.89046C25.7182 1.89046 25.9301 2.08924 25.9301 2.38823C25.9301 2.68722 25.7182 2.886 25.4324 2.886C25.1465 2.886 24.9346 2.68722 24.9346 2.38823Z" fill="#00BAFF"/>
<path d="M10.2266 8.51585H11.2336V6.52806H10.3843V5.88572C10.9297 5.8003 11.1975 5.70337 11.5112 5.50952H12.2751V8.51749H13.0998V9.35367H10.2266V8.51749V8.51585Z" fill="#00BAFF"/>
<path d="M13.7305 7.41184C13.7305 6.09595 14.3432 5.43555 15.2468 5.43555C16.1503 5.43555 16.7631 6.09595 16.7631 7.41184C16.7631 8.72772 16.1503 9.42427 15.2468 9.42427C14.3432 9.42427 13.7305 8.72772 13.7305 7.41184ZM15.8415 7.41184C15.8415 6.45408 15.5688 6.23559 15.2468 6.23559C14.9248 6.23559 14.6521 6.45408 14.6521 7.41184C14.6521 8.36959 14.9248 8.62422 15.2468 8.62422C15.5688 8.62422 15.8415 8.36959 15.8415 7.41184ZM14.7621 7.41184C14.7621 7.12106 14.9675 6.92721 15.2468 6.92721C15.526 6.92721 15.7314 7.12106 15.7314 7.41184C15.7314 7.70261 15.5244 7.89646 15.2468 7.89646C14.9691 7.89646 14.7621 7.70261 14.7621 7.41184Z" fill="#00BAFF"/>
<path d="M17.502 8.51585H18.509V6.52806H17.6597V5.88572C18.2051 5.8003 18.4728 5.70337 18.7866 5.50952H19.5505V8.51749H20.3752V9.35367H17.502V8.51749V8.51585Z" fill="#00BAFF"/>
<path d="M12.0098 12.3371C12.0098 11.0574 12.6061 10.415 13.485 10.415C14.3639 10.415 14.9586 11.0574 14.9586 12.3371C14.9586 13.6169 14.3623 14.2953 13.485 14.2953C12.6077 14.2953 12.0098 13.6169 12.0098 12.3371ZM14.0616 12.3371C14.0616 11.4056 13.7955 11.1921 13.4834 11.1921C13.1712 11.1921 12.9051 11.404 12.9051 12.3371C12.9051 13.2702 13.1712 13.5166 13.4834 13.5166C13.7955 13.5166 14.0616 13.2686 14.0616 12.3371ZM13.0119 12.3371C13.0119 12.0546 13.2123 11.8656 13.4834 11.8656C13.7544 11.8656 13.9548 12.0546 13.9548 12.3371C13.9548 12.6197 13.7544 12.8086 13.4834 12.8086C13.2123 12.8086 13.0119 12.6197 13.0119 12.3371Z" fill="#00BAFF"/>
<path d="M41.3887 38.154V21.6452H48.8883C50.6807 21.6452 52.2609 21.9911 53.6287 22.6829C54.9966 23.3589 56.0658 24.3101 56.8362 25.5365C57.6066 26.7629 57.9918 28.2172 57.9918 29.8996C57.9918 31.5662 57.6066 33.0205 56.8362 34.2626C56.0658 35.489 54.9966 36.448 53.6287 37.1398C52.2609 37.8159 50.6807 38.1539 48.8883 38.1539L41.3887 38.154ZM45.2092 35.0173H48.6996C49.8002 35.0173 50.7514 34.813 51.5533 34.4042C52.3709 33.9797 52.9998 33.3822 53.44 32.6118C53.896 31.8414 54.124 30.9373 54.124 29.8996C54.124 28.8462 53.896 27.9421 53.44 27.1874C52.9998 26.417 52.3709 25.8274 51.5533 25.4186C50.7514 24.9941 49.8002 24.7819 48.6996 24.7819H45.2092V35.0173ZM60.6092 38.154V25.466H64.2883V38.154H60.6092ZM62.4487 23.6972C61.7727 23.6972 61.2224 23.5007 60.7979 23.1076C60.3734 22.7145 60.1611 22.2271 60.1611 21.6453C60.1611 21.0636 60.3734 20.5762 60.7979 20.1831C61.2224 19.79 61.7727 19.5935 62.4487 19.5935C63.1248 19.5935 63.6751 19.7822 64.0996 20.1595C64.5241 20.5211 64.7364 20.9928 64.7364 21.5746C64.7364 22.1877 64.5241 22.6987 64.0996 23.1075C63.6908 23.5006 63.1405 23.6972 62.4487 23.6972ZM73.6744 42.918C72.4794 42.918 71.3238 42.7686 70.2076 42.4699C69.107 42.1869 68.1872 41.7545 67.4483 41.1728L68.9105 38.5314C69.4451 38.9716 70.1212 39.3175 70.9388 39.5691C71.772 39.8364 72.5896 39.97 73.3915 39.97C74.6964 39.97 75.6398 39.6791 76.2216 39.0974C76.819 38.5156 77.1177 37.6509 77.1177 36.5031V34.5928L77.3536 31.409L77.3063 28.2015V25.4658H80.7968V36.0314C80.7968 38.3898 80.1836 40.1271 78.9572 41.2435C77.7309 42.3598 75.9699 42.918 73.6744 42.918ZM73.1083 37.5409C71.9291 37.5409 70.86 37.2893 69.9009 36.7862C68.9575 36.2673 68.195 35.5519 67.6132 34.64C67.0472 33.7124 66.7642 32.6354 66.7642 31.4091C66.7642 30.167 67.0472 29.09 67.6132 28.1781C68.195 27.2505 68.9575 26.5351 69.9009 26.0319C70.86 25.5288 71.9291 25.2773 73.1083 25.2773C74.1775 25.2773 75.1208 25.4974 75.9384 25.9376C76.756 26.3621 77.3928 27.0303 77.8487 27.9422C78.3047 28.8385 78.5327 29.9941 78.5327 31.409C78.5327 32.8084 78.3047 33.964 77.8487 34.8758C77.3928 35.7721 76.756 36.4403 75.9384 36.8805C75.1208 37.3207 74.1775 37.5409 73.1083 37.5409ZM73.8394 34.5221C74.4841 34.5221 75.0579 34.3964 75.561 34.1448C76.0642 33.8775 76.4572 33.508 76.7402 33.0363C77.0232 32.5646 77.1647 32.0222 77.1647 31.409C77.1647 30.7801 77.0232 30.2377 76.7402 29.7818C76.4572 29.3101 76.0642 28.9485 75.561 28.6969C75.0579 28.4296 74.4841 28.296 73.8394 28.296C73.1948 28.296 72.6209 28.4296 72.1178 28.6969C71.6147 28.9484 71.2138 29.3101 70.915 29.7818C70.632 30.2377 70.4905 30.7801 70.4905 31.409C70.4905 32.0222 70.632 32.5646 70.915 33.0363C71.2138 33.508 71.6147 33.8775 72.1178 34.1448C72.621 34.3964 73.1948 34.5221 73.8394 34.5221ZM84.2162 38.1541V25.4661H87.8954V38.1541H84.2162ZM86.0558 23.6973C85.3797 23.6973 84.8294 23.5007 84.4049 23.1077C83.9804 22.7146 83.7681 22.2272 83.7681 21.6454C83.7681 21.0637 83.9804 20.5763 84.4049 20.1832C84.8294 19.7901 85.3797 19.5936 86.0558 19.5936C86.7318 19.5936 87.2821 19.7823 87.7066 20.1596C88.1312 20.5212 88.3434 20.9929 88.3434 21.5746C88.3434 22.1878 88.1312 22.6988 87.7066 23.1076C87.2979 23.5007 86.7476 23.6973 86.0558 23.6973ZM91.315 38.1541V20.6549H94.9941V38.1541H91.315ZM106.197 38.1541V35.6777L105.961 35.1353V30.7016C105.961 29.9154 105.717 29.3022 105.23 28.862C104.758 28.4218 104.027 28.2017 103.036 28.2017C102.36 28.2017 101.692 28.3117 101.032 28.5319C100.387 28.7363 99.8368 29.0193 99.3808 29.3809L98.0601 26.8103C98.7519 26.3229 99.5852 25.9455 100.56 25.6783C101.535 25.411 102.525 25.2773 103.532 25.2773C105.465 25.2773 106.967 25.7333 108.036 26.6452C109.105 27.5571 109.64 28.98 109.64 30.9139V38.1541L106.197 38.1541ZM102.329 38.3427C101.338 38.3427 100.489 38.1777 99.7818 37.8475C99.0742 37.5016 98.5318 37.0378 98.1545 36.456C97.7771 35.8743 97.5885 35.2218 97.5885 34.4986C97.5885 33.7439 97.7693 33.0836 98.1309 32.5176C98.5082 31.9515 99.0978 31.5113 99.8997 31.1968C100.702 30.8667 101.747 30.7016 103.036 30.7016H106.409V32.8477H103.437C102.572 32.8477 101.975 32.9892 101.645 33.2722C101.33 33.5553 101.173 33.909 101.173 34.3335C101.173 34.8052 101.354 35.1825 101.716 35.4655C102.093 35.7328 102.604 35.8665 103.249 35.8665C103.862 35.8665 104.412 35.7249 104.899 35.4419C105.387 35.1432 105.741 34.7108 105.961 34.1448L106.527 35.8429C106.259 36.6605 105.772 37.2815 105.064 37.706C104.357 38.1305 103.445 38.3427 102.329 38.3427ZM120.465 38.3427C119.348 38.3427 118.389 38.1069 117.588 37.6352C116.786 37.1635 116.173 36.4482 115.748 35.4891C115.324 34.5142 115.111 33.2879 115.111 31.8099C115.111 30.3163 115.331 29.0899 115.772 28.1308C116.228 27.1717 116.857 26.4563 117.658 25.9847C118.46 25.513 119.396 25.2771 120.465 25.2771C121.66 25.2771 122.729 25.5444 123.672 26.079C124.631 26.6135 125.386 27.3682 125.936 28.3431C126.502 29.3179 126.785 30.4735 126.785 31.8099C126.785 33.1306 126.502 34.2783 125.936 35.2531C125.386 36.228 124.631 36.9905 123.672 37.5408C122.729 38.0754 121.66 38.3427 120.465 38.3427ZM112.965 38.1541V20.6549H116.644V28.0366L116.408 31.7865L116.479 35.5599V38.1541L112.965 38.1541ZM119.828 35.324C120.441 35.324 120.984 35.1825 121.455 34.8995C121.943 34.6165 122.328 34.2155 122.611 33.6967C122.91 33.1621 123.059 32.5332 123.059 31.81C123.059 31.071 122.91 30.4421 122.611 29.9232C122.328 29.4044 121.943 29.0035 121.455 28.7204C120.984 28.4374 120.441 28.2959 119.828 28.2959C119.215 28.2959 118.665 28.4374 118.177 28.7204C117.69 29.0034 117.305 29.4044 117.022 29.9232C116.739 30.4421 116.597 31.071 116.597 31.81C116.597 32.5332 116.739 33.1621 117.022 33.6967C117.305 34.2155 117.69 34.6165 118.177 34.8995C118.665 35.1825 119.215 35.324 119.828 35.324Z" fill="#083CE5"/>
</g>
<defs>
<linearGradient id="paint0_linear_1281_2387" x1="13.5973" y1="47.5751" x2="13.5973" y2="36.5109" gradientUnits="userSpaceOnUse">
<stop stop-color="#083CE5"/>
<stop offset="0.16" stop-color="#083CE5"/>
<stop offset="0.33" stop-color="#0567EE"/>
<stop offset="0.54" stop-color="#0294F7"/>
<stop offset="0.7" stop-color="#00AFFC"/>
<stop offset="0.8" stop-color="#00BAFF"/>
<stop offset="1" stop-color="#00BAFF"/>
</linearGradient>
<linearGradient id="paint1_linear_1281_2387" x1="16.0166" y1="46.0834" x2="16.0166" y2="38.5183" gradientUnits="userSpaceOnUse">
<stop stop-color="#083CE5"/>
<stop offset="0.13" stop-color="#083CE5"/>
<stop offset="0.7" stop-color="#00BAFF"/>
<stop offset="1" stop-color="#00BAFF"/>
</linearGradient>
<clipPath id="clip0_1281_2387">
<rect width="128" height="49.6" fill="white" transform="translate(0 0.199951)"/>
</clipPath>
</defs>
</svg>
