<svg width="128" height="72" viewBox="0 0 128 72" fill="none" xmlns="http://www.w3.org/2000/svg">
<path fill-rule="evenodd" clip-rule="evenodd" d="M81.4653 0.823486L43.334 39.243V48.8235H61.8989L85.6053 24.9393V0.823486H81.4653ZM43.334 0.823486V24.9383L67.27 0.824463L43.334 0.823486ZM76.0961 48.8235H85.6053V39.2421L76.0961 48.8235Z" fill="#5D5E5C"/>
<path fill-rule="evenodd" clip-rule="evenodd" d="M123.738 0.823487L85.6055 39.243V48.8235H95.1166L111.498 32.3203L127.878 48.8235V0.823487H123.738ZM85.6055 0.823487V6.23369L94.8889 15.5865L109.542 0.82251H85.6055V0.823487Z" fill="#207AB3"/>
<path fill-rule="evenodd" clip-rule="evenodd" d="M5.80202 71.6641C1.94247 71.6641 0 69.661 0 65.0032C0 60.0425 2.81991 57.8303 6.26321 57.8303C8.22815 57.8303 9.70846 58.6218 10.8165 59.7865L9.73191 61.1603C8.7597 60.6014 7.69759 60.2516 6.68043 60.2516C4.59921 60.2516 3.14333 61.7886 3.14333 64.5606C3.14333 68.1925 4.50736 69.2409 6.28666 69.2409C7.07322 69.2409 7.72006 69.0318 8.08941 68.7748V65.7243H6.21728V63.7213H11.095V69.8701C9.70748 71.0114 7.85881 71.6641 5.80202 71.6641ZM15.5554 71.4081V58.0873H23.7376V60.4626H18.6304V63.5131H22.9061V65.7487H18.6304V68.9859H23.8305V71.4081H15.5554ZM33.2155 60.2057C31.4118 60.2057 30.0956 61.3704 30.0956 64.4912C30.0956 68.0772 31.2975 69.2643 33.3777 69.2643C35.2264 69.2643 36.5445 68.1006 36.5445 64.8869C36.5445 61.4397 35.3427 60.2057 33.2155 60.2057ZM33.1471 71.6631C29.1938 71.6631 26.8351 69.9405 26.8351 64.9104C26.8351 60.0435 29.5875 57.8313 33.493 57.8313C37.5147 57.8313 39.8031 59.6937 39.8031 64.4678C39.8031 69.7783 36.7536 71.6631 33.1471 71.6631Z" fill="#8DB63F"/>
<path fill-rule="evenodd" clip-rule="evenodd" d="M52.2165 71.4081L46.3452 62.0231V71.4081H43.7793V58.0873H47.6164L52.9562 66.3076V58.0873H55.4976V71.4081H52.2165ZM66.8017 60.2057C64.998 60.2057 63.6808 61.3704 63.6808 64.4912C63.6808 68.0772 64.8827 69.2643 66.9629 69.2643C68.8126 69.2643 70.1287 68.1006 70.1287 64.8869C70.1287 61.4397 68.9269 60.2057 66.8017 60.2057ZM66.7323 71.6631C62.779 71.6631 60.4222 69.9405 60.4222 64.9104C60.4222 60.0435 63.1718 57.8313 67.0782 57.8313C71.1009 57.8313 73.3893 59.6937 73.3893 64.4678C73.3893 69.7783 70.3378 71.6631 66.7323 71.6631ZM84.9005 71.4081H81.1328C79.1913 66.8196 77.8732 62.581 76.7642 58.0873H80.186C80.9237 61.5101 81.9643 64.9807 83.26 68.637H83.2824C84.4843 65.1439 85.3627 61.6498 86.0574 58.0873H89.1079C88.1132 62.5585 86.7502 67.1001 84.9005 71.4081ZM99.047 71.6641C95.3721 71.6641 93.4062 70.1037 93.4062 66.4483V58.0863H96.4811V66.0985C96.4811 68.4729 97.382 69.4275 99.301 69.4275C101.058 69.4275 102.122 68.5901 102.122 66.2852V58.0873H105.148V66.0976C105.148 70.0343 102.606 71.6641 99.047 71.6641Z" fill="#5D5E5C"/>
<path fill-rule="evenodd" clip-rule="evenodd" d="M124.195 71.4082C124.125 67.8906 123.826 64.4219 123.478 61.4174H123.454L119.942 71.4082H117.399L113.979 61.4398H113.954C113.632 64.4219 113.424 67.8916 113.377 71.4082H110.441C110.579 66.9829 110.996 62.4883 111.689 58.0874H115.734L118.925 67.0064H118.948L122.276 58.0874H126.159C126.763 62.5075 127.172 66.9521 127.385 71.4082H124.195Z" fill="#5D5E5C"/>
<path fill-rule="evenodd" clip-rule="evenodd" d="M1.0625 15.8161L5.59038 20.3772L15.1005 10.7948L5.2054 0.825439H1.0625V15.8161ZM39.1918 0.825439L1.0625 39.244V48.8245H10.5736L22.1981 37.112L26.726 41.674L36.2371 32.0907L31.7082 27.5286L43.3357 15.8171V0.825439H39.1918ZM43.3347 48.8235V39.244L33.8256 48.8245L43.3347 48.8235Z" fill="#8DB63F"/>
</svg>
