<svg width="128" height="34" viewBox="0 0 128 34" fill="none" xmlns="http://www.w3.org/2000/svg">
<path d="M54.1158 9.25073V24.6595H59.015C60.9391 24.7476 62.7755 24.1326 64.3498 22.988C66.0115 21.5791 67.0607 19.3772 67.0607 16.9998C67.0607 15.4149 66.5359 13.9181 65.7488 12.5973C65.0491 11.6288 64.1745 10.749 63.125 10.2207C61.8131 9.60431 60.413 9.25073 58.9262 9.25073H54.1158ZM46.7705 9.34016V24.749H49.1313V9.34016H46.7705ZM70.9964 9.34016V24.749H80.8802V22.5477H73.446V17.9681H80.1798V15.7668H73.446V11.5414H80.8802V9.34016H70.9964ZM84.9901 9.34016V24.749H87.3509V13.213H87.4397L92.1612 24.749H94.1735L98.9839 13.213V24.749H101.345V9.34016H98.0221L93.1247 21.2269L88.2255 9.34016H84.9901ZM106.331 9.34016V24.749H108.692V9.34016H106.331ZM117.962 9.34016L111.753 24.749H114.202L115.601 21.1375H123.036L124.435 24.749H126.971L120.762 9.34016H117.962ZM56.3912 11.6291H58.8391C60.151 11.6291 61.551 11.9817 62.6006 12.8622C63.825 13.9188 64.524 15.4146 64.524 17.0876C64.524 18.1442 64.2616 19.2011 63.6494 20.0816C63.2996 20.5219 62.9507 20.9625 62.5134 21.3147C61.4639 22.1071 60.0638 22.5463 58.7519 22.4583H56.3912V11.6291ZM119.274 11.7168L122.161 19.0257H116.389L119.274 11.7168Z" fill="#420098"/>
<path d="M9.42421 1.15088L1.02832 16.9999L9.42421 32.849H12.3111L3.91521 16.9999L12.3111 1.15088H9.42421ZM15.3722 1.15088L12.224 16.9999L15.3722 32.849H17.996L14.8478 16.9999L17.996 1.15088H15.3722ZM21.4073 1.15088L24.5556 16.9999L21.4073 32.849H24.0312L27.1794 16.9999L24.0312 1.15088H21.4073ZM27.0923 1.15088L35.4882 16.9999L27.0923 32.849H29.9775L38.3734 16.9999L29.9775 1.15088H27.0923Z" fill="#420098"/>
</svg>
