<svg width="128" height="140" viewBox="0 0 128 140" fill="none" xmlns="http://www.w3.org/2000/svg">
<path d="M20.0642 120.64H17.3533V107.77H20.0642V120.64ZM17.522 105.204C17.2475 104.924 17.0782 104.558 17.043 104.168C17.0078 103.778 17.1087 103.387 17.3287 103.063C17.5486 102.739 17.874 102.501 18.2496 102.389C18.6252 102.278 19.0278 102.3 19.389 102.452C19.7502 102.603 20.0478 102.875 20.2312 103.222C20.4145 103.568 20.4724 103.967 20.3949 104.351C20.3174 104.735 20.1093 105.08 19.8061 105.328C19.5028 105.576 19.123 105.712 18.7313 105.712C18.5057 105.714 18.2821 105.67 18.0741 105.583C17.8662 105.495 17.6783 105.366 17.522 105.204Z" fill="#4B1357"/>
<path d="M30.459 105.95C29.7428 105.92 29.0331 106.097 28.414 106.458C28.1558 106.619 27.9454 106.846 27.8048 107.115C27.6643 107.385 27.5987 107.688 27.6149 107.991C27.6006 108.3 27.6667 108.607 27.8068 108.883C27.9469 109.158 28.1561 109.393 28.414 109.563C29.482 110.123 30.6282 110.518 31.814 110.737C33.24 111.013 34.5819 111.618 35.7333 112.504C36.1893 112.929 36.5444 113.451 36.7726 114.031C37.0007 114.612 37.0962 115.236 37.0519 115.858C37.0707 116.545 36.9298 117.227 36.6401 117.851C36.3504 118.475 35.92 119.022 35.3826 119.451C34.1328 120.416 32.5805 120.905 31.0033 120.83C28.3946 120.844 25.878 119.867 23.9629 118.095L25.7539 115.942C27.1928 117.316 29.0888 118.108 31.077 118.168C31.8514 118.21 32.6189 118.002 33.2667 117.576C33.5222 117.402 33.7301 117.167 33.8716 116.893C34.0132 116.618 34.084 116.312 34.0774 116.003C34.0891 115.706 34.0254 115.41 33.8922 115.143C33.759 114.877 33.5606 114.648 33.3155 114.479C32.5053 113.997 31.6165 113.661 30.6899 113.487C29.7299 113.273 28.7845 112.998 27.8592 112.664C27.2388 112.429 26.659 112.098 26.141 111.684C25.6282 111.267 25.2238 110.733 24.9624 110.126C24.7011 109.52 24.5906 108.859 24.6404 108.2C24.6055 107.504 24.743 106.809 25.0405 106.178C25.338 105.547 25.7864 104.999 26.3461 104.583C27.576 103.707 29.0602 103.26 30.5692 103.312C31.6635 103.314 32.7503 103.494 33.787 103.844C34.7926 104.167 35.7285 104.676 36.5459 105.345L35.0222 107.498C34.4266 106.994 33.7353 106.615 32.9898 106.385C32.1765 106.102 31.3221 105.955 30.4609 105.949" fill="#4B1357"/>
<path d="M41.5488 120.64V103.728H44.4035V111.059H52.7998V103.728H55.6544V120.64H52.7998V113.72H44.4035V120.64H41.5488Z" fill="#4B1357"/>
<path d="M71.0209 114.156L67.9477 107.187L64.8746 114.156H71.0209ZM63.7132 116.793L62.0199 120.64H58.9717L66.4241 103.728H69.4723L76.9247 120.64H73.8755L72.1822 116.793H63.7132Z" fill="#4B1357"/>
<path d="M89.9407 111.615C90.2536 111.303 90.4938 110.925 90.6443 110.508C90.7948 110.092 90.852 109.648 90.8117 109.207C90.8624 108.784 90.8072 108.355 90.6511 107.958C90.4951 107.561 90.2431 107.209 89.9176 106.933C88.9308 106.436 87.8251 106.222 86.7238 106.316H83.0939V112.366H86.6509C87.8006 112.486 88.9568 112.222 89.9407 111.615ZM93.7392 109.22C93.7392 112.01 92.5213 113.766 90.0854 114.49L94.5135 120.637H90.8846L86.8436 114.951H83.0929V120.637H80.2383V103.728H86.5293C89.1102 103.728 90.9571 104.163 92.0699 105.034C92.6571 105.552 93.1142 106.201 93.4042 106.928C93.6941 107.656 93.8089 108.441 93.7392 109.221" fill="#4B1357"/>
<path d="M110.701 103.728V106.411H101.676V110.887H109.783V113.428H101.676V117.952H110.991V120.635H98.8213V103.728H110.704" fill="#4B1357"/>
<path d="M40.0802 76.9147L40.1028 76.9364L40.0527 76.8862L40.0802 76.9147Z" fill="#231F20"/>
<path d="M87.9269 29.0685L87.9004 29.043L87.9475 29.0902L87.9269 29.0685Z" fill="#231F20"/>
<path d="M35.2667 68.7591C35.7985 68.1659 35.8312 66.8847 35.3693 65.5786C35.2122 65.2092 35.1432 64.8083 35.1679 64.4077C35.1925 64.007 35.31 63.6176 35.5111 63.2702L35.6654 63.0497C35.8739 62.7607 36.1766 62.5533 36.5215 62.4632C36.8664 62.3731 37.2318 62.406 37.555 62.5563C38.1308 62.792 38.7721 62.8135 39.3624 62.6168C39.9526 62.42 40.4528 62.018 40.772 61.4839C41.2285 60.6897 41.4497 59.782 41.4098 58.8668C41.37 57.9516 41.0706 57.0666 40.5467 56.3151C39.1352 54.2864 36.8239 54.1925 35.629 55.8225C35.2701 56.3543 35.0326 56.9584 34.9332 57.5922C34.8338 58.2259 34.8751 58.8738 35.054 59.4898C35.1757 59.8964 35.213 60.3236 35.1636 60.7452C35.1141 61.1667 34.979 61.5737 34.7665 61.941L34.6161 62.1643C34.4586 62.4347 34.2021 62.633 33.9008 62.7173C33.5995 62.8016 33.2772 62.7651 33.0023 62.6156C32.7821 62.4865 32.5334 62.4138 32.2782 62.4041C32.0231 62.3944 31.7695 62.448 31.54 62.5601C32.201 64.8046 33.0945 66.9741 34.2059 69.0332C34.3894 69.0932 34.5863 69.0993 34.7732 69.0507C34.96 69.0021 35.129 68.9009 35.26 68.7591" fill="#F5413F"/>
<path d="M32.7373 60.0007C33.7981 58.7387 33.7367 55.9846 32.5887 54.3469C32.3816 53.931 32.0361 53.6 31.6115 53.411C31.187 53.222 30.7099 53.1867 30.2621 53.3111C30.235 53.3201 30.2075 53.3278 30.1797 53.3341C30.2045 55.7484 30.4868 58.1532 31.022 60.5076C31.3244 60.6215 31.6559 60.6332 31.9656 60.541C32.2754 60.4488 32.5464 60.2577 32.7373 59.9969" fill="#F5413F"/>
<path d="M49.6505 61.0835C50.1054 60.6766 50.4734 60.182 50.7324 59.6293C50.9913 59.0767 51.1359 58.4774 51.1575 57.8675C51.179 57.2575 51.0772 56.6495 50.8579 56.0799C50.6386 55.5104 50.3065 54.991 49.8814 54.553C49.4028 54.0261 48.7909 53.6383 48.1102 53.4303C47.4295 53.2224 46.7053 53.202 46.0139 53.3714C45.5517 53.4865 45.0664 53.4699 44.6131 53.3236C44.1598 53.1773 43.7564 52.9071 43.4487 52.5435L43.1995 52.2618C42.8733 51.8818 42.6418 51.4299 42.524 50.9432C42.4063 50.4565 42.4056 49.9488 42.522 49.4617C42.6967 48.7918 42.7143 48.0905 42.5733 47.4127C42.4324 46.7348 42.1367 46.0987 41.7094 45.5539C40.2874 43.9191 37.9942 44.2746 36.691 46.2247C36.1955 46.9599 35.9132 47.818 35.8754 48.7037C35.8377 49.5895 36.046 50.4685 36.4773 51.2431C36.7956 51.8139 37.2974 52.2605 37.9013 52.5104C38.5052 52.7603 39.1757 52.799 39.8044 52.6201C40.2363 52.5106 40.6908 52.5284 41.113 52.6712C41.5351 52.814 41.907 53.0758 42.1838 53.4251L42.43 53.7078C42.7577 54.0946 42.9954 54.5493 43.1259 55.0392C43.2563 55.5291 43.2762 56.0419 43.1842 56.5404C43.0404 57.3246 43.0987 58.1325 43.3535 58.8879C43.6083 59.6433 44.0513 60.3215 44.6407 60.8583C45.3077 61.4943 46.1821 61.8678 47.1028 61.9099C48.0235 61.952 48.9283 61.6598 49.6505 61.0874" fill="#F5413F"/>
<path d="M45.8978 50.2378C46.6265 50.8456 47.5498 51.1705 48.4986 51.1529C49.4474 51.1353 50.3581 50.7764 51.0637 50.1419C51.6968 49.6014 52.1735 48.9012 52.4443 48.114C52.7152 47.3269 52.7702 46.4815 52.6037 45.6659C52.501 45.1471 52.529 44.6109 52.6851 44.1055C52.8411 43.6002 53.1204 43.1416 53.4977 42.771L53.7852 42.4835C54.156 42.1065 54.6146 41.8275 55.1199 41.6716C55.6252 41.5157 56.1613 41.4878 56.6801 41.5904C57.4958 41.757 58.3413 41.702 59.1287 41.4312C59.916 41.1604 60.6164 40.6836 61.1571 40.0505C61.7914 39.3446 62.1503 38.4338 62.1679 37.4849C62.1855 36.536 61.8607 35.6125 61.2529 34.8835C60.8461 34.4522 60.3573 34.1062 59.8153 33.8659C59.2732 33.6256 58.6887 33.4957 58.0958 33.4838C57.503 33.4719 56.9137 33.5784 56.3625 33.7968C55.8112 34.0152 55.3091 34.3413 54.8853 34.7561C54.3584 35.23 53.9626 35.8316 53.7358 36.503C53.5091 37.1744 53.4591 37.8928 53.5906 38.5891C53.6767 39.0924 53.6376 39.6091 53.4769 40.0938C53.3161 40.5784 53.0386 41.016 52.6688 41.3681L52.3814 41.6556C52.0292 42.0252 51.5916 42.3027 51.107 42.4634C50.6224 42.6242 50.1056 42.6633 49.6024 42.5774C48.9061 42.4454 48.1874 42.4951 47.516 42.7219C46.8445 42.9487 46.2429 43.3448 45.7693 43.872C45.3549 44.2958 45.029 44.798 44.8107 45.3491C44.5924 45.9003 44.4861 46.4894 44.498 47.0821C44.5098 47.6748 44.6396 48.2592 44.8798 48.8011C45.1199 49.3431 45.4657 49.8318 45.8968 50.2387" fill="#F5413F"/>
<path d="M73.6382 22.0017C73.7883 22.2765 73.8252 22.599 73.7411 22.9005C73.657 23.2021 73.4585 23.4589 73.1879 23.6164L72.9646 23.7678C72.5973 23.9805 72.1903 24.1158 71.7687 24.1652C71.3472 24.2146 70.9199 24.1772 70.5134 24.0553C69.8975 23.876 69.2497 23.8345 68.6161 23.9339C67.9824 24.0332 67.3784 24.271 66.8471 24.6302C65.218 25.8242 65.3138 28.1384 67.3396 29.549C68.0912 30.073 68.9764 30.3725 69.8918 30.4124C70.8072 30.4523 71.7151 30.2309 72.5094 29.7742C73.0429 29.4541 73.4442 28.9538 73.6409 28.3636C73.8375 27.7734 73.8165 27.1324 73.5817 26.5563C73.4311 26.2331 73.398 25.8674 73.4879 25.5224C73.5778 25.1773 73.7851 24.8744 74.0743 24.6657L74.2946 24.5114C74.6422 24.3101 75.0318 24.1926 75.4326 24.1679C75.8335 24.1433 76.2345 24.2123 76.6041 24.3695C77.9092 24.8314 79.1914 24.7989 79.7836 24.2661C79.9249 24.1347 80.0256 23.9656 80.0738 23.7788C80.122 23.592 80.1158 23.3953 80.0557 23.212C77.9975 22.1004 75.8291 21.2063 73.5855 20.5442C73.4721 20.7738 73.4175 21.028 73.4267 21.2839C73.4359 21.5398 73.5086 21.7895 73.6382 22.0103" fill="#F5413F"/>
<path d="M65.3765 21.58C67.0113 22.7299 69.7643 22.7893 71.0302 21.7295C71.2929 21.5379 71.4851 21.2652 71.5773 20.9534C71.6694 20.6417 71.6563 20.3082 71.54 20.0046C69.1863 19.4691 66.7821 19.1861 64.3684 19.1604C64.3597 19.1901 64.3559 19.2189 64.3444 19.2486C64.2201 19.6965 64.2555 20.1737 64.4445 20.5983C64.6335 21.023 64.9643 21.3687 65.3803 21.5762" fill="#F5413F"/>
<path d="M60.4879 31.5163C60.975 31.3995 61.4829 31.4002 61.9697 31.5181C62.4565 31.6361 62.9083 31.868 63.2879 32.1947L63.5697 32.4429C63.9333 32.7507 64.2035 33.154 64.3498 33.6073C64.4962 34.0607 64.5127 34.5459 64.3976 35.0082C64.2281 35.6998 64.2483 36.4244 64.4562 37.1054C64.6642 37.7865 65.0521 38.3987 65.5791 38.8776C66.0171 39.3026 66.5365 39.6346 67.106 39.8538C67.6755 40.073 68.2835 40.1748 68.8933 40.1531C69.5032 40.1315 70.1025 39.9868 70.655 39.7277C71.2075 39.4687 71.702 39.1007 72.1088 38.6457C72.6811 37.9234 72.973 37.0186 72.9309 36.098C72.8888 35.1774 72.5155 34.303 71.8797 33.6359C71.3429 33.0464 70.6649 32.6032 69.9095 32.3482C69.154 32.0932 68.3461 32.0348 67.5618 32.1784C67.0632 32.2703 66.5504 32.2502 66.0605 32.1197C65.5706 31.9891 65.1158 31.7512 64.7291 31.4233L64.4475 31.178C64.0979 30.9012 63.8359 30.5292 63.6929 30.1069C63.5499 29.6846 63.5321 29.2299 63.6416 28.7977C63.8207 28.1688 63.7821 27.4979 63.532 26.8937C63.2818 26.2896 62.8348 25.7877 62.2635 25.4696C61.4889 25.0389 60.6102 24.8309 59.7247 24.8686C58.8392 24.9063 57.9813 25.1883 57.2461 25.6833C55.298 26.9866 54.9463 29.2816 56.5753 30.7027C57.1199 31.1306 57.7562 31.4268 58.4343 31.5679C59.1124 31.709 59.8139 31.6914 60.484 31.5163" fill="#F5413F"/>
<path d="M67.521 74.4648C67.034 74.5808 66.5265 74.5799 66.04 74.4619C65.5535 74.344 65.1018 74.1125 64.722 73.7863L64.4402 73.5372C64.0765 73.2296 63.806 72.8262 63.6595 72.3729C63.5131 71.9196 63.4964 71.4343 63.6113 70.9719C63.7809 70.2803 63.7606 69.5558 63.5527 68.8747C63.3447 68.1937 62.9568 67.5814 62.4298 67.1025C61.9919 66.6774 61.4726 66.3451 60.9031 66.1258C60.3336 65.9064 59.7257 65.8045 59.1157 65.8261C58.5058 65.8476 57.9066 65.9923 57.354 66.2513C56.8015 66.5104 56.3069 66.8784 55.9002 67.3334C55.3275 68.0557 55.0351 68.9608 55.0772 69.8816C55.1193 70.8025 55.4929 71.6771 56.1292 72.3442C56.666 72.9337 57.3441 73.3769 58.0995 73.6319C58.855 73.8869 59.6629 73.9453 60.4472 73.8017C60.9457 73.7096 61.4585 73.7295 61.9484 73.8599C62.4383 73.9903 62.893 74.228 63.2798 74.5558L63.5615 74.8021C63.9105 75.0794 64.1721 75.4514 64.3148 75.8736C64.4576 76.2958 64.4755 76.7503 64.3664 77.1824C64.188 77.8112 64.227 78.4817 64.4771 79.0855C64.7272 79.6893 65.1737 80.1911 65.7444 80.5095C66.5189 80.9411 67.398 81.1496 68.2838 81.1118C69.1697 81.0741 70.0278 80.7917 70.7628 80.2958C72.71 78.9926 73.0627 76.6976 71.4336 75.2765C70.8887 74.849 70.2525 74.5532 69.5745 74.4121C68.8965 74.271 68.1951 74.2884 67.5249 74.4629" fill="#990048"/>
<path d="M54.3743 83.9861C54.2237 83.7107 54.1859 83.3876 54.2691 83.0849C54.3522 82.7822 54.5497 82.5237 54.8199 82.3638L55.0432 82.2124C55.4132 82.0006 55.8225 81.8664 56.246 81.8179C56.6696 81.7695 57.0986 81.8079 57.5068 81.9307C58.1769 82.1313 58.8862 82.1634 59.5716 82.024C60.257 81.8846 60.8973 81.578 61.4357 81.1315C61.714 80.8642 61.9341 80.5424 62.082 80.1861C62.23 79.8297 62.3028 79.4467 62.2956 79.0609C62.2885 78.6751 62.2018 78.295 62.0408 77.9444C61.8797 77.5937 61.648 77.2802 61.36 77.0234C60.5717 76.2108 59.5201 75.7052 58.3932 75.5968C57.2663 75.4885 56.1376 75.7846 55.2089 76.4322C54.7698 76.781 54.4566 77.2636 54.3168 77.8067C54.1771 78.3498 54.2184 78.9237 54.4347 79.4411C54.5846 79.7632 54.6169 80.1277 54.5261 80.4711C54.4352 80.8146 54.2269 81.1154 53.9373 81.3212L53.7169 81.4755C53.3714 81.6772 52.9836 81.7954 52.5843 81.8209C52.1851 81.8464 51.7854 81.7783 51.4171 81.6221C50.9428 81.4081 50.4292 81.295 49.9089 81.2901C49.3886 81.2851 48.873 81.3884 48.3948 81.5934C48.1977 81.7097 48.0457 81.8893 47.9634 82.1029C47.8811 82.3165 47.8734 82.5516 47.9415 82.7701C50.002 83.8847 52.1734 84.7808 54.4203 85.4437C54.5335 85.2158 54.5885 84.9633 54.5803 84.709C54.5721 84.4546 54.501 84.2063 54.3733 83.9861" fill="#990048"/>
<path d="M76.6036 56.1361C76.0777 56.682 75.6931 57.348 75.483 58.0762C75.2729 58.8045 75.2438 59.573 75.3981 60.3151C75.4996 60.832 75.4707 61.3659 75.3141 61.8688C75.1576 62.3718 74.8782 62.8278 74.5012 63.1956L74.2137 63.4831C73.8456 63.8597 73.3895 64.1388 72.8867 64.2952C72.3838 64.4516 71.8499 64.4804 71.3331 64.3791C70.591 64.2249 69.8226 64.2541 69.0943 64.4641C68.3661 64.6742 67.7001 65.0588 67.1542 65.5846C66.7137 65.9744 66.3662 66.458 66.1373 66.9999C65.9084 67.5417 65.8039 68.128 65.8315 68.7155C65.8591 69.3031 66.018 69.877 66.2967 70.395C66.5753 70.913 66.9666 71.362 67.4416 71.7088C68.2402 72.2436 69.1879 72.5112 70.1482 72.4732C71.1086 72.4351 72.0321 72.0933 72.7858 71.497C73.4137 71.0339 73.8992 70.404 74.1872 69.6789C74.4751 68.9538 74.554 68.1624 74.4149 67.3947C74.3278 66.8893 74.366 66.3703 74.5263 65.8831C74.6865 65.3959 74.9638 64.9555 75.3339 64.6004L75.6214 64.313C75.9764 63.9431 76.4166 63.6659 76.9036 63.5057C77.3906 63.3455 77.9094 63.3071 78.4147 63.394C79.1824 63.5332 79.9738 63.4543 80.6989 63.1664C81.4241 62.8784 82.054 62.3929 82.517 61.7649C83.1134 61.0114 83.4552 60.088 83.4932 59.1278C83.5313 58.1676 83.2636 57.22 82.7288 56.4217C82.3819 55.9466 81.9328 55.5553 81.4147 55.2767C80.8966 54.998 80.3226 54.839 79.735 54.8115C79.1474 54.7839 78.5611 54.8884 78.0191 55.1173C77.4772 55.3462 76.9935 55.6937 76.6036 56.1342" fill="#990048"/>
<path d="M78.3575 44.8956C77.9026 45.3025 77.5346 45.7971 77.2756 46.3498C77.0167 46.9024 76.8721 47.5017 76.8505 48.1117C76.8289 48.7216 76.9308 49.3296 77.1501 49.8992C77.3694 50.4688 77.7015 50.9881 78.1265 51.4262C78.6052 51.9532 79.2173 52.3413 79.8982 52.5492C80.5791 52.7572 81.3036 52.7774 81.9951 52.6077C82.4573 52.4927 82.9425 52.5093 83.3958 52.6556C83.8491 52.8019 84.2525 53.0721 84.5603 53.4356L84.8085 53.7174C85.1344 54.0973 85.3658 54.549 85.4837 55.0355C85.6017 55.522 85.6028 56.0295 85.487 56.5165C85.3119 57.1864 85.2941 57.8877 85.4351 58.5656C85.5761 59.2436 85.872 59.8797 86.2996 60.4243C87.7188 62.0533 90.0157 61.7054 91.318 59.7535C91.8139 59.0184 92.0963 58.1603 92.134 57.2745C92.1717 56.3886 91.9632 55.5096 91.5317 54.735C91.2134 54.1641 90.7117 53.7175 90.1078 53.4675C89.5039 53.2176 88.8332 53.179 88.2046 53.358C87.7726 53.4673 87.3183 53.4494 86.8962 53.3066C86.4741 53.1638 86.1021 52.9022 85.8252 52.5531L85.579 52.2713C85.2511 51.8846 85.0132 51.4299 84.8826 50.94C84.752 50.4501 84.7319 49.9373 84.8238 49.4387C84.9676 48.6545 84.9093 47.8467 84.6545 47.0912C84.3997 46.3358 83.9567 45.6577 83.3673 45.1208C82.7004 44.4846 81.8259 44.111 80.9052 44.0689C79.9845 44.0268 79.0796 44.3191 78.3575 44.8918" fill="#990048"/>
<path d="M92.6142 37.3905C92.4092 37.8687 92.3059 38.3844 92.3109 38.9047C92.3158 39.425 92.4289 39.9386 92.643 40.4129C92.7994 40.7811 92.8676 41.1808 92.8423 41.58C92.8171 41.9793 92.6989 42.3671 92.4973 42.7127C92.4456 42.7855 92.3948 42.8593 92.3421 42.9321C92.1368 43.2221 91.8362 43.4308 91.4928 43.5219C91.1494 43.6129 90.7849 43.5806 90.4629 43.4304C89.9457 43.2141 89.3719 43.1727 88.8289 43.3125C88.2859 43.4522 87.8035 43.7655 87.4549 44.2047C86.8068 45.1333 86.5103 46.2621 86.6185 47.3893C86.7266 48.5165 87.2324 49.5684 88.0452 50.3567C88.3021 50.6445 88.6156 50.8761 88.9662 51.0369C89.3168 51.1977 89.6968 51.2844 90.0825 51.2914C90.4681 51.2984 90.851 51.2256 91.2072 51.0777C91.5634 50.9297 91.8852 50.7097 92.1524 50.4315C92.5989 49.8931 92.9055 49.2528 93.0451 48.5674C93.1847 47.882 93.1529 47.1727 92.9525 46.5026C92.8295 46.0942 92.791 45.6651 92.8393 45.2414C92.8876 44.8177 93.0216 44.4082 93.2333 44.038L93.3837 43.8147C93.5432 43.5442 93.8017 43.3463 94.1045 43.263C94.4073 43.1797 94.7306 43.2174 95.006 43.3681C95.2255 43.4955 95.4731 43.5666 95.7267 43.5752C95.9803 43.5837 96.2322 43.5293 96.4597 43.417C95.797 41.1694 94.9016 38.9971 93.7881 36.9353C93.5698 36.8684 93.3354 36.8768 93.1225 36.9592C92.9096 37.0416 92.7306 37.1941 92.6142 37.3905Z" fill="#990048"/>
<path d="M33.3616 50.5016C34.2562 49.3846 34.6831 47.9644 34.5527 46.5392C34.4857 45.6111 34.7707 44.6918 35.351 43.9644L35.5685 43.6932C35.795 43.3644 36.1058 43.1025 36.4683 42.9349C36.8307 42.7673 37.2315 42.7002 37.6288 42.7407C38.3 42.7986 38.9744 42.6732 39.5799 42.3779C40.1855 42.0825 40.6995 41.6283 41.067 41.0637C42.2304 39.5554 42.4556 37.5134 41.6909 36.3682C40.6789 34.8743 38.6752 35.2921 37.2301 36.9269C36.3777 37.8555 35.887 39.0593 35.8474 40.3192C35.8234 41.2177 35.5046 42.0834 34.9399 42.7828L34.7253 43.0512C34.534 43.356 34.2649 43.6044 33.9457 43.7706C33.6265 43.9369 33.2688 44.015 32.9094 43.997C32.6078 43.9533 32.3003 43.9803 32.0109 44.0758C31.7216 44.1712 31.4584 44.3325 31.242 44.547C30.7277 46.5548 30.3982 48.6054 30.2578 50.6732C31.0244 51.6822 32.3411 51.6717 33.3616 50.4997" fill="#FE5E47"/>
<path d="M49.8892 39.5726C51.9236 37.9004 52.1756 35.1013 50.6558 33.707C50.182 33.2992 49.6051 33.0297 48.9882 32.9283C48.3714 32.8269 47.7385 32.8974 47.1591 33.1321C46.7897 33.2921 46.3831 33.3464 45.9846 33.2889C45.5861 33.2314 45.2115 33.0643 44.9024 32.8063L44.7107 32.6204C44.4655 32.3507 44.3106 32.0112 44.2676 31.6492C44.2247 31.2872 44.2958 30.9209 44.4712 30.6013C44.9503 29.5242 44.888 28.5228 44.3131 28.0514C43.35 27.2895 41.5504 28.1472 40.1379 29.6929C39.0522 30.8878 38.4763 32.2716 38.942 33.1244C39.3464 33.8575 40.4244 33.9792 41.6021 33.4646C41.9228 33.2883 42.2904 33.2161 42.654 33.2578C43.0176 33.2995 43.3593 33.4531 43.6318 33.6975L43.8186 33.8891C44.0756 34.2011 44.2415 34.5779 44.2981 34.9781C44.3547 35.3782 44.2999 35.7863 44.1396 36.1573C43.8788 36.7915 43.82 37.4907 43.9713 38.1596C44.1225 38.8284 44.4765 39.4343 44.9848 39.8945C45.7144 40.4134 46.6004 40.6652 47.4938 40.6074C48.3872 40.5496 49.2335 40.1859 49.8902 39.5774" fill="#FE5E47"/>
<path d="M34.8844 36.529C34.8192 36.4093 34.7254 36.3076 34.6113 36.2329C33.4817 38.2129 32.5567 40.3028 31.8506 42.4702C32.4719 42.2934 33.0248 41.9322 33.4365 41.4344C34.8739 39.882 35.4335 37.4604 34.8844 36.53" fill="#FE5E47"/>
<path d="M55.0153 21.9003C55.0341 22.2605 54.9563 22.6192 54.79 22.9393C54.6238 23.2594 54.375 23.5293 54.0695 23.721L53.8021 23.9356C53.1032 24.5018 52.2366 24.8209 51.3374 24.8431C50.077 24.8825 48.8727 25.3735 47.9442 26.2268C46.3104 27.6719 45.8917 29.6766 47.3865 30.6885C48.5307 31.4551 50.5718 31.2271 52.082 30.0656C52.6471 29.6983 53.1016 29.1842 53.397 28.5784C53.6924 27.9726 53.8175 27.2979 53.759 26.6265C53.7189 26.2291 53.7861 25.8282 53.9537 25.4657C54.1212 25.1032 54.3829 24.7922 54.7115 24.5652L54.9827 24.3467C55.7106 23.7666 56.6301 23.4816 57.5585 23.5485C58.9835 23.6791 60.4037 23.2525 61.5209 22.3583C62.6929 21.334 62.7034 20.0192 61.6886 19.2488C59.6244 19.3887 57.5773 19.7171 55.573 20.23C55.3565 20.4469 55.1935 20.7111 55.0967 21.0018C55 21.2925 54.9721 21.6018 55.0153 21.9051" fill="#FE5E47"/>
<path d="M47.548 23.8733C48.4813 24.4243 50.9019 23.859 52.4543 22.4263C52.9543 22.0131 53.3164 21.4572 53.4921 20.8328C51.3223 21.5395 49.2301 22.4655 47.248 23.5964C47.3238 23.7119 47.4268 23.807 47.548 23.8733Z" fill="#FE5E47"/>
<path d="M62.6308 84.3987C60.996 83.2487 58.242 83.1884 56.9771 84.2501C56.7143 84.4416 56.522 84.7143 56.4298 85.0261C56.3376 85.338 56.3508 85.6714 56.4673 85.975C58.821 86.5107 61.2252 86.7937 63.6389 86.8192C63.6476 86.7895 63.6514 86.7608 63.6629 86.7311C63.7876 86.283 63.7525 85.8056 63.5634 85.3806C63.3744 84.9557 63.0433 84.6099 62.627 84.4025" fill="#6A1858"/>
<path d="M72.9911 84.0873C72.9732 83.7275 73.0511 83.3693 73.2169 83.0494C73.3828 82.7295 73.6306 82.4594 73.935 82.2666L74.2033 82.052C74.9067 81.486 75.7769 81.1672 76.6795 81.1445C78.0678 81.0914 79.3811 80.5008 80.3419 79.4973C81.5397 78.286 81.924 76.7432 81.1085 75.7342C80.0544 74.4137 77.3828 74.5842 75.6024 76.1913C75.126 76.5634 74.7521 77.0505 74.5158 77.6069C74.2794 78.1632 74.1884 78.7705 74.2512 79.3717C74.29 79.7681 74.2215 80.1675 74.0529 80.5283C73.8843 80.8891 73.6218 81.1979 73.293 81.4224L73.0218 81.6409C72.2979 82.2196 71.3829 82.5048 70.4584 82.4401C69.1511 82.3238 67.844 82.666 66.7614 83.4079C65.3135 84.4668 65.2234 85.8994 66.3149 86.7388C68.381 86.5989 70.43 86.2701 72.4362 85.7566C72.6509 85.5404 72.8126 85.2775 72.9087 84.9884C73.0048 84.6993 73.0326 84.3919 72.9901 84.0902" fill="#6A1858"/>
<path d="M80.4558 82.1065C79.5244 81.5574 77.1019 82.1189 75.5504 83.5535C75.0503 83.9666 74.6883 84.5226 74.5127 85.1471C76.6826 84.4406 78.7748 83.5146 80.7567 82.3835C80.6811 82.2678 80.5781 82.1727 80.4568 82.1065" fill="#6A1858"/>
<path d="M77.4122 67.0954C76.8041 67.7525 76.4407 68.5989 76.3831 69.4924C76.3255 70.3859 76.5772 71.2719 77.096 72.0017C77.5565 72.5096 78.1623 72.8633 78.831 73.0147C79.4997 73.1661 80.1988 73.1079 80.8332 72.8478C81.2043 72.6873 81.6126 72.6323 82.013 72.6889C82.4134 72.7456 82.7903 72.9116 83.1024 73.1689L83.294 73.3605C83.539 73.6328 83.6931 73.9745 83.7352 74.3384C83.7773 74.7022 83.7052 75.0701 83.5288 75.3911C83.0152 76.5707 83.1359 77.6468 83.8699 78.0522C84.7237 78.5189 86.1084 77.942 87.3034 76.8572C88.8519 75.4447 89.7077 73.6441 88.944 72.6801C88.4734 72.1052 87.472 72.0458 86.393 72.5211C86.0733 72.6964 85.7068 72.7675 85.3447 72.7245C84.9826 72.6816 84.6429 72.5267 84.373 72.2815L84.1871 72.0898C83.9294 71.7806 83.7625 71.406 83.705 71.0076C83.6475 70.6092 83.7016 70.2026 83.8613 69.8331C84.0959 69.2535 84.1663 68.6205 84.0649 68.0036C83.9635 67.3866 83.6941 66.8095 83.2864 66.3355C81.8911 64.8118 79.0911 65.0629 77.4189 67.1021" fill="#6A1858"/>
<path d="M95.2682 45.9782C94.2084 47.2402 94.2688 49.9943 95.4168 51.6319C95.6242 52.0477 95.9698 52.3783 96.3942 52.5673C96.8187 52.7563 97.2956 52.7918 97.7434 52.6678C97.7712 52.6573 97.799 52.6534 97.8258 52.6448C97.8008 50.2305 97.5185 47.8257 96.9835 45.4712C96.681 45.3573 96.3495 45.3455 96.0397 45.4375C95.7298 45.5296 95.4586 45.7205 95.2673 45.981" fill="#6A1858"/>
<path d="M94.4224 55.759C93.6796 56.8413 93.3373 58.1486 93.4545 59.456C93.5191 60.3802 93.2338 61.2948 92.6553 62.0184C92.5835 62.1085 92.5096 62.1986 92.4368 62.2886C92.2124 62.6176 91.9036 62.8801 91.5428 63.0487C91.182 63.2173 90.7825 63.2858 90.3861 63.2469C89.7851 63.184 89.1779 63.2749 88.6217 63.5113C88.0654 63.7477 87.5785 64.1216 87.2066 64.598C85.5986 66.3785 85.4291 69.0473 86.7486 70.1033C87.7576 70.9207 89.3014 70.5383 90.5098 69.3366C91.513 68.3764 92.1036 67.0638 92.157 65.6761C92.1793 64.7737 92.4982 63.9038 93.0644 63.2009L93.2791 62.9326C93.4714 62.6277 93.7414 62.3795 94.0614 62.2136C94.3814 62.0477 94.7399 61.9701 95.0998 61.9887C95.3998 62.031 95.7056 62.0036 95.9933 61.9085C96.281 61.8135 96.5429 61.6533 96.7586 61.4406C97.274 59.4307 97.6041 57.3778 97.7446 55.3077C96.9071 54.2239 95.4764 54.3159 94.4204 55.7609" fill="#6A1858"/>
<path d="M93.1211 69.4508C93.1866 69.5703 93.2799 69.6722 93.3933 69.7478C94.5234 67.768 95.4487 65.6781 96.1549 63.5105C95.5335 63.6876 94.9802 64.0487 94.568 64.5464C93.1306 66.0988 92.5701 68.5184 93.1201 69.4517" fill="#6A1858"/>
<path d="M43.6973 78.3992C44.2426 77.7658 43.8947 76.2144 42.718 74.8815C41.1847 73.125 39.0843 72.5816 38.4566 73.4201C38.0733 73.9041 38.2649 74.6975 38.769 75.5283C39.182 75.9902 39.6084 76.4454 40.0521 76.89L40.101 76.9389C40.5437 77.3806 40.9969 77.8013 41.4569 78.2172C42.3663 78.772 43.2374 78.9445 43.6973 78.4031" fill="#C90649"/>
<path d="M47.2352 73.467C46.7784 73.4854 46.3231 73.4051 45.9002 73.2314C45.4773 73.0578 45.0969 72.7949 44.7849 72.4608L44.5204 72.1964C44.1866 71.8842 43.924 71.5037 43.7505 71.0809C43.5771 70.658 43.4968 70.2028 43.5152 69.7461C43.5522 69.0756 43.4512 68.4046 43.2183 67.7748C42.9854 67.1449 42.6256 66.5696 42.1612 66.0846C40.5178 64.3012 38.2151 64.2227 37.3747 65.7875C36.7211 66.9863 37.1313 68.7734 38.2265 70.1438C38.5948 70.6712 39.0797 71.1066 39.6436 71.4161C40.2075 71.7255 40.8353 71.9007 41.4779 71.928C41.9071 71.9408 42.3293 72.0399 42.7193 72.2193C43.1093 72.3988 43.4592 72.6549 43.7481 72.9726L44.0087 73.2332C44.3259 73.5225 44.5817 73.8724 44.7611 74.2624C44.9406 74.6523 45.0399 75.0743 45.0532 75.5033C45.0806 76.146 45.2558 76.7737 45.5653 77.3376C45.8748 77.9015 46.3101 78.3865 46.8375 78.7547C48.2078 79.851 49.9997 80.2611 51.1937 79.6076C52.7576 78.7662 52.68 76.4635 50.8957 74.8162C50.4107 74.3522 49.8355 73.9926 49.2059 73.7598C48.5762 73.5271 47.9055 73.4261 47.2352 73.4632" fill="#C90649"/>
<path d="M52.8447 67.3648C52.7034 66.8894 52.6934 66.3845 52.8159 65.9038C52.9384 65.4231 53.1887 64.9846 53.5403 64.6347L53.8135 64.3635C54.1845 64.0045 54.6421 63.7474 55.1417 63.6173C55.6414 63.4872 56.1662 63.4884 56.6653 63.6209C57.4688 63.8297 58.3152 63.8054 59.1055 63.5509C59.8958 63.2963 60.5973 62.822 61.1279 62.1835C61.8296 61.2861 62.1651 60.1561 62.0669 59.0212C61.9687 57.8863 61.4442 56.8307 60.5988 56.0671C59.7535 55.3036 58.6502 54.8887 57.5111 54.906C56.3721 54.9234 55.2819 55.3718 54.4603 56.1608C53.9337 56.702 53.556 57.3701 53.3639 58.1003C53.1719 58.8306 53.1719 59.5981 53.3641 60.3283C53.4957 60.8253 53.4961 61.3479 53.3653 61.8451C53.2344 62.3423 52.9768 62.797 52.6176 63.1648L52.3464 63.4379C51.9994 63.7894 51.5636 64.0402 51.0853 64.1635C50.6071 64.2869 50.1044 64.2782 49.6307 64.1384C48.9955 63.9288 48.3146 63.8998 47.664 64.0548C47.0133 64.2098 46.4185 64.5427 45.9461 65.0161C44.4675 66.6116 44.8786 69.2593 46.7923 70.8548C47.4439 71.4554 48.2764 71.8228 49.1593 71.8994C50.0421 71.9761 50.9254 71.7576 51.6708 71.2784C52.2459 70.8261 52.6674 70.2073 52.8777 69.5065C53.0879 68.8057 53.0767 68.0571 52.8456 67.3629" fill="#C90649"/>
<path d="M84.4391 27.4521C83.6025 28.0778 84.1449 30.1812 85.9014 31.7135C87.2334 32.8883 88.7848 33.2371 89.4182 32.6919C89.9596 32.2329 89.7881 31.3628 89.2343 30.4543C88.8184 29.9896 88.391 29.5325 87.9444 29.0859L87.8984 29.0399C87.457 28.5998 87.0062 28.1746 86.5463 27.7645C85.7174 27.2595 84.924 27.0707 84.4381 27.4511" fill="#C90649"/>
<path d="M82.9503 30.4746C82.9229 29.832 82.7476 29.2045 82.4382 28.6407C82.1287 28.077 81.6934 27.5922 81.166 27.2241C79.7947 26.1269 78.0095 25.7187 76.8097 26.3703C75.2458 27.2117 75.3235 29.5125 77.1078 31.1616C77.5928 31.6261 78.1681 31.9858 78.7979 32.2186C79.4278 32.4513 80.0988 32.5521 80.7693 32.5147C81.2259 32.4963 81.6811 32.5767 82.1038 32.7503C82.5265 32.924 82.9067 33.1868 83.2186 33.5209L83.483 33.7854C83.8169 34.0976 84.0794 34.478 84.2529 34.9009C84.4264 35.3237 84.5067 35.779 84.4883 36.2356C84.4511 36.906 84.5519 37.5769 84.7845 38.2067C85.017 38.8365 85.3764 39.4119 85.8404 39.8972C87.4857 41.6824 89.7884 41.76 90.6317 40.1952C91.2843 38.9955 90.8751 37.2083 89.7788 35.8389C89.4105 35.3116 88.9256 34.8763 88.3617 34.5668C87.7978 34.2574 87.1701 34.0821 86.5274 34.0547C86.0984 34.0415 85.6764 33.9422 85.2864 33.7628C84.8964 33.5834 84.5465 33.3274 84.2574 33.0101L83.9967 32.7495C83.6796 32.4602 83.4238 32.1102 83.2444 31.7203C83.0649 31.3304 82.9656 30.9084 82.9522 30.4794" fill="#C90649"/>
<path d="M76.0414 34.9421C75.5678 35.4146 75.2348 36.0095 75.0798 36.6603C74.9248 37.3112 74.9538 37.9923 75.1636 38.6276C75.3035 39.1012 75.3124 39.6039 75.1892 40.0821C75.066 40.5603 74.8154 40.9962 74.4641 41.3433L74.1919 41.6135C73.8235 41.9721 73.3686 42.2294 72.8715 42.3603C72.3743 42.4913 71.8517 42.4915 71.3545 42.3609C70.6243 42.1686 69.8568 42.1685 69.1265 42.3606C68.3962 42.5527 67.7281 42.9304 67.187 43.4572C66.3993 44.279 65.952 45.3686 65.9351 46.5069C65.9182 47.6452 66.3329 48.7476 67.0959 49.5925C67.8589 50.4373 68.9136 50.9619 70.0477 51.0606C71.1818 51.1594 72.3112 50.825 73.2087 50.1248C73.8473 49.5941 74.3216 48.8927 74.5761 48.1024C74.8306 47.3121 74.8549 46.4657 74.6461 45.6622C74.5135 45.1631 74.5122 44.6383 74.6424 44.1386C74.7725 43.6389 75.0296 43.1814 75.3888 42.8104L75.659 42.5363C76.0089 42.1848 76.4475 41.9345 76.9281 41.812C77.4088 41.6895 77.9136 41.6994 78.3891 41.8406C79.0833 42.0719 79.832 42.0831 80.5328 41.8728C81.2336 41.6626 81.8524 41.241 82.3046 40.6658C82.7838 39.9204 83.0023 39.0372 82.9258 38.1544C82.8493 37.2716 82.4822 36.4391 81.882 35.7872C80.2846 33.8707 77.6407 33.4625 76.0433 34.9411" fill="#C90649"/>
<path d="M72.2356 54.8508C71.7023 54.1945 70.9933 53.7034 70.1914 53.435C69.3895 53.1666 68.5278 53.1318 67.7069 53.3348C67.1812 53.4609 66.632 53.4498 66.1118 53.3027C65.5916 53.1555 65.118 52.8772 64.7363 52.4944L64.4411 52.1993C64.0581 51.8177 63.7797 51.344 63.6326 50.8238C63.4854 50.3036 63.4744 49.7543 63.6007 49.2286C63.8034 48.4077 63.7684 47.5461 63.5 46.7443C63.2316 45.9424 62.7408 45.2334 62.0847 44.6999C61.1818 43.9853 60.0408 43.6411 58.8933 43.7373C57.7458 43.8334 56.678 44.3628 55.9066 45.2177C55.1352 46.0726 54.7181 47.1891 54.7401 48.3404C54.762 49.4916 55.2213 50.5914 56.0247 51.4164C56.5697 51.9593 57.2459 52.3521 57.9875 52.5566C58.7291 52.7611 59.5111 52.7704 60.2573 52.5835C60.7814 52.458 61.329 52.4698 61.8472 52.6176C62.3653 52.7655 62.8366 53.0446 63.2155 53.4278L63.5097 53.7219C63.8926 54.1008 64.1715 54.5719 64.3194 55.0899C64.4673 55.6079 64.4791 56.1552 64.3539 56.6791C64.167 57.4255 64.1765 58.2075 64.3811 58.9491C64.5858 59.6908 64.9788 60.3669 65.522 60.9118C66.3471 61.7149 67.4469 62.1739 68.5981 62.1956C69.7493 62.2173 70.8656 61.8 71.7204 61.0286C72.5751 60.2571 73.1042 59.1893 73.2003 58.0419C73.2963 56.8945 72.9521 55.7536 72.2376 54.8508" fill="#C90649"/>
</svg>
