<svg width="128" height="56" viewBox="0 0 128 56" fill="none" xmlns="http://www.w3.org/2000/svg">
<g clip-path="url(#clip0_1359_5311)">
<path d="M97.4549 0.324219H59.6084V11.7871H73.3459V55.6756H84.7794V11.7871H89.0674C89.8216 8.34497 91.5029 5.33525 94.1321 2.82195C95.1699 1.84638 96.2873 1.02303 97.4549 0.324219Z" fill="#D15949"/>
<path d="M122.987 28.7264C120.765 26.3947 116.447 23.8468 110.03 21.0844C105.37 19.1125 103.042 17.1182 103.042 15.1134C103.042 13.9649 103.44 13.0239 104.221 12.2888C104.99 11.562 106.014 11.1663 107.072 11.1869C109.402 11.1869 111.357 12.799 112.931 16.0302L122.932 10.7095C119.673 3.78541 114.688 0.324219 107.985 0.324219H107.98C104.569 0.324219 101.546 1.15968 98.8973 2.82887C97.9959 3.39948 97.1503 4.05391 96.3719 4.78346C94.3049 6.75535 92.9332 9.0853 92.2378 11.7525C91.871 13.1664 91.6867 14.6214 91.6895 16.0821C91.6895 19.5208 92.6028 22.3385 94.4277 24.5301C95.8616 26.2494 98.3317 27.9739 101.848 29.695C103.102 30.3056 104.339 30.8989 105.555 31.4697C106.776 32.0475 107.99 32.6356 109.212 33.2462C112.365 35.1108 113.944 37.1208 113.944 39.2725C113.944 43.0036 111.9 44.8648 107.818 44.8648H107.812C105.768 44.8648 104.009 44.1815 102.542 42.8185C101.791 42.1352 100.694 40.5387 99.2657 38.0306L88.9392 42.8133C92.5924 51.3858 98.8074 55.6704 107.593 55.6756H107.605C112.728 55.6756 117.096 54.0617 120.72 50.841C124.449 47.4351 126.314 43.2059 126.314 38.1482C126.319 34.1923 125.21 31.0581 122.987 28.7264ZM59.4612 14.5478V33.9899C59.4612 41.8879 56.3408 45.8351 50.1034 45.8351C44.051 45.8351 40.9462 42.1058 40.7628 34.6784V21.7642C40.7628 17.3915 40.3027 14.0946 39.3894 11.8788C38.4415 9.39838 36.8294 7.1653 34.541 5.17265C30.8238 1.94152 26.0964 0.324219 20.3814 0.324219C14.6318 0.324219 9.89405 1.94152 6.17514 5.17265C3.92303 7.15665 2.33686 9.39838 1.42357 11.8788C0.475676 14.6498 0 17.9467 0 21.7642V55.6531C0.297514 55.3348 0.582919 55.0096 0.908108 54.7017C3.69934 52.0694 7.22801 50.3524 11.0218 49.7806V22.0098C11.0218 14.1119 14.144 10.1647 20.3797 10.1647C26.4337 10.1647 29.5369 13.8939 29.7219 21.3214V34.2356C29.7219 38.6083 30.1821 41.9052 31.0954 44.121C32.0415 46.6014 33.6623 48.8345 35.949 50.8271C39.6679 54.0583 44.3935 55.6756 50.1085 55.6756C55.8582 55.6756 60.5942 54.0583 64.3148 50.8271C66.5669 48.8414 68.1548 46.6014 69.0664 44.121C70.0143 41.3499 70.4899 38.0531 70.4899 34.2356V14.5478H59.4612Z" fill="#D15949"/>
</g>
<defs>
<clipPath id="clip0_1359_5311">
<rect width="128" height="55.3513" fill="white" transform="translate(0 0.324219)"/>
</clipPath>
</defs>
</svg>
