<svg width="224" height="28" viewBox="0 0 224 28" fill="none" xmlns="http://www.w3.org/2000/svg">
<g clip-path="url(#clip0_1359_5513)">
<path fill-rule="evenodd" clip-rule="evenodd" d="M15.6717 0.00244189H2.11971C1.77604 0.00221004 1.43749 0.0856765 1.13331 0.245627C0.829128 0.405577 0.568478 0.637199 0.373886 0.920471C0.179294 1.20374 0.0566151 1.53014 0.0164538 1.87146C-0.0237074 2.21278 0.0198569 2.55874 0.143381 2.87944L9.10105 26.1591C9.25464 26.5586 9.52574 26.9021 9.87858 27.1443C10.2314 27.3866 10.6494 27.5161 11.0774 27.5159H24.6294C24.9731 27.5162 25.3116 27.4327 25.6158 27.2728C25.92 27.1128 26.1806 26.8812 26.3752 26.5979C26.5698 26.3146 26.6925 25.9882 26.7326 25.6469C26.7728 25.3056 26.7292 24.9596 26.6057 24.6389L17.648 1.35928C17.4943 0.959894 17.2232 0.616466 16.8704 0.374252C16.5176 0.132038 16.0997 0.00240605 15.6717 0.00244189Z" fill="#3E8EDE"/>
<path fill-rule="evenodd" clip-rule="evenodd" d="M40.0401 0.00244189H26.4869C26.1432 0.00221004 25.8047 0.0856765 25.5005 0.245627C25.1963 0.405577 24.9357 0.637199 24.7411 0.920471C24.5465 1.20374 24.4238 1.53014 24.3836 1.87146C24.3435 2.21278 24.387 2.55874 24.5106 2.87944L33.4682 26.1591C33.7832 26.9769 34.5696 27.5159 35.4446 27.5159H48.9977C49.3413 27.516 49.6797 27.4324 49.9837 27.2723C50.2878 27.1123 50.5483 26.8807 50.7427 26.5974C50.9372 26.3142 51.0598 25.9879 51.0999 25.6466C51.14 25.3054 51.0964 24.9596 50.9729 24.6389L42.0152 1.35928C41.8619 0.959894 41.591 0.616413 41.2383 0.374172C40.8857 0.131931 40.4679 0.00231782 40.0401 0.00244189Z" fill="#005CB9"/>
<path fill-rule="evenodd" clip-rule="evenodd" d="M64.4082 0.00244189H50.8551C50.5114 0.00221004 50.1728 0.0856765 49.8687 0.245627C49.5645 0.405577 49.3038 0.637199 49.1092 0.920471C48.9146 1.20374 48.792 1.53014 48.7518 1.87146C48.7116 2.21278 48.7552 2.55874 48.8787 2.87944L57.8364 26.1591C58.1514 26.9769 58.9377 27.5159 59.8127 27.5159H73.3659C73.7095 27.516 74.0479 27.4324 74.3519 27.2723C74.6559 27.1123 74.9164 26.8807 75.1109 26.5974C75.3053 26.3142 75.4279 25.9879 75.468 25.6466C75.5081 25.3054 75.4646 24.9596 75.3411 24.6389L66.3834 1.35928C66.23 0.959894 65.9591 0.616413 65.6065 0.374172C65.2539 0.131931 64.8361 0.00231782 64.4082 0.00244189Z" fill="#D18F00"/>
<path fill-rule="evenodd" clip-rule="evenodd" d="M93.325 0.0654297C92.0324 0.0654297 91.2332 0.90193 90.7385 1.92976L84.8422 17.7568L78.9459 1.92976C78.45 0.90193 77.6509 0.0654297 76.3582 0.0654297C74.8357 0.0654297 73.4287 1.2076 73.4287 2.80476C73.4287 3.33676 73.5057 3.7171 73.6959 4.21176L82.0259 25.4031C82.5205 26.6211 83.168 27.6104 84.8422 27.6104C86.5152 27.6104 87.1627 26.6211 87.6574 25.4031L95.9885 4.21176C96.1787 3.7171 96.2557 3.33676 96.2557 2.80476C96.2557 1.2076 94.8475 0.0654297 93.325 0.0654297ZM112.88 22.2916H105.842V16.5084H112.08C113.907 16.5084 114.857 15.1773 114.857 13.8834C114.857 12.5523 113.945 11.2584 112.08 11.2584H105.842V5.7051H112.538C114.325 5.7051 115.237 4.37276 115.237 3.0801C115.237 1.74776 114.362 0.465596 112.538 0.465596H103.343L100.135 8.6136V24.6879C100.135 26.3994 101.39 27.5416 103.064 27.5416H112.88C114.668 27.5416 115.58 26.2104 115.58 24.9166C115.58 23.5854 114.705 22.2916 112.88 22.2916Z" fill="#005CB9"/>
<path fill-rule="evenodd" clip-rule="evenodd" d="M138.478 20.9242C136.919 20.9242 135.626 22.5225 132.429 22.5225C127.751 22.5225 125.279 18.641 125.279 14.1143C125.279 9.47333 127.712 5.47867 132.43 5.47867C135.627 5.47867 136.691 6.80867 138.252 6.80867C139.658 6.80867 140.609 5.63033 140.609 4.26067C140.609 0.912333 135.207 0 132.43 0C124.667 0 119.343 6.08767 119.343 14C119.343 21.875 124.706 28 132.428 28C135.244 28 140.988 27.1635 140.988 23.5107C140.988 22.6357 140.191 20.9242 138.478 20.9242Z" fill="#005CB9"/>
<path fill-rule="evenodd" clip-rule="evenodd" d="M191.438 22.5224H180.406L192.58 5.62911C193.074 4.98394 193.417 4.03311 193.417 3.19661C193.417 1.86428 192.429 0.457275 190.22 0.457275H176.297C174.851 0.457275 173.634 1.59828 173.634 3.04378C173.634 4.60361 174.776 5.47861 176.297 5.47861H186.304L174.054 22.5983C173.558 23.2831 173.292 24.0438 173.292 24.8056C173.292 26.4028 174.47 27.5438 176.489 27.5438H191.438C192.808 27.5438 194.179 26.4786 194.179 25.0331C194.179 23.3974 193.037 22.5224 191.438 22.5224Z" fill="#005CB9"/>
<path fill-rule="evenodd" clip-rule="evenodd" d="M209.89 22.75C205.06 22.75 202.739 18.6422 202.739 14C202.739 9.3975 205.135 5.25 209.89 5.25C214.646 5.25 217.043 9.3975 217.043 14C217.043 18.6422 214.722 22.75 209.89 22.75ZM209.892 0C202.13 0 196.803 6.08767 196.803 14C196.803 21.875 202.167 28 209.889 28C217.69 28 222.977 21.875 222.977 14C222.977 6.27667 217.537 0 209.889 0" fill="#005CB9"/>
<path fill-rule="evenodd" clip-rule="evenodd" d="M157.198 22.75C152.367 22.75 150.046 18.6422 150.046 14C150.046 9.3975 152.443 5.25 157.198 5.25C161.953 5.25 164.35 9.3975 164.35 14C164.35 18.6422 162.029 22.75 157.198 22.75ZM157.198 0C149.439 0 144.11 6.08767 144.11 14C144.11 21.875 149.475 28 157.198 28C164.997 28 170.285 21.875 170.285 14C170.285 6.27667 164.844 0 157.198 0Z" fill="#005CB9"/>
</g>
<defs>
<clipPath id="clip0_1359_5513">
<rect width="224" height="28" fill="white"/>
</clipPath>
</defs>
</svg>
