<svg width="128" height="68" viewBox="0 0 128 68" fill="none" xmlns="http://www.w3.org/2000/svg">
<g clip-path="url(#clip0_1359_3476)">
<mask id="mask0_1359_3476" style="mask-type:luminance" maskUnits="userSpaceOnUse" x="50" y="0" width="78" height="67">
<path d="M127.103 0.948111H50.9492V66.8215H127.103V0.946777V0.948111Z" fill="white"/>
</mask>
<g mask="url(#mask0_1359_3476)">
<path fill-rule="evenodd" clip-rule="evenodd" d="M127.103 33.8841C127.103 15.7868 112.431 1.05478 94.3559 0.950777C94.3239 0.950777 94.2919 0.946777 94.2586 0.946777H83.5746C83.1359 0.946777 82.7016 1.03317 82.2964 1.20102C81.8912 1.36887 81.523 1.61489 81.2128 1.92504C80.9027 2.23519 80.6566 2.60339 80.4888 3.00861C80.3209 3.41384 80.2346 3.84816 80.2346 4.28678C80.2346 4.72539 80.3209 5.15971 80.4888 5.56494C80.6566 5.97017 80.9027 6.33837 81.2128 6.64851C81.523 6.95866 81.8912 7.20469 82.2964 7.37254C82.7016 7.54039 83.1359 7.62678 83.5746 7.62678H94.1679C108.645 7.62678 120.427 19.4054 120.427 33.8841C120.427 48.3641 108.645 60.1428 94.1679 60.1428H57.6266V54.0388H50.9492V66.8215H94.2586C112.379 66.7681 127.103 52.0135 127.103 33.8841Z" fill="#009FE4"/>
</g>
<mask id="mask1_1359_3476" style="mask-type:luminance" maskUnits="userSpaceOnUse" x="0" y="0" width="77" height="67">
<path d="M76.7523 0.948111H0.597656V66.8215H76.7523V0.946777V0.948111Z" fill="white"/>
</mask>
<g mask="url(#mask1_1359_3476)">
<path fill-rule="evenodd" clip-rule="evenodd" d="M0.597656 33.8841C0.597656 51.9815 15.2697 66.7135 33.3443 66.8175C33.3763 66.8175 33.4083 66.8215 33.4417 66.8215H44.127C45.0126 66.8215 45.862 66.4696 46.4883 65.8434C47.1145 65.2171 47.4663 64.3678 47.4663 63.4821C47.4663 62.5965 47.1145 61.7471 46.4883 61.1209C45.862 60.4946 45.0126 60.1428 44.127 60.1428H33.535C19.0563 60.1428 7.27632 48.3641 7.27632 33.8841C7.27632 19.4054 19.0563 7.62544 33.535 7.62544H70.0737V13.7294H76.7523V0.946777H33.4403V0.948111C15.3203 1.00144 0.597656 15.7548 0.597656 33.8841Z" fill="#009FE4"/>
</g>
<path fill-rule="evenodd" clip-rule="evenodd" d="M34.6897 36.8214L28.4524 20.2868H20.9004L31.7537 47.4414H36.9817L48.183 20.2868H41.0324L34.6897 36.8214ZM70.0791 37.5654L59.5084 20.2868H50.9577V47.4428H57.6204V29.7161L68.4871 47.4428H76.7404V20.2868H70.0791V37.5654ZM95.8431 30.9788V37.1961H100.559V40.7654C99.9502 41.0538 99.3198 41.2945 98.6737 41.4854C97.8044 41.7561 96.7497 41.8934 95.5351 41.8934C94.3617 41.8934 93.2871 41.6934 92.3431 41.2961C91.4253 40.9176 90.5969 40.3512 89.9111 39.6334C89.225 38.9063 88.6942 38.0471 88.3511 37.1081C87.9884 36.1361 87.8044 35.0428 87.8044 33.8641C87.8044 32.7081 87.9884 31.6228 88.3511 30.6374C88.6913 29.6915 89.2222 28.8256 89.9111 28.0934C90.5979 27.3772 91.4261 26.8115 92.3431 26.4321C93.2884 26.0348 94.3617 25.8334 95.5351 25.8334C96.9537 25.8334 98.1471 26.0348 99.0777 26.4321C100.011 26.8281 100.862 27.4188 101.608 28.1894L101.931 28.5201L106.618 23.4068L106.302 23.1121C104.926 21.8379 103.269 20.9068 101.466 20.3948C99.6657 19.8801 97.6697 19.6174 95.5351 19.6174C93.4391 19.6174 91.4764 19.9508 89.7044 20.6108C87.9793 21.2382 86.4001 22.2104 85.063 23.4681C83.7631 24.7054 82.7351 26.2228 82.0097 27.9801C81.2857 29.7334 80.9177 31.7134 80.9177 33.8641C80.9177 36.0148 81.2857 37.9948 82.011 39.7481C82.7377 41.5068 83.7631 43.0241 85.063 44.2601C86.3617 45.4948 87.9244 46.4561 89.703 47.1174C91.4764 47.7761 93.4391 48.1094 95.5351 48.1094C97.4871 48.1094 99.4284 47.9068 101.308 47.5068C103.207 47.1003 105.042 46.4373 106.762 45.5361L106.998 45.4161V30.9774L95.8431 30.9788Z" fill="#004388"/>
</g>
<defs>
<clipPath id="clip0_1359_3476">
<rect width="128" height="66.6667" fill="white" transform="translate(0 0.666748)"/>
</clipPath>
</defs>
</svg>
