<svg width="52" height="52" viewBox="0 0 52 52" fill="none" xmlns="http://www.w3.org/2000/svg">
<path d="M38.9193 32.8262C40.6577 31.0879 43.4762 31.0879 45.2146 32.8262C46.953 34.5646 46.953 37.3832 45.2146 39.1215L38.5144 45.8215C38.4417 45.9556 38.349 46.0818 38.2356 46.1951L34.2297 50.2013C33.5975 50.8334 32.5727 50.8334 31.9405 50.2013L21.0293 39.2901L24.1769 36.1424C25.9153 34.4041 28.7337 34.4041 30.472 36.1424L33.0376 38.708L38.9193 32.8262Z" fill="#777B00"/>
<path fill-rule="evenodd" clip-rule="evenodd" d="M42.5749 4.93201C47.869 10.2261 47.869 18.8096 42.5749 24.1037C38.6712 28.0073 32.9794 29.0323 28.1363 27.1792C27.4927 26.9329 26.7531 27.049 26.2658 27.5363L14.9619 38.8401L20.2556 44.1338C20.8878 44.7659 20.8878 45.7908 20.2556 46.4229L16.2496 50.429C15.6175 51.0611 14.5926 51.0611 13.9604 50.429L8.66677 45.1353L7.80834 45.9937C7.17621 46.6259 6.15132 46.6259 5.51918 45.9937L1.51316 41.9877C0.881029 41.3556 0.881029 40.3307 1.51316 39.6986L19.9706 21.2411C20.4579 20.7538 20.574 20.0142 20.3277 19.3706C18.4746 14.5275 19.4996 8.83564 23.4032 4.93201C28.6973 -0.362102 37.2808 -0.362102 42.5749 4.93201ZM36.2797 11.2272C34.4623 9.4098 31.5158 9.4098 29.6984 11.2272C27.881 13.0446 27.881 15.9911 29.6984 17.8085C31.5158 19.6259 34.4623 19.6259 36.2797 17.8085C38.0971 15.9911 38.0971 13.0446 36.2797 11.2272Z" fill="#154273"/>
</svg>
