<svg xmlns="http://www.w3.org/2000/svg" version="1.1" xmlns:xlink="http://www.w3.org/1999/xlink" width="1000" height="1000"><g clip-path="url(#SvgjsClipPath1040)"><rect width="1000" height="1000" fill="#154273"></rect><g transform="matrix(15.217391304347826,0,0,15.217391304347826,150,157.60869565217394)"><svg xmlns="http://www.w3.org/2000/svg" version="1.1" xmlns:xlink="http://www.w3.org/1999/xlink" width="46" height="45"><svg width="46" height="45" viewBox="0 0 46 45" fill="none" xmlns="http://www.w3.org/2000/svg">
<path d="M33.4266 31.4688C32.3697 32.526 30.9614 33.1584 29.469 33.2459C27.9766 33.3334 26.5041 32.8698 25.3309 31.9433L25.0591 31.7146L24.7988 31.4688L24.5529 31.2085C24.1215 30.7224 23.7807 30.1861 23.5305 29.6195L23.3594 29.1896L13.2936 29.1896L13.0405 29.1723C12.5927 29.1158 12.1763 28.9119 11.8572 28.5927C11.538 28.2735 11.3341 27.8572 11.2775 27.4094L11.2617 27.1548L11.2617 22.8409L11.2775 22.5864C11.3341 22.1386 11.538 21.7222 11.8572 21.4031C12.1763 21.0839 12.5926 20.88 13.0405 20.8234L13.295 20.8076L13.5495 20.8234C13.9974 20.88 14.4137 21.0839 14.7329 21.4031C15.0521 21.7222 15.256 22.1386 15.3125 22.5864L15.3283 22.8409L15.3297 25.1201L17.0122 25.1201L17.0136 22.8409L17.0294 22.5864C17.0917 22.0952 17.3309 21.6437 17.7023 21.3163C18.0738 20.989 18.5518 20.8084 19.0469 20.8084C19.542 20.8084 20.0201 20.989 20.3915 21.3163C20.7629 21.6437 21.0022 22.0952 21.0644 22.5864L21.0802 22.8409L21.0816 25.1201L23.3594 25.1201C23.6651 24.2573 24.161 23.4744 24.8105 22.8293C25.4599 22.1842 26.2461 21.6936 27.1109 21.3937C27.9758 21.0937 28.897 20.9923 29.8063 21.0968C30.7157 21.2013 31.5899 21.509 32.3641 21.9973C33.1384 22.4856 33.7928 23.1418 34.279 23.9173C34.7652 24.6929 35.0706 25.5679 35.1726 26.4776C35.2747 27.3872 35.1707 28.3081 34.8685 29.1722C34.5663 30.0362 34.0735 30.8211 33.4266 31.4688ZM30.5507 28.5928C30.9321 28.2114 31.1463 27.6942 31.1463 27.1548C31.1463 26.6155 30.9321 26.0982 30.5507 25.7169C30.1693 25.3355 29.6521 25.1212 29.1127 25.1212C28.5734 25.1212 28.0561 25.3355 27.6747 25.7169C27.2934 26.0982 27.0791 26.6155 27.0791 27.1548C27.0791 27.6942 27.2934 28.2114 27.6747 28.5928C28.0561 28.9742 28.5734 29.1884 29.1127 29.1884C29.6521 29.1884 30.1693 28.9742 30.5507 28.5928Z" fill="white"></path>
<path d="M12.5731 8.39013C13.63 7.33287 15.0383 6.70048 16.5307 6.613C18.0231 6.52553 19.4957 6.98906 20.6689 7.9156L20.9407 8.14424L21.2009 8.39013L21.4468 8.65041C21.8782 9.13644 22.219 9.6728 22.4692 10.2394L22.6404 10.6693L32.7062 10.6693L32.9592 10.6866C33.4071 10.7431 33.8234 10.947 34.1426 11.2662C34.4618 11.5854 34.6657 12.0017 34.7222 12.4495L34.738 12.7041L34.738 17.018L34.7222 17.2725C34.6657 17.7203 34.4618 18.1366 34.1426 18.4558C33.8234 18.775 33.4071 18.9789 32.9592 19.0355L32.7047 19.0513L32.4502 19.0355C32.0024 18.9789 31.5861 18.775 31.2669 18.4558C30.9477 18.1366 30.7438 17.7203 30.6872 17.2725L30.6714 17.018L30.67 14.7388L28.9876 14.7388L28.9861 17.018L28.9703 17.2725C28.9081 17.7636 28.6688 18.2152 28.2974 18.5426C27.926 18.8699 27.4479 19.0505 26.9528 19.0505C26.4578 19.0505 25.9797 18.8699 25.6083 18.5426C25.2368 18.2152 24.9976 17.7636 24.9354 17.2725L24.9195 17.018L24.9181 14.7388L22.6404 14.7388C22.3346 15.6016 21.8387 16.3845 21.1893 17.0296C20.5399 17.6747 19.7536 18.1653 18.8888 18.4652C18.024 18.7652 17.1028 18.8666 16.1934 18.7621C15.284 18.6576 14.4099 18.3499 13.6356 17.8616C12.8614 17.3733 12.2069 16.7171 11.7207 15.9415C11.2346 15.166 10.9291 14.291 10.8271 13.3813C10.725 12.4717 10.829 11.5507 11.1312 10.6867C11.4335 9.82273 11.9263 9.03781 12.5731 8.39013ZM15.449 11.2661C15.0677 11.6475 14.8534 12.1647 14.8534 12.7041C14.8534 13.2434 15.0677 13.7607 15.449 14.142C15.8304 14.5234 16.3477 14.7377 16.887 14.7377C17.4264 14.7377 17.9436 14.5234 18.325 14.142C18.7064 13.7607 18.9206 13.2434 18.9206 12.7041C18.9206 12.1647 18.7064 11.6475 18.325 11.2661C17.9436 10.8847 17.4264 10.6705 16.887 10.6705C16.3477 10.6705 15.8304 10.8847 15.449 11.2661Z" fill="white"></path>
<path d="M33.9739 2.72884C40.3036 5.24576 45.279 10.7018 43.7073 17.3297C39.726 34.1198 28.1774 42.5148 23 42.5148C17.8226 42.5148 6.27403 34.1198 2.29266 17.3297C0.720992 10.7018 5.69636 5.24576 12.0261 2.72884C18.3029 0.232963 27.6971 0.232963 33.9739 2.72884Z" stroke="white" stroke-linecap="round" stroke-linejoin="round"></path>
<ellipse cx="22.9993" cy="42.5144" rx="1.99928" ry="1.99928" fill="white"></ellipse>
<ellipse cx="44.0012" cy="13.7756" rx="1.99928" ry="1.99928" fill="white"></ellipse>
<ellipse cx="1.99928" cy="13.7756" rx="1.99928" ry="1.99928" fill="white"></ellipse>
</svg></svg></g></g><defs><clipPath id="SvgjsClipPath1040"><rect width="1000" height="1000" x="0" y="0" rx="500" ry="500"></rect></clipPath></defs></svg>