<svg width="981" height="308" viewBox="0 0 981 308" fill="none" xmlns="http://www.w3.org/2000/svg">
<path fill-rule="evenodd" clip-rule="evenodd" d="M256.391 338.575C278.482 338.575 296.391 320.666 296.391 298.575C296.391 276.483 278.482 258.575 256.391 258.575C234.299 258.575 216.391 276.483 216.391 298.575C216.391 320.666 234.299 338.575 256.391 338.575ZM256.391 346.575C282.9 346.575 304.391 325.084 304.391 298.575C304.391 272.065 282.9 250.575 256.391 250.575C229.881 250.575 208.391 272.065 208.391 298.575C208.391 325.084 229.881 346.575 256.391 346.575Z" fill="url(#paint0_linear_926_106)"/>
<path fill-rule="evenodd" clip-rule="evenodd" d="M48.3906 434.575C70.482 434.575 88.3906 416.666 88.3906 394.575C88.3906 372.483 70.482 354.575 48.3906 354.575C26.2992 354.575 8.39062 372.483 8.39062 394.575C8.39062 416.666 26.2992 434.575 48.3906 434.575ZM48.3906 442.575C74.9003 442.575 96.3906 421.084 96.3906 394.575C96.3906 368.065 74.9003 346.575 48.3906 346.575C21.881 346.575 0.390625 368.065 0.390625 394.575C0.390625 421.084 21.881 442.575 48.3906 442.575Z" fill="url(#paint1_linear_926_106)"/>
<path fill-rule="evenodd" clip-rule="evenodd" d="M96.3906 302.575C118.482 302.575 136.391 284.666 136.391 262.575C136.391 240.483 118.482 222.575 96.3906 222.575C74.2992 222.575 56.3906 240.483 56.3906 262.575C56.3906 284.666 74.2992 302.575 96.3906 302.575ZM96.3906 310.575C122.9 310.575 144.391 289.084 144.391 262.575C144.391 236.065 122.9 214.575 96.3906 214.575C69.881 214.575 48.3906 236.065 48.3906 262.575C48.3906 289.084 69.881 310.575 96.3906 310.575Z" fill="url(#paint2_linear_926_106)"/>
<path fill-rule="evenodd" clip-rule="evenodd" d="M372.567 276.575C394.659 276.575 412.567 258.666 412.567 236.575C412.567 214.483 394.659 196.575 372.567 196.575C350.476 196.575 332.567 214.483 332.567 236.575C332.567 258.666 350.476 276.575 372.567 276.575ZM372.567 284.575C399.077 284.575 420.567 263.084 420.567 236.575C420.567 210.065 399.077 188.575 372.567 188.575C346.058 188.575 324.567 210.065 324.567 236.575C324.567 263.084 346.058 284.575 372.567 284.575Z" fill="url(#paint3_linear_926_106)"/>
<path fill-rule="evenodd" clip-rule="evenodd" d="M292.391 88.5747C314.482 88.5747 332.391 70.6661 332.391 48.5747C332.391 26.4833 314.482 8.57471 292.391 8.57471C270.299 8.57471 252.391 26.4833 252.391 48.5747C252.391 70.6661 270.299 88.5747 292.391 88.5747ZM292.391 96.5747C318.9 96.5747 340.391 75.0844 340.391 48.5747C340.391 22.065 318.9 0.574707 292.391 0.574707C265.881 0.574707 244.391 22.065 244.391 48.5747C244.391 75.0844 265.881 96.5747 292.391 96.5747Z" fill="url(#paint4_linear_926_106)"/>
<path fill-rule="evenodd" clip-rule="evenodd" d="M244.391 206.575C266.482 206.575 284.391 188.666 284.391 166.575C284.391 144.483 266.482 126.575 244.391 126.575C222.299 126.575 204.391 144.483 204.391 166.575C204.391 188.666 222.299 206.575 244.391 206.575ZM244.391 214.575C270.9 214.575 292.391 193.084 292.391 166.575C292.391 140.065 270.9 118.575 244.391 118.575C217.881 118.575 196.391 140.065 196.391 166.575C196.391 193.084 217.881 214.575 244.391 214.575Z" fill="url(#paint5_linear_926_106)"/>
<path fill-rule="evenodd" clip-rule="evenodd" d="M80.3906 136.575C102.482 136.575 120.391 118.666 120.391 96.5747C120.391 74.4833 102.482 56.5747 80.3906 56.5747C58.2992 56.5747 40.3906 74.4833 40.3906 96.5747C40.3906 118.666 58.2992 136.575 80.3906 136.575ZM80.3906 144.575C106.9 144.575 128.391 123.084 128.391 96.5747C128.391 70.065 106.9 48.5747 80.3906 48.5747C53.881 48.5747 32.3906 70.065 32.3906 96.5747C32.3906 123.084 53.881 144.575 80.3906 144.575Z" fill="url(#paint6_linear_926_106)"/>
<path fill-rule="evenodd" clip-rule="evenodd" d="M436.391 136.575C458.482 136.575 476.391 118.666 476.391 96.5747C476.391 74.4833 458.482 56.5747 436.391 56.5747C414.299 56.5747 396.391 74.4833 396.391 96.5747C396.391 118.666 414.299 136.575 436.391 136.575ZM436.391 144.575C462.9 144.575 484.391 123.084 484.391 96.5747C484.391 70.065 462.9 48.5747 436.391 48.5747C409.881 48.5747 388.391 70.065 388.391 96.5747C388.391 123.084 409.881 144.575 436.391 144.575Z" fill="url(#paint7_linear_926_106)"/>
<path fill-rule="evenodd" clip-rule="evenodd" d="M340.391 445.394C362.482 445.394 380.391 427.485 380.391 405.394C380.391 383.302 362.482 365.394 340.391 365.394C318.299 365.394 300.391 383.302 300.391 405.394C300.391 427.485 318.299 445.394 340.391 445.394ZM340.391 453.394C366.9 453.394 388.391 431.903 388.391 405.394C388.391 378.884 366.9 357.394 340.391 357.394C313.881 357.394 292.391 378.884 292.391 405.394C292.391 431.903 313.881 453.394 340.391 453.394Z" fill="url(#paint8_linear_926_106)"/>
<path fill-rule="evenodd" clip-rule="evenodd" d="M176.391 464.575C198.482 464.575 216.391 446.666 216.391 424.575C216.391 402.483 198.482 384.575 176.391 384.575C154.299 384.575 136.391 402.483 136.391 424.575C136.391 446.666 154.299 464.575 176.391 464.575ZM176.391 472.575C202.9 472.575 224.391 451.084 224.391 424.575C224.391 398.065 202.9 376.575 176.391 376.575C149.881 376.575 128.391 398.065 128.391 424.575C128.391 451.084 149.881 472.575 176.391 472.575Z" fill="url(#paint9_linear_926_106)"/>
<path fill-rule="evenodd" clip-rule="evenodd" d="M450.653 372.575C472.745 372.575 490.653 354.666 490.653 332.575C490.653 310.483 472.745 292.575 450.653 292.575C428.562 292.575 410.653 310.483 410.653 332.575C410.653 354.666 428.562 372.575 450.653 372.575ZM450.653 380.575C477.163 380.575 498.653 359.084 498.653 332.575C498.653 306.065 477.163 284.575 450.653 284.575C424.144 284.575 402.653 306.065 402.653 332.575C402.653 359.084 424.144 380.575 450.653 380.575Z" fill="url(#paint10_linear_926_106)"/>
<path fill-rule="evenodd" clip-rule="evenodd" d="M594.653 368.575C616.745 368.575 634.653 350.666 634.653 328.575C634.653 306.483 616.745 288.575 594.653 288.575C572.562 288.575 554.653 306.483 554.653 328.575C554.653 350.666 572.562 368.575 594.653 368.575ZM594.653 376.575C621.163 376.575 642.653 355.084 642.653 328.575C642.653 302.065 621.163 280.575 594.653 280.575C568.144 280.575 546.653 302.065 546.653 328.575C546.653 355.084 568.144 376.575 594.653 376.575Z" fill="url(#paint11_linear_926_106)"/>
<path fill-rule="evenodd" clip-rule="evenodd" d="M738.653 349.394C760.745 349.394 778.653 331.485 778.653 309.394C778.653 287.302 760.745 269.394 738.653 269.394C716.562 269.394 698.653 287.302 698.653 309.394C698.653 331.485 716.562 349.394 738.653 349.394ZM738.653 357.394C765.163 357.394 786.653 335.903 786.653 309.394C786.653 282.884 765.163 261.394 738.653 261.394C712.144 261.394 690.653 282.884 690.653 309.394C690.653 335.903 712.144 357.394 738.653 357.394Z" fill="url(#paint12_linear_926_106)"/>
<path fill-rule="evenodd" clip-rule="evenodd" d="M932.916 314.575C955.007 314.575 972.916 296.666 972.916 274.575C972.916 252.483 955.007 234.575 932.916 234.575C910.825 234.575 892.916 252.483 892.916 274.575C892.916 296.666 910.825 314.575 932.916 314.575ZM932.916 322.575C959.426 322.575 980.916 301.084 980.916 274.575C980.916 248.065 959.426 226.575 932.916 226.575C906.406 226.575 884.916 248.065 884.916 274.575C884.916 301.084 906.406 322.575 932.916 322.575Z" fill="url(#paint13_linear_926_106)"/>
<path fill-rule="evenodd" clip-rule="evenodd" d="M510.653 254.575C532.745 254.575 550.653 236.666 550.653 214.575C550.653 192.483 532.745 174.575 510.653 174.575C488.562 174.575 470.653 192.483 470.653 214.575C470.653 236.666 488.562 254.575 510.653 254.575ZM510.653 262.575C537.163 262.575 558.653 241.084 558.653 214.575C558.653 188.065 537.163 166.575 510.653 166.575C484.144 166.575 462.653 188.065 462.653 214.575C462.653 241.084 484.144 262.575 510.653 262.575Z" fill="url(#paint14_linear_926_106)"/>
<path fill-rule="evenodd" clip-rule="evenodd" d="M582.653 110.575C604.745 110.575 622.653 92.6661 622.653 70.5747C622.653 48.4833 604.745 30.5747 582.653 30.5747C560.562 30.5747 542.653 48.4833 542.653 70.5747C542.653 92.6661 560.562 110.575 582.653 110.575ZM582.653 118.575C609.163 118.575 630.653 97.0844 630.653 70.5747C630.653 44.065 609.163 22.5747 582.653 22.5747C556.144 22.5747 534.653 44.065 534.653 70.5747C534.653 97.0844 556.144 118.575 582.653 118.575Z" fill="url(#paint15_linear_926_106)"/>
<path fill-rule="evenodd" clip-rule="evenodd" d="M648.739 228.575C670.831 228.575 688.739 210.666 688.739 188.575C688.739 166.483 670.831 148.575 648.739 148.575C626.648 148.575 608.739 166.483 608.739 188.575C608.739 210.666 626.648 228.575 648.739 228.575ZM648.739 236.575C675.249 236.575 696.739 215.084 696.739 188.575C696.739 162.065 675.249 140.575 648.739 140.575C622.23 140.575 600.739 162.065 600.739 188.575C600.739 215.084 622.23 236.575 648.739 236.575Z" fill="url(#paint16_linear_926_106)"/>
<path fill-rule="evenodd" clip-rule="evenodd" d="M764.739 110.575C786.831 110.575 804.739 92.6661 804.739 70.5747C804.739 48.4833 786.831 30.5747 764.739 30.5747C742.648 30.5747 724.739 48.4833 724.739 70.5747C724.739 92.6661 742.648 110.575 764.739 110.575ZM764.739 118.575C791.249 118.575 812.739 97.0844 812.739 70.5747C812.739 44.065 791.249 22.5747 764.739 22.5747C738.23 22.5747 716.739 44.065 716.739 70.5747C716.739 97.0844 738.23 118.575 764.739 118.575Z" fill="url(#paint17_linear_926_106)"/>
<path fill-rule="evenodd" clip-rule="evenodd" d="M796.739 218.575C818.831 218.575 836.739 200.666 836.739 178.575C836.739 156.483 818.831 138.575 796.739 138.575C774.648 138.575 756.739 156.483 756.739 178.575C756.739 200.666 774.648 218.575 796.739 218.575ZM796.739 226.575C823.249 226.575 844.739 205.084 844.739 178.575C844.739 152.065 823.249 130.575 796.739 130.575C770.23 130.575 748.739 152.065 748.739 178.575C748.739 205.084 770.23 226.575 796.739 226.575Z" fill="url(#paint18_linear_926_106)"/>
<path fill-rule="evenodd" clip-rule="evenodd" d="M546.653 482.575C568.745 482.575 586.653 464.666 586.653 442.575C586.653 420.483 568.745 402.575 546.653 402.575C524.562 402.575 506.653 420.483 506.653 442.575C506.653 464.666 524.562 482.575 546.653 482.575ZM546.653 490.575C573.163 490.575 594.653 469.084 594.653 442.575C594.653 416.065 573.163 394.575 546.653 394.575C520.144 394.575 498.653 416.065 498.653 442.575C498.653 469.084 520.144 490.575 546.653 490.575Z" fill="url(#paint19_linear_926_106)"/>
<path fill-rule="evenodd" clip-rule="evenodd" d="M620.653 633.394C642.745 633.394 660.653 615.485 660.653 593.394C660.653 571.302 642.745 553.394 620.653 553.394C598.562 553.394 580.653 571.302 580.653 593.394C580.653 615.485 598.562 633.394 620.653 633.394ZM620.653 641.394C647.163 641.394 668.653 619.903 668.653 593.394C668.653 566.884 647.163 545.394 620.653 545.394C594.144 545.394 572.653 566.884 572.653 593.394C572.653 619.903 594.144 641.394 620.653 641.394Z" fill="url(#paint20_linear_926_106)"/>
<path fill-rule="evenodd" clip-rule="evenodd" d="M696.739 493.394C718.831 493.394 736.739 475.485 736.739 453.394C736.739 431.302 718.831 413.394 696.739 413.394C674.648 413.394 656.739 431.302 656.739 453.394C656.739 475.485 674.648 493.394 696.739 493.394ZM696.739 501.394C723.249 501.394 744.739 479.903 744.739 453.394C744.739 426.884 723.249 405.394 696.739 405.394C670.23 405.394 648.739 426.884 648.739 453.394C648.739 479.903 670.23 501.394 696.739 501.394Z" fill="url(#paint21_linear_926_106)"/>
<path fill-rule="evenodd" clip-rule="evenodd" d="M860.739 434.575C882.831 434.575 900.739 416.666 900.739 394.575C900.739 372.483 882.831 354.575 860.739 354.575C838.648 354.575 820.739 372.483 820.739 394.575C820.739 416.666 838.648 434.575 860.739 434.575ZM860.739 442.575C887.249 442.575 908.739 421.084 908.739 394.575C908.739 368.065 887.249 346.575 860.739 346.575C834.23 346.575 812.739 368.065 812.739 394.575C812.739 421.084 834.23 442.575 860.739 442.575Z" fill="url(#paint22_linear_926_106)"/>
<path fill-rule="evenodd" clip-rule="evenodd" d="M414.653 541.394C436.745 541.394 454.653 523.485 454.653 501.394C454.653 479.302 436.745 461.394 414.653 461.394C392.562 461.394 374.653 479.302 374.653 501.394C374.653 523.485 392.562 541.394 414.653 541.394ZM414.653 549.394C441.163 549.394 462.653 527.903 462.653 501.394C462.653 474.884 441.163 453.394 414.653 453.394C388.144 453.394 366.653 474.884 366.653 501.394C366.653 527.903 388.144 549.394 414.653 549.394Z" fill="url(#paint23_linear_926_106)"/>
<path fill-rule="evenodd" clip-rule="evenodd" d="M92.1179 220.265L83.68 139.051L91.6372 138.224L100.075 219.438L92.1179 220.265Z" fill="url(#paint24_linear_926_106)"/>
<path fill-rule="evenodd" clip-rule="evenodd" d="M153.128 385.686L115.128 298.575L122.46 295.376L160.46 382.487L153.128 385.686Z" fill="url(#paint25_linear_926_106)"/>
<path fill-rule="evenodd" clip-rule="evenodd" d="M208.391 188.575L138.816 246.661L133.689 240.52L203.264 182.434L208.391 188.575Z" fill="url(#paint26_linear_926_106)"/>
<path fill-rule="evenodd" clip-rule="evenodd" d="M419.078 363.271L382.711 393.633L377.583 387.492L413.951 357.13L419.078 363.271Z" fill="url(#paint27_linear_926_106)"/>
<path fill-rule="evenodd" clip-rule="evenodd" d="M251.628 207.575L256.391 250.575L248.439 251.455L243.676 208.455L251.628 207.575Z" fill="url(#paint28_linear_926_106)"/>
<path fill-rule="evenodd" clip-rule="evenodd" d="M830.628 205.075L896.128 250.575L891.564 257.145L826.064 211.645L830.628 205.075Z" fill="url(#paint29_linear_926_106)"/>
<path fill-rule="evenodd" clip-rule="evenodd" d="M510.653 472.575L458.638 492.878L455.729 485.426L507.744 465.122L510.653 472.575Z" fill="url(#paint30_linear_926_106)"/>
<path fill-rule="evenodd" clip-rule="evenodd" d="M673.777 490.796L641.884 556.14L634.695 552.632L666.587 487.287L673.777 490.796Z" fill="url(#paint31_linear_926_106)"/>
<path fill-rule="evenodd" clip-rule="evenodd" d="M635.653 229.075L607.221 287.329L600.032 283.82L628.464 225.566L635.653 229.075Z" fill="url(#paint32_linear_926_106)"/>
<path fill-rule="evenodd" clip-rule="evenodd" d="M731.128 104.103L678.128 157.686L672.44 152.06L725.44 98.4767L731.128 104.103Z" fill="url(#paint33_linear_926_106)"/>
<path fill-rule="evenodd" clip-rule="evenodd" d="M582.653 369.686L572.653 405.394L564.95 403.236L574.95 367.529L582.653 369.686Z" fill="url(#paint34_linear_926_106)"/>
<path fill-rule="evenodd" clip-rule="evenodd" d="M91.2072 305.943L72.5367 357.245L65.019 354.509L83.6896 303.207L91.2072 305.943Z" fill="url(#paint35_linear_926_106)"/>
<path fill-rule="evenodd" clip-rule="evenodd" d="M239.128 335.665L202.083 388.299L195.541 383.694L232.585 331.061L239.128 335.665Z" fill="url(#paint36_linear_926_106)"/>
<path fill-rule="evenodd" clip-rule="evenodd" d="M256.39 122.519L271.128 85.686L278.555 88.6578L263.818 125.491L256.39 122.519Z" fill="url(#paint37_linear_926_106)"/>
<path fill-rule="evenodd" clip-rule="evenodd" d="M387.916 196.991L417.639 136.533L424.818 140.062L395.095 200.521L387.916 196.991Z" fill="url(#paint38_linear_926_106)"/>
<path fill-rule="evenodd" clip-rule="evenodd" d="M414.653 236.575L462.653 219.575L465.324 227.116L417.324 244.116L414.653 236.575Z" fill="url(#paint39_linear_926_106)"/>
<path fill-rule="evenodd" clip-rule="evenodd" d="M690.653 188.575H755.128V196.575H690.653V188.575Z" fill="url(#paint40_linear_926_106)"/>
<path fill-rule="evenodd" clip-rule="evenodd" d="M476.407 363.988L518.128 414.686L511.951 419.769L470.23 369.072L476.407 363.988Z" fill="url(#paint41_linear_926_106)"/>
<path fill-rule="evenodd" clip-rule="evenodd" d="M588.002 453.394H656.891V461.394H588.002V453.394Z" fill="url(#paint42_linear_926_106)"/>
<path fill-rule="evenodd" clip-rule="evenodd" d="M522.587 175.455L557.904 109.793L564.95 113.582L529.632 179.244L522.587 175.455Z" fill="url(#paint43_linear_926_106)"/>
<path fill-rule="evenodd" clip-rule="evenodd" d="M468.742 292.255L486.812 250.575L494.152 253.757L476.082 295.438L468.742 292.255Z" fill="url(#paint44_linear_926_106)"/>
<path fill-rule="evenodd" clip-rule="evenodd" d="M326.473 223.97L280.847 194.584L285.179 187.858L330.805 217.244L326.473 223.97Z" fill="url(#paint45_linear_926_106)"/>
<path fill-rule="evenodd" clip-rule="evenodd" d="M696.739 322.575L639.881 340.047L637.531 332.399L694.389 314.928L696.739 322.575Z" fill="url(#paint46_linear_926_106)"/>
<path fill-rule="evenodd" clip-rule="evenodd" d="M719.89 272.587L678.89 224.575L684.974 219.38L725.974 267.392L719.89 272.587Z" fill="url(#paint47_linear_926_106)"/>
<path fill-rule="evenodd" clip-rule="evenodd" d="M562.654 297.391L528.153 255.976L534.299 250.855L568.801 292.27L562.654 297.391Z" fill="url(#paint48_linear_926_106)"/>
<path fill-rule="evenodd" clip-rule="evenodd" d="M824.128 369.686L777.128 335.665L781.819 329.185L828.819 363.206L824.128 369.686Z" fill="url(#paint49_linear_926_106)"/>
<path fill-rule="evenodd" clip-rule="evenodd" d="M314.643 371.682L283.16 336.386L289.13 331.061L320.613 366.356L314.643 371.682Z" fill="url(#paint50_linear_926_106)"/>
<path fill-rule="evenodd" clip-rule="evenodd" d="M393.024 462.504L370.36 437.096L376.331 431.77L398.994 457.179L393.024 462.504Z" fill="url(#paint51_linear_926_106)"/>
<defs>
<linearGradient id="paint0_linear_926_106" x1="0.390625" y1="320.984" x2="980.916" y2="320.984" gradientUnits="userSpaceOnUse">
<stop stop-color="#F9E11E"/>
<stop offset="1" stop-color="#938512"/>
</linearGradient>
<linearGradient id="paint1_linear_926_106" x1="0.390625" y1="320.984" x2="980.916" y2="320.984" gradientUnits="userSpaceOnUse">
<stop stop-color="#F9E11E"/>
<stop offset="1" stop-color="#938512"/>
</linearGradient>
<linearGradient id="paint2_linear_926_106" x1="0.390625" y1="320.984" x2="980.916" y2="320.984" gradientUnits="userSpaceOnUse">
<stop stop-color="#F9E11E"/>
<stop offset="1" stop-color="#938512"/>
</linearGradient>
<linearGradient id="paint3_linear_926_106" x1="0.390625" y1="320.984" x2="980.916" y2="320.984" gradientUnits="userSpaceOnUse">
<stop stop-color="#F9E11E"/>
<stop offset="1" stop-color="#938512"/>
</linearGradient>
<linearGradient id="paint4_linear_926_106" x1="0.390625" y1="320.984" x2="980.916" y2="320.984" gradientUnits="userSpaceOnUse">
<stop stop-color="#F9E11E"/>
<stop offset="1" stop-color="#938512"/>
</linearGradient>
<linearGradient id="paint5_linear_926_106" x1="0.390625" y1="320.984" x2="980.916" y2="320.984" gradientUnits="userSpaceOnUse">
<stop stop-color="#F9E11E"/>
<stop offset="1" stop-color="#938512"/>
</linearGradient>
<linearGradient id="paint6_linear_926_106" x1="0.390625" y1="320.984" x2="980.916" y2="320.984" gradientUnits="userSpaceOnUse">
<stop stop-color="#F9E11E"/>
<stop offset="1" stop-color="#938512"/>
</linearGradient>
<linearGradient id="paint7_linear_926_106" x1="0.390625" y1="320.984" x2="980.916" y2="320.984" gradientUnits="userSpaceOnUse">
<stop stop-color="#F9E11E"/>
<stop offset="1" stop-color="#938512"/>
</linearGradient>
<linearGradient id="paint8_linear_926_106" x1="0.390625" y1="320.984" x2="980.916" y2="320.984" gradientUnits="userSpaceOnUse">
<stop stop-color="#F9E11E"/>
<stop offset="1" stop-color="#938512"/>
</linearGradient>
<linearGradient id="paint9_linear_926_106" x1="0.390625" y1="320.984" x2="980.916" y2="320.984" gradientUnits="userSpaceOnUse">
<stop stop-color="#F9E11E"/>
<stop offset="1" stop-color="#938512"/>
</linearGradient>
<linearGradient id="paint10_linear_926_106" x1="0.390625" y1="320.984" x2="980.916" y2="320.984" gradientUnits="userSpaceOnUse">
<stop stop-color="#F9E11E"/>
<stop offset="1" stop-color="#938512"/>
</linearGradient>
<linearGradient id="paint11_linear_926_106" x1="0.390625" y1="320.984" x2="980.916" y2="320.984" gradientUnits="userSpaceOnUse">
<stop stop-color="#F9E11E"/>
<stop offset="1" stop-color="#938512"/>
</linearGradient>
<linearGradient id="paint12_linear_926_106" x1="0.390625" y1="320.984" x2="980.916" y2="320.984" gradientUnits="userSpaceOnUse">
<stop stop-color="#F9E11E"/>
<stop offset="1" stop-color="#938512"/>
</linearGradient>
<linearGradient id="paint13_linear_926_106" x1="0.390625" y1="320.984" x2="980.916" y2="320.984" gradientUnits="userSpaceOnUse">
<stop stop-color="#F9E11E"/>
<stop offset="1" stop-color="#938512"/>
</linearGradient>
<linearGradient id="paint14_linear_926_106" x1="0.390625" y1="320.984" x2="980.916" y2="320.984" gradientUnits="userSpaceOnUse">
<stop stop-color="#F9E11E"/>
<stop offset="1" stop-color="#938512"/>
</linearGradient>
<linearGradient id="paint15_linear_926_106" x1="0.390625" y1="320.984" x2="980.916" y2="320.984" gradientUnits="userSpaceOnUse">
<stop stop-color="#F9E11E"/>
<stop offset="1" stop-color="#938512"/>
</linearGradient>
<linearGradient id="paint16_linear_926_106" x1="0.390625" y1="320.984" x2="980.916" y2="320.984" gradientUnits="userSpaceOnUse">
<stop stop-color="#F9E11E"/>
<stop offset="1" stop-color="#938512"/>
</linearGradient>
<linearGradient id="paint17_linear_926_106" x1="0.390625" y1="320.984" x2="980.916" y2="320.984" gradientUnits="userSpaceOnUse">
<stop stop-color="#F9E11E"/>
<stop offset="1" stop-color="#938512"/>
</linearGradient>
<linearGradient id="paint18_linear_926_106" x1="0.390625" y1="320.984" x2="980.916" y2="320.984" gradientUnits="userSpaceOnUse">
<stop stop-color="#F9E11E"/>
<stop offset="1" stop-color="#938512"/>
</linearGradient>
<linearGradient id="paint19_linear_926_106" x1="0.390625" y1="320.984" x2="980.916" y2="320.984" gradientUnits="userSpaceOnUse">
<stop stop-color="#F9E11E"/>
<stop offset="1" stop-color="#938512"/>
</linearGradient>
<linearGradient id="paint20_linear_926_106" x1="0.390625" y1="320.984" x2="980.916" y2="320.984" gradientUnits="userSpaceOnUse">
<stop stop-color="#F9E11E"/>
<stop offset="1" stop-color="#938512"/>
</linearGradient>
<linearGradient id="paint21_linear_926_106" x1="0.390625" y1="320.984" x2="980.916" y2="320.984" gradientUnits="userSpaceOnUse">
<stop stop-color="#F9E11E"/>
<stop offset="1" stop-color="#938512"/>
</linearGradient>
<linearGradient id="paint22_linear_926_106" x1="0.390625" y1="320.984" x2="980.916" y2="320.984" gradientUnits="userSpaceOnUse">
<stop stop-color="#F9E11E"/>
<stop offset="1" stop-color="#938512"/>
</linearGradient>
<linearGradient id="paint23_linear_926_106" x1="0.390625" y1="320.984" x2="980.916" y2="320.984" gradientUnits="userSpaceOnUse">
<stop stop-color="#F9E11E"/>
<stop offset="1" stop-color="#938512"/>
</linearGradient>
<linearGradient id="paint24_linear_926_106" x1="0.390625" y1="320.984" x2="980.916" y2="320.984" gradientUnits="userSpaceOnUse">
<stop stop-color="#F9E11E"/>
<stop offset="1" stop-color="#938512"/>
</linearGradient>
<linearGradient id="paint25_linear_926_106" x1="0.390625" y1="320.984" x2="980.916" y2="320.984" gradientUnits="userSpaceOnUse">
<stop stop-color="#F9E11E"/>
<stop offset="1" stop-color="#938512"/>
</linearGradient>
<linearGradient id="paint26_linear_926_106" x1="0.390625" y1="320.984" x2="980.916" y2="320.984" gradientUnits="userSpaceOnUse">
<stop stop-color="#F9E11E"/>
<stop offset="1" stop-color="#938512"/>
</linearGradient>
<linearGradient id="paint27_linear_926_106" x1="0.390625" y1="320.984" x2="980.916" y2="320.984" gradientUnits="userSpaceOnUse">
<stop stop-color="#F9E11E"/>
<stop offset="1" stop-color="#938512"/>
</linearGradient>
<linearGradient id="paint28_linear_926_106" x1="0.390625" y1="320.984" x2="980.916" y2="320.984" gradientUnits="userSpaceOnUse">
<stop stop-color="#F9E11E"/>
<stop offset="1" stop-color="#938512"/>
</linearGradient>
<linearGradient id="paint29_linear_926_106" x1="0.390625" y1="320.984" x2="980.916" y2="320.984" gradientUnits="userSpaceOnUse">
<stop stop-color="#F9E11E"/>
<stop offset="1" stop-color="#938512"/>
</linearGradient>
<linearGradient id="paint30_linear_926_106" x1="0.390625" y1="320.984" x2="980.916" y2="320.984" gradientUnits="userSpaceOnUse">
<stop stop-color="#F9E11E"/>
<stop offset="1" stop-color="#938512"/>
</linearGradient>
<linearGradient id="paint31_linear_926_106" x1="0.390625" y1="320.984" x2="980.916" y2="320.984" gradientUnits="userSpaceOnUse">
<stop stop-color="#F9E11E"/>
<stop offset="1" stop-color="#938512"/>
</linearGradient>
<linearGradient id="paint32_linear_926_106" x1="0.390625" y1="320.984" x2="980.916" y2="320.984" gradientUnits="userSpaceOnUse">
<stop stop-color="#F9E11E"/>
<stop offset="1" stop-color="#938512"/>
</linearGradient>
<linearGradient id="paint33_linear_926_106" x1="0.390625" y1="320.984" x2="980.916" y2="320.984" gradientUnits="userSpaceOnUse">
<stop stop-color="#F9E11E"/>
<stop offset="1" stop-color="#938512"/>
</linearGradient>
<linearGradient id="paint34_linear_926_106" x1="0.390625" y1="320.984" x2="980.916" y2="320.984" gradientUnits="userSpaceOnUse">
<stop stop-color="#F9E11E"/>
<stop offset="1" stop-color="#938512"/>
</linearGradient>
<linearGradient id="paint35_linear_926_106" x1="0.390625" y1="320.984" x2="980.916" y2="320.984" gradientUnits="userSpaceOnUse">
<stop stop-color="#F9E11E"/>
<stop offset="1" stop-color="#938512"/>
</linearGradient>
<linearGradient id="paint36_linear_926_106" x1="0.390625" y1="320.984" x2="980.916" y2="320.984" gradientUnits="userSpaceOnUse">
<stop stop-color="#F9E11E"/>
<stop offset="1" stop-color="#938512"/>
</linearGradient>
<linearGradient id="paint37_linear_926_106" x1="0.390625" y1="320.984" x2="980.916" y2="320.984" gradientUnits="userSpaceOnUse">
<stop stop-color="#F9E11E"/>
<stop offset="1" stop-color="#938512"/>
</linearGradient>
<linearGradient id="paint38_linear_926_106" x1="0.390625" y1="320.984" x2="980.916" y2="320.984" gradientUnits="userSpaceOnUse">
<stop stop-color="#F9E11E"/>
<stop offset="1" stop-color="#938512"/>
</linearGradient>
<linearGradient id="paint39_linear_926_106" x1="0.390625" y1="320.984" x2="980.916" y2="320.984" gradientUnits="userSpaceOnUse">
<stop stop-color="#F9E11E"/>
<stop offset="1" stop-color="#938512"/>
</linearGradient>
<linearGradient id="paint40_linear_926_106" x1="0.390625" y1="320.984" x2="980.916" y2="320.984" gradientUnits="userSpaceOnUse">
<stop stop-color="#F9E11E"/>
<stop offset="1" stop-color="#938512"/>
</linearGradient>
<linearGradient id="paint41_linear_926_106" x1="0.390625" y1="320.984" x2="980.916" y2="320.984" gradientUnits="userSpaceOnUse">
<stop stop-color="#F9E11E"/>
<stop offset="1" stop-color="#938512"/>
</linearGradient>
<linearGradient id="paint42_linear_926_106" x1="0.390625" y1="320.984" x2="980.916" y2="320.984" gradientUnits="userSpaceOnUse">
<stop stop-color="#F9E11E"/>
<stop offset="1" stop-color="#938512"/>
</linearGradient>
<linearGradient id="paint43_linear_926_106" x1="0.390625" y1="320.984" x2="980.916" y2="320.984" gradientUnits="userSpaceOnUse">
<stop stop-color="#F9E11E"/>
<stop offset="1" stop-color="#938512"/>
</linearGradient>
<linearGradient id="paint44_linear_926_106" x1="0.390625" y1="320.984" x2="980.916" y2="320.984" gradientUnits="userSpaceOnUse">
<stop stop-color="#F9E11E"/>
<stop offset="1" stop-color="#938512"/>
</linearGradient>
<linearGradient id="paint45_linear_926_106" x1="0.390625" y1="320.984" x2="980.916" y2="320.984" gradientUnits="userSpaceOnUse">
<stop stop-color="#F9E11E"/>
<stop offset="1" stop-color="#938512"/>
</linearGradient>
<linearGradient id="paint46_linear_926_106" x1="0.390625" y1="320.984" x2="980.916" y2="320.984" gradientUnits="userSpaceOnUse">
<stop stop-color="#F9E11E"/>
<stop offset="1" stop-color="#938512"/>
</linearGradient>
<linearGradient id="paint47_linear_926_106" x1="0.390625" y1="320.984" x2="980.916" y2="320.984" gradientUnits="userSpaceOnUse">
<stop stop-color="#F9E11E"/>
<stop offset="1" stop-color="#938512"/>
</linearGradient>
<linearGradient id="paint48_linear_926_106" x1="0.390625" y1="320.984" x2="980.916" y2="320.984" gradientUnits="userSpaceOnUse">
<stop stop-color="#F9E11E"/>
<stop offset="1" stop-color="#938512"/>
</linearGradient>
<linearGradient id="paint49_linear_926_106" x1="0.390625" y1="320.984" x2="980.916" y2="320.984" gradientUnits="userSpaceOnUse">
<stop stop-color="#F9E11E"/>
<stop offset="1" stop-color="#938512"/>
</linearGradient>
<linearGradient id="paint50_linear_926_106" x1="0.390625" y1="320.984" x2="980.916" y2="320.984" gradientUnits="userSpaceOnUse">
<stop stop-color="#F9E11E"/>
<stop offset="1" stop-color="#938512"/>
</linearGradient>
<linearGradient id="paint51_linear_926_106" x1="0.390625" y1="320.984" x2="980.916" y2="320.984" gradientUnits="userSpaceOnUse">
<stop stop-color="#F9E11E"/>
<stop offset="1" stop-color="#938512"/>
</linearGradient>
</defs>
</svg>
