<svg width="96" height="97" viewBox="0 0 96 97" fill="none" xmlns="http://www.w3.org/2000/svg">
<path fill-rule="evenodd" clip-rule="evenodd" d="M20.2105 10.7913C18.8705 10.7913 17.5853 11.3236 16.6378 12.2712C15.6902 13.2187 15.1579 14.5039 15.1579 15.8439V46.1597C15.1579 48.9502 12.8958 51.2123 10.1053 51.2123C7.31477 51.2123 5.05263 48.9502 5.05263 46.1597V15.8439C5.05263 11.8238 6.64962 7.96834 9.49228 5.12568C12.3349 2.28302 16.1904 0.686035 20.2105 0.686035H80.8421C84.8622 0.686035 88.7177 2.28302 91.5604 5.12568C94.403 7.96833 96 11.8238 96 15.8439V76.4755C96 80.4956 94.403 84.3511 91.5604 87.1938C88.7177 90.0364 84.8622 91.6334 80.8421 91.6334H50.5263C47.7358 91.6334 45.4737 89.3713 45.4737 86.5808C45.4737 83.7903 47.7358 81.5281 50.5263 81.5281H80.8421C82.1821 81.5281 83.4673 80.9958 84.4149 80.0483C85.3624 79.1007 85.8947 77.8155 85.8947 76.4755V15.8439C85.8947 14.5039 85.3624 13.2187 84.4149 12.2712C83.4673 11.3236 82.1821 10.7913 80.8421 10.7913H20.2105ZM50.5263 31.0018C47.7358 31.0018 45.4737 28.7397 45.4737 25.9492C45.4737 23.1587 47.7358 20.8966 50.5263 20.8966H70.7368C73.5273 20.8966 75.7895 23.1587 75.7895 25.9492V46.1597C75.7895 48.9502 73.5273 51.2123 70.7368 51.2123C67.9463 51.2123 65.6842 48.9502 65.6842 46.1597V38.1473L49.0464 54.7851C47.0733 56.7583 43.8741 56.7583 41.9009 54.7851C39.9278 52.8119 39.9278 49.6128 41.9009 47.6396L58.5387 31.0018H50.5263ZM2.95976 64.2774C4.85487 62.3823 7.42519 61.3176 10.1053 61.3176H25.2632C27.9432 61.3176 30.5135 62.3823 32.4087 64.2774C34.3038 66.1725 35.3684 68.7428 35.3684 71.4229V86.5808C35.3684 89.2608 34.3038 91.8312 32.4087 93.7263C30.5135 95.6214 27.9432 96.686 25.2632 96.686H10.1053C7.42519 96.686 4.85487 95.6214 2.95976 93.7263C1.06465 91.8312 0 89.2608 0 86.5808V71.4229C0 68.7428 1.06465 66.1725 2.95976 64.2774ZM25.2632 71.4229L10.1053 71.4229V86.5808H25.2632V71.4229Z" fill="#B8C6D5"/>
</svg>
