<?xml version="1.0" encoding="UTF-8"?>
<svg id="Laag_1" xmlns="http://www.w3.org/2000/svg" version="1.1" viewBox="0 0 330 317">
  <!-- Generator: Adobe Illustrator 29.8.1, SVG Export Plug-In . SVG Version: 2.1.1 Build 2)  -->
  <defs>
    <style>
      .st0, .st1 {
        fill: none;
      }

      .st1 {
        stroke: #fff;
        stroke-linecap: round;
        stroke-linejoin: round;
        stroke-width: 2px;
      }
    </style>
  </defs>
  <path class="st0" d=""/>
  <g>
    <g>
      <path class="st0" d="M165,55.5c-88.4.3-132.8,28-133.1,83.1" pointer-events="stroke"/>
      <path class="st0" d="M27.9,132.7l4,8,4-8" pointer-events="all"/>
      <path class="st1" d="M165,55.5c-91.8,0-134.9,27.9-133.1,83.1M165,55.5c-87.5,1.6-131.8,28.5-133.1,83.1" pointer-events="stroke"/>
      <path class="st1" d="M27.9,132.7c.8,2.1,2.2,3.9,4,8M27.9,132.7c.7,2.8,1.9,5.5,4,8M31.9,140.8c-.2-3.9,3.7-3.9,4-8M31.9,140.8c1.7-3,2.4-4.6,4-8" pointer-events="all"/>
    </g>
    <g>
      <path class="st0" d="M69,193.5c88.4-.3,132.8-28,133.1-83.1" pointer-events="stroke"/>
      <path class="st0" d="M206.1,116.2l-4-8-4,8" pointer-events="all"/>
      <path class="st1" d="M69,193.5c91.8,0,134.9-27.9,133.1-83.1M69,193.5c87.5-1.6,131.8-28.5,133.1-83.1" pointer-events="stroke"/>
      <path class="st1" d="M206.1,116.2c-.8-2.1-2.2-3.9-4-8M206.1,116.2c-.7-2.8-1.9-5.5-4-8M202.2,108.2c.2,3.9-3.7,3.9-4,8M202.2,108.2c-1.7,3-2.4,4.6-4,8" pointer-events="all"/>
    </g>
    <g>
      <path class="st0" d="M1.5,228.5c93.7.3,140.3,28.8,140,85.5" pointer-events="stroke"/>
      <path class="st0" d="M137.6,308.2l3.9,8,4.1-8" pointer-events="all"/>
      <path class="st1" d="M1.5,228.5c90.3.6,143,26.5,140,85.5M1.5,228.5c92.2-3.8,139.4,32.6,140,85.5" pointer-events="stroke"/>
      <path class="st1" d="M137.6,308.2c-.2,1.1.1,3.1,3.9,8M137.6,308.2c2.1,3.5,3.2,6.1,3.9,8M141.5,316.3c3.2-2.3,2.7-7.4,4.1-8M141.5,316.3c.9-1.3,2.2-4.6,4.1-8" pointer-events="all"/>
    </g>
    <g>
      <path class="st0" d="M271.5,8.5l-.3,77.4" pointer-events="stroke"/>
      <path class="st0" d="M267.3,80.1l4,8,4-8" pointer-events="all"/>
      <path class="st1" d="M271.5,8.5c1.6,19.3,3.7,37.3-.3,77.4M271.5,8.5c-1.6,27.1-.3,52-.3,77.4" pointer-events="stroke"/>
      <path class="st1" d="M267.3,80.1c1.4,3,3.2,5.2,4,8M267.3,80.1c.5,3.5,2.4,6,4,8M271.2,88.1c2-.9,2.4-3.8,4-8M271.2,88.1c1.4-1.2,2.3-2.8,4-8" pointer-events="all"/>
    </g>
    <g>
      <path class="st0" d="M205.5,184.5h111.5" pointer-events="stroke"/>
      <path class="st0" d="M311.3,188.5l8-4-8-4" pointer-events="all"/>
      <path class="st1" d="M205.5,184.5c22.9-.1,46.8,1.5,111.5,0M205.5,184.5c44.9-1.2,89.9,1,111.5,0" pointer-events="stroke"/>
      <path class="st1" d="M311.3,188.5c1.1-.7,2.8-.8,8-4M311.3,188.5c3.4-2.3,6.8-3,8-4M319.3,184.5c-1.5-1.6-5.3-1.2-8-4M319.3,184.5c-3.3-1.2-5.5-2.8-8-4" pointer-events="all"/>
    </g>
  </g>
  <path class="st0" d=""/>
</svg>