<?xml version="1.0" encoding="UTF-8"?>
<svg id="Laag_1" xmlns="http://www.w3.org/2000/svg" version="1.1" viewBox="0 0 182.2 183.9">
  <!-- Generator: Adobe Illustrator 29.8.1, SVG Export Plug-In . SVG Version: 2.1.1 Build 2)  -->
  <defs>
    <style>
      .st0 {
        fill: none;
      }

      .st1 {
        fill: #d52b1e;
      }

      .st2 {
        fill-rule: evenodd;
      }

      .st2, .st3 {
        fill: #fff;
      }

      .st4 {
        fill: #76d2b6;
      }

      .st5 {
        fill: #e17000;
      }

      .st6 {
        fill: #8fcae7;
      }
    </style>
  </defs>
  <path class="st0" d="M80.5,172.1c-.7,3.3-1.6,5.7-2.6,7.4,1.6-2,2.6-4.6,2.6-7.4Z"/>
  <path class="st0" d="M.5,172.1c0,6.6,5.4,12,12,12-10.2-4.8-9.2-8.1-12-12Z"/>
  <path class="st0" d="M12.5,184.1h56c-13.4-1.2-21-2.8-56,0Z"/>
  <path class="st0" d="M.5,116.1c1.3-2.8,2.1-5.5,2.8-7.6-1.7,2.1-2.8,4.7-2.8,7.6Z"/>
  <path class="st0" d="M69.1,184.1c-.2,0-.4,0-.6,0,.2,0,.4,0,.6,0Z"/>
  <path class="st5" d="M.5,172.1v-56c-.1,18-2.2,36.7,0,56Z"/>
  <path class="st5" d="M60.6,103.7c-30-1.8-37.1-2.4-48.1.5h48.1v-.5Z"/>
  <path class="st5" d="M12.5,104.1c-6.5-3.5-7.6-.8-9.2,4.4,2.2-2.7,5.5-4.4,9.2-4.4Z"/>
  <path class="st5" d="M80.5,172.1c.7-11.6,1.2-27.9.7-42.9h-.7v42.9Z"/>
  <path class="st5" d="M69.1,184.1c2.4,0,6,.1,8.8-4.5-2.1,2.6-5.2,4.3-8.8,4.5Z"/>
  <path class="st5" d="M71.7,106.4l-11.1-2.2H12.5c-3.7,0-7,1.7-9.2,4.4-.7,2.2-1.5,4.8-2.8,7.6v56c2.8,3.9,1.8,7.2,12,12,35-2.8,42.6-1.2,56,0,.2,0,.4,0,.6,0,3.5-.2,6.7-1.9,8.8-4.5,1-1.7,1.9-4.1,2.6-7.4v-42.9l-.8-13.7c-.3-4.5-3.5-8.3-8-9.2Z"/>
  <path class="st3" d="M80.5,129.3h.7c-.1-4.6-.4-9-.7-13.1v13.1Z"/>
  <path class="st3" d="M68.5,104.1c-2.8-.2-5.4-.3-7.9-.5v.5h7.9Z"/>
  <path class="st5" d="M114.7,169.3h15.7v-13.1c0-6.6-5.4-12-12-12h-7.9s-1.5,11.2-.6,20.7c.2,2.5,2.3,4.4,4.8,4.4Z"/>
  <path class="st0" d="M173.9,126.9c-2.8,1.6-6.6,2.8-9.4,4.5,3.8,0,7.2-1.8,9.4-4.5Z"/>
  <path class="st0" d="M134.2,51.4h-25.7c8.1.6,16,.3,25.7,0Z"/>
  <path class="st0" d="M143.5,131.4h21c-8.5-.6-14.5-.3-21,0Z"/>
  <path class="st0" d="M96.5,63.4v56c2.6-20.8,4.5-36.1,0-56Z"/>
  <path class="st0" d="M96.5,63.4c1.6-3.9,2.6-6.6,3.4-8.4-2.1,2.2-3.4,5.1-3.4,8.4Z"/>
  <path class="st0" d="M108.5,131.4c-2.4-1.1-6.4-2.4-9.2-4.3,2.2,2.7,5.5,4.3,9.2,4.3Z"/>
  <path class="st6" d="M155.5,51.2c-8.1-.1-15.1,0-21.3.2h21.3v-.2Z"/>
  <path class="st6" d="M143.5,131.4h-35c17.1,1,26.5.4,35,0Z"/>
  <path class="st6" d="M176.5,119.4c0,2.8-1,5.4-2.6,7.5,3.1-1.7,5-3.9,2.6-7.5Z"/>
  <path class="st6" d="M99.3,127c-1.7-2.1-2.8-4.7-2.8-7.7-1.5,3.5.2,5.9,2.8,7.7Z"/>
  <path class="st6" d="M176.5,119.4c.2-16,.5-28.1.3-42.8h-.3v42.8Z"/>
  <path class="st6" d="M108.5,51.4c-5.7-.2-6.6-.7-8.6,3.6,2.2-2.2,5.2-3.6,8.6-3.6Z"/>
  <path class="st6" d="M168.5,53.9l-12.9-2.5h-21.3c-9.6.3-17.6.6-25.7,0-3.4,0-6.4,1.4-8.6,3.6-.8,1.8-1.8,4.5-3.4,8.4,4.5,19.9,2.6,35.2,0,56,0,2.9,1,5.6,2.8,7.7,2.9,2,6.9,3.2,9.2,4.3h35c6.5-.3,12.5-.6,21,0,2.8-1.7,6.6-3,9.4-4.5,1.6-2.1,2.6-4.6,2.6-7.5v-42.8l-2-16.1c-.4-3.3-2.9-5.9-6.1-6.6Z"/>
  <path class="st6" d="M160.8,41.8c3.7,3.7,19.5,2.6,19.5,2.6v-13.2c-.3-1.8-.5-3.3-.9-4.6-.9-2.1-2.3-3.8-4.1-5.1-1.6-.9-3.9-1.6-7-2.3l-9.3,2.4s-2.6,15.7,1.8,20.2Z"/>
  <path class="st4" d="M77.9,10.2c-3.4-4-17.9-4.1-17.9-4.1-19.7,1.2-37.3-.5-47.5-.7-3.9,0-7.4,1.9-9.6,4.8-.8,2.2-1.2,4.8-2.4,7.2,2,24.7,3.1,39.2,0,56,1.9,1.6,3.1,6.4,5,9.7,2,1.4,4.4,2.3,7,2.3,36.6-2.5,42.3-1.9,56,0,2.9-2.5,8.6-5.3,11.3-7.9.5-1.3.7-2.7.7-4.1-.8-10.2-.4-19.1,0-28.6v-16s.7-14.7-2.6-18.5Z"/>
  <path class="st0" d=""/>
  <g>
    <circle class="st1" cx="136.5" cy="93.4" r="25" pointer-events="all"/>
    <path class="st2" d="M122.2,77.4h28.6c.7,0,1.2.6,1.2,1.2v21.7c0,.7-.6,1.2-1.2,1.2h-15.6c0,0,0,.2.2.2,2.8.6,5.6,1,5.6,1,.2.5.3,1.1.6,1.9.4,1.1,1.5,1.2,1.8,1.2h1.3c.3,0,.6.3.6.6v1.2h-17.4v-1.2c0-.3.3-.6.6-.6h1.3c.3,0,1.4-.1,1.8-1.2.6-1.9.9-3.1.9-3.1h-10.2c-.7,0-1.2-.6-1.2-1.2v-21.7c0-.7.6-1.2,1.2-1.2ZM124.1,97.3h24.8v-16.8h-24.8v16.8ZM137.2,86c.4,0,.8.2,1.2.2.2,0,.3.3.3.6s0,.6-.3.6c-.4,0-.8.2-1.2.3-.2,0-.4.2-.5.4h0c0,.2,0,.5,0,.7.2.3.4.6.6,1,.1.2,0,.4-.2.7-.2.2-.5.3-.7.2-.3-.2-.7-.4-1-.6-.2-.1-.4-.1-.6,0h0c-.2,0-.4.3-.4.5,0,.4-.2.8-.2,1.2,0,.2-.3.3-.6.3s-.6,0-.6-.3c0-.4-.2-.8-.3-1.2,0-.2-.2-.4-.4-.5h0c-.2,0-.4,0-.6,0-.3.2-.7.4-1,.6-.2.1-.4,0-.7-.2-.2-.2-.3-.5-.2-.7.2-.3.4-.7.6-1,.1-.2.1-.4,0-.6h0c0-.2-.3-.4-.5-.4-.4,0-.8-.2-1.2-.3-.2,0-.3-.3-.3-.6s0-.6.3-.6c.4,0,.8-.2,1.2-.2.2,0,.4-.2.5-.4h0c0-.2,0-.5,0-.6-.2-.3-.4-.7-.6-1-.1-.2,0-.4.2-.7s.5-.3.7-.2c.3.2.7.4,1,.6.2.1.4.1.6,0h0c.2,0,.4-.3.4-.5,0-.4.2-.8.3-1.2,0-.2.3-.3.6-.3s.6,0,.6.3c0,.4.2.8.2,1.1,0,.2.2.4.4.5h0c.2,0,.5,0,.6,0,.3-.2.6-.4,1-.6.2-.1.4,0,.7.2.2.2.3.5.2.7-.2.3-.4.7-.6,1-.1.2-.1.4,0,.6h0c0,.2.3.4.5.4ZM131.9,86.9c0,.9.7,1.6,1.6,1.6s1.6-.7,1.6-1.6-.7-1.6-1.6-1.6-1.6.7-1.6,1.6ZM145,91.5c-.3,0-.6-.1-.9-.2-.2,0-.3-.2-.4-.3h0c0-.2,0-.4,0-.5.2-.3.3-.5.5-.8,0-.2,0-.4-.2-.5-.2-.2-.4-.3-.5-.2-.3.2-.5.4-.8.5-.2.1-.4.1-.5,0h0c-.2,0-.3-.2-.3-.4,0-.3-.1-.6-.2-.9,0-.2-.3-.3-.5-.3s-.5,0-.5.3c0,.3-.1.6-.2.9,0,.2-.2.3-.3.4h0c-.2,0-.4,0-.5,0-.3-.2-.5-.3-.8-.5-.2-.1-.4,0-.5.2-.2.2-.3.4-.2.5.2.3.4.6.5.8,0,.2.1.3,0,.5h0c0,.2-.2.3-.4.4-.3,0-.6.1-.9.2-.2,0-.3.3-.3.5s0,.5.3.5c.3,0,.6.1,1,.2.2,0,.3.2.4.3h0c0,.2,0,.4,0,.5-.2.3-.3.5-.5.8-.1.2,0,.4.2.5.2.2.4.3.5.2.3-.2.6-.4.8-.5.2,0,.3-.1.5,0h0c.2,0,.3.2.3.4,0,.3.1.6.2,1,0,.2.3.3.5.3s.5,0,.5-.3c0-.3.1-.6.2-.9,0-.2.2-.3.3-.4h0c.2,0,.4,0,.5,0,.3.2.5.3.8.5.2,0,.4,0,.5-.2.2-.2.3-.4.2-.5-.2-.3-.4-.6-.5-.8-.1-.2-.1-.4,0-.5h0c0-.2.2-.3.4-.4.3,0,.6-.1,1-.2.2,0,.3-.3.3-.5s0-.5-.3-.5ZM141,93.3c-.7,0-1.3-.6-1.3-1.3s.6-1.3,1.3-1.3,1.3.6,1.3,1.3-.6,1.3-1.3,1.3Z"/>
  </g>
  <g>
    <circle class="st1" cx="40.5" cy="146.1" r="25" pointer-events="all"/>
    <path class="st2" d="M26.7,130.6h28.2c.7,0,1.2.5,1.2,1.2v21.4c0,.7-.5,1.2-1.2,1.2h-15.4c0,0,0,.2.1.2,2.8.5,5.5.9,5.5.9.1.5.3,1.1.6,1.9.4,1.1,1.5,1.2,1.8,1.2h1.3c.3,0,.6.3.6.6v1.2h-17.1v-1.2c0-.3.3-.6.6-.6h1.3c.3,0,1.4,0,1.8-1.2.6-1.9.9-3.1.9-3.1h-10.1c-.7,0-1.2-.5-1.2-1.2v-21.4c0-.7.5-1.2,1.2-1.2ZM28.5,150.2h24.5v-16.5h-24.5v16.5ZM41.4,139.1c.4,0,.7.2,1.1.2.2,0,.3.3.3.6s0,.6-.3.6c-.4,0-.8.2-1.1.3-.2,0-.4.2-.5.4h0c0,.2,0,.5,0,.6.2.3.4.6.6,1,.1.2,0,.4-.2.6-.2.2-.5.3-.6.2-.3-.2-.7-.4-1-.6-.2-.1-.4-.1-.6,0h0c-.2,0-.4.3-.4.5,0,.4-.2.7-.2,1.1,0,.2-.3.3-.6.3s-.6,0-.6-.3c0-.4-.2-.8-.3-1.1,0-.2-.2-.4-.4-.5h0c-.2,0-.4,0-.6,0-.3.2-.7.4-1,.6-.2.1-.4,0-.6-.2-.2-.2-.3-.5-.2-.6.2-.3.4-.7.6-1,.1-.2.1-.4,0-.6h0c0-.2-.3-.4-.5-.4-.4,0-.8-.2-1.1-.3-.2,0-.3-.3-.3-.6s0-.6.3-.6c.4,0,.8-.2,1.1-.2.2,0,.4-.2.5-.4h0c0-.2,0-.5,0-.6-.2-.3-.4-.7-.6-1-.1-.2,0-.4.2-.6s.5-.3.6-.2c.3.2.7.4,1,.6.2.1.4.1.6,0h0c.2,0,.4-.3.4-.5,0-.4.2-.7.3-1.1,0-.2.3-.3.6-.3s.6,0,.6.3c0,.4.2.8.2,1.1,0,.2.2.4.4.5h0c.2,0,.4,0,.6,0,.3-.2.6-.4,1-.6.2-.1.4,0,.6.2.2.2.3.5.2.6-.2.3-.4.7-.6,1-.1.2-.1.4,0,.6h0c0,.2.3.4.5.4ZM36.2,139.9c0,.9.7,1.6,1.6,1.6s1.6-.7,1.6-1.6-.7-1.6-1.6-1.6-1.6.7-1.6,1.6ZM49.1,144.4c-.3,0-.6-.1-.9-.2-.2,0-.3-.2-.4-.3h0c0-.2,0-.4,0-.5.2-.3.3-.5.5-.8,0-.2,0-.4-.2-.5-.2-.2-.4-.3-.5-.2-.3.2-.5.3-.8.5-.2.1-.4.1-.5,0h0c-.2,0-.3-.2-.3-.4,0-.3-.1-.6-.2-.9,0-.2-.3-.3-.5-.3s-.5,0-.5.3c0,.3-.1.6-.2.9,0,.2-.2.3-.3.4h0c-.2,0-.4,0-.5,0-.3-.2-.5-.3-.8-.5-.2-.1-.4,0-.5.2-.2.2-.3.4-.2.5.2.3.3.6.5.8,0,.2.1.3,0,.5h0c0,.2-.2.3-.4.4-.3,0-.6.1-.9.2-.2,0-.3.3-.3.5s0,.5.3.5c.3,0,.6.1.9.2.2,0,.3.2.4.3h0c0,.2,0,.4,0,.5-.2.3-.3.5-.5.8-.1.2,0,.4.2.5.2.2.4.3.5.2.3-.2.6-.3.8-.5.2,0,.3-.1.5,0h0c.2,0,.3.2.3.4,0,.3.1.6.2.9,0,.2.3.3.5.3s.5,0,.5-.3c0-.3.1-.6.2-.9,0-.2.2-.3.3-.4h0c.2,0,.4,0,.5,0,.3.2.5.3.8.5.2,0,.4,0,.5-.2.2-.2.3-.4.2-.5-.2-.3-.3-.5-.5-.8-.1-.2-.1-.3,0-.5h0c0-.2.2-.3.4-.3.3,0,.6-.1.9-.2.2,0,.3-.3.3-.5s0-.5-.3-.5ZM45.2,146.3c-.7,0-1.3-.6-1.3-1.3s.6-1.3,1.3-1.3,1.3.6,1.3,1.3-.6,1.3-1.3,1.3Z"/>
  </g>
  <path class="st2" d="M120,162c0,.2-.2.4-.3.6-.7,1.1-1.6,1.3-2.2,1.1-.1,0,0-.1,0-.1.8,0,1.4-.7,1.9-1.5.1-.2.2-.4.3-.6h4.7c0-.3,0-.8,0-1.3,0-2,.6-5.4,1-7.1,0-.5.1-1.2,0-1.7,0-.6-.3-1-.5-1.2-.4-.5-.9-.7-1.5-.7h-7.5c-1.4,0-2.2.9-2.2,1.9-.1,1.4,1,2.3,2.3,2.5,0-.5.2-.9.2-1.1-.5,0-1.4-.4-1.4-1.4,0-.5.5-.9,1-.9h0c.3,0,.5.1.7.3.3.4.4,1.1.3,1.9-.4,1.9-1.2,6.4-1.1,8.3,0,.8.3,3.3,2.5,3.3h6.7c1.7,0,2.6-1.4,3.1-2.5h-7.6ZM118.7,155.4c-.2,0-.4.2-.4.4s.2.4.4.4.4-.2.4-.4-.2-.4-.4-.4ZM118.6,153.9c0-.2.2-.4.4-.4s.4.2.4.4-.2.4-.4.4-.4-.2-.4-.4ZM118.4,157.4c-.2,0-.4.2-.4.4s.2.4.4.4.4-.2.4-.4-.2-.4-.4-.4ZM117.9,159.7c0-.2.2-.4.4-.4s.4.2.4.4-.2.4-.4.4-.4-.2-.4-.4ZM119.6,156.3h3.9c0-.1,0-.3,0-.4s0-.3,0-.4h-3.9c0,.3,0,.6-.1.8ZM123.8,154.4h-3.9c0-.3,0-.5.1-.8h0c0,0,3.9,0,3.9,0,0,.1,0,.3,0,.4,0,.1,0,.3,0,.4ZM119.3,158.2h3.9v-.8c0,0-3.8,0-3.8,0,0,.3,0,.6-.1.8ZM123.1,160.2h-3.9c0-.1,0-.2,0-.4,0-.1,0-.3,0-.5h3.9s0,0,0,0c0,.3,0,.5,0,.8Z"/>
  <path class="st2" d="M168.5,36.3c0,.2-.2.4-.3.6-.7,1.1-1.6,1.3-2.2,1.1-.1,0,0-.1,0-.1.8,0,1.4-.7,1.9-1.5.1-.2.2-.4.3-.6h4.7c0-.3,0-.8,0-1.3,0-2,.6-5.4,1-7.1,0-.5.1-1.2,0-1.7,0-.6-.3-1-.5-1.2-.4-.5-.9-.7-1.5-.7h-7.5c-1.4,0-2.2.9-2.2,1.9-.1,1.4,1,2.3,2.3,2.5,0-.5.2-.9.2-1.1-.5,0-1.4-.4-1.4-1.4,0-.5.5-.9,1-.9h0c.3,0,.5.1.7.3.3.4.4,1.1.3,1.9-.4,1.9-1.2,6.4-1.1,8.3,0,.8.3,3.3,2.5,3.3h6.7c1.7,0,2.6-1.4,3.1-2.5h-7.6ZM167.2,29.7c-.2,0-.4.2-.4.4s.2.4.4.4.4-.2.4-.4-.2-.4-.4-.4ZM167,28.2c0-.2.2-.4.4-.4s.4.2.4.4-.2.4-.4.4-.4-.2-.4-.4ZM166.9,31.7c-.2,0-.4.2-.4.4s.2.4.4.4.4-.2.4-.4-.2-.4-.4-.4ZM166.4,34c0-.2.2-.4.4-.4s.4.2.4.4-.2.4-.4.4-.4-.2-.4-.4ZM168.1,30.6h3.9c0-.1,0-.3,0-.4s0-.3,0-.4h-3.9c0,.3,0,.6-.1.8ZM172.3,28.7h-3.9c0-.3,0-.5.1-.8h0c0,0,3.9,0,3.9,0,0,.1,0,.3,0,.4,0,.1,0,.3,0,.4ZM167.8,32.5h3.9v-.8c0,0-3.8,0-3.8,0,0,.3,0,.6-.1.8ZM171.5,34.5h-3.9c0-.1,0-.2,0-.4,0-.1,0-.3,0-.5h3.9s0,0,0,0c0,.3,0,.5,0,.8Z"/>
  <g>
    <circle class="st1" cx="40.5" cy="47.4" r="25" pointer-events="all"/>
    <path class="st2" d="M26.7,31.9h28.2c.7,0,1.2.5,1.2,1.2v21.4c0,.7-.5,1.2-1.2,1.2h-15.4c0,0,0,.2.1.2,2.8.5,5.5.9,5.5.9.1.5.3,1.1.6,1.9.4,1.1,1.5,1.2,1.8,1.2h1.3c.3,0,.6.3.6.6v1.2h-17.1v-1.2c0-.3.3-.6.6-.6h1.3c.3,0,1.4,0,1.8-1.2.6-1.9.9-3.1.9-3.1h-10.1c-.7,0-1.2-.5-1.2-1.2v-21.4c0-.7.5-1.2,1.2-1.2ZM28.5,51.5h24.5v-16.5h-24.5v16.5ZM41.4,40.3c.4,0,.7.2,1.1.2.2,0,.3.3.3.6s0,.6-.3.6c-.4,0-.8.2-1.1.3-.2,0-.4.2-.5.4h0c0,.2,0,.5,0,.6.2.3.4.6.6,1,.1.2,0,.4-.2.6-.2.2-.5.3-.6.2-.3-.2-.7-.4-1-.6-.2-.1-.4-.1-.6,0h0c-.2,0-.4.3-.4.5,0,.4-.2.7-.2,1.1,0,.2-.3.3-.6.3s-.6,0-.6-.3c0-.4-.2-.8-.3-1.1,0-.2-.2-.4-.4-.5h0c-.2,0-.4,0-.6,0-.3.2-.7.4-1,.6-.2.1-.4,0-.6-.2-.2-.2-.3-.5-.2-.6.2-.3.4-.7.6-1,.1-.2.1-.4,0-.6h0c0-.2-.3-.4-.5-.4-.4,0-.8-.2-1.1-.3-.2,0-.3-.3-.3-.6s0-.6.3-.6c.4,0,.8-.2,1.1-.2.2,0,.4-.2.5-.4h0c0-.2,0-.5,0-.6-.2-.3-.4-.7-.6-1-.1-.2,0-.4.2-.6s.5-.3.6-.2c.3.2.7.4,1,.6.2.1.4.1.6,0h0c.2,0,.4-.3.4-.5,0-.4.2-.7.3-1.1,0-.2.3-.3.6-.3s.6,0,.6.3c0,.4.2.8.2,1.1,0,.2.2.4.4.5h0c.2,0,.4,0,.6,0,.3-.2.6-.4,1-.6.2-.1.4,0,.6.2.2.2.3.5.2.6-.2.3-.4.7-.6,1-.1.2-.1.4,0,.6h0c0,.2.3.4.5.4ZM36.2,41.2c0,.9.7,1.6,1.6,1.6s1.6-.7,1.6-1.6-.7-1.6-1.6-1.6-1.6.7-1.6,1.6ZM49.1,45.7c-.3,0-.6-.1-.9-.2-.2,0-.3-.2-.4-.3h0c0-.2,0-.4,0-.5.2-.3.3-.5.5-.8,0-.2,0-.4-.2-.5-.2-.2-.4-.3-.5-.2-.3.2-.5.3-.8.5-.2.1-.4.1-.5,0h0c-.2,0-.3-.2-.3-.4,0-.3-.1-.6-.2-.9,0-.2-.3-.3-.5-.3s-.5,0-.5.3c0,.3-.1.6-.2.9,0,.2-.2.3-.3.4h0c-.2,0-.4,0-.5,0-.3-.2-.5-.3-.8-.5-.2-.1-.4,0-.5.2-.2.2-.3.4-.2.5.2.3.3.6.5.8,0,.2.1.3,0,.5h0c0,.2-.2.3-.4.4-.3,0-.6.1-.9.2-.2,0-.3.3-.3.5s0,.5.3.5c.3,0,.6.1.9.2.2,0,.3.2.4.3h0c0,.2,0,.4,0,.5-.2.3-.3.5-.5.8-.1.2,0,.4.2.5.2.2.4.3.5.2.3-.2.6-.3.8-.5.2,0,.3-.1.5,0h0c.2,0,.3.2.3.4,0,.3.1.6.2.9,0,.2.3.3.5.3s.5,0,.5-.3c0-.3.1-.6.2-.9,0-.2.2-.3.3-.4h0c.2,0,.4,0,.5,0,.3.2.5.3.8.5.2,0,.4,0,.5-.2.2-.2.3-.4.2-.5-.2-.3-.3-.5-.5-.8-.1-.2-.1-.3,0-.5h0c0-.2.2-.3.4-.3.3,0,.6-.1.9-.2.2,0,.3-.3.3-.5s0-.5-.3-.5ZM45.2,47.5c-.7,0-1.3-.6-1.3-1.3s.6-1.3,1.3-1.3,1.3.6,1.3,1.3-.6,1.3-1.3,1.3Z"/>
  </g>
  <path class="st0" d="M.5,73.4c0,4,2,7.5,5,9.7-1.8-3.3-3-8.1-5-9.7Z"/>
  <path class="st0" d="M60,6.1v-.7H12.5c10.2.2,27.8,1.9,47.5.7Z"/>
  <path class="st0" d="M79.8,77.5c-2.7,2.6-8.4,5.4-11.3,7.9,5.2,0,9.6-3.3,11.3-7.9Z"/>
  <path class="st0" d="M.5,17.4c1.2-2.4,1.6-5,2.4-7.2-1.5,2-2.4,4.5-2.4,7.2Z"/>
  <path class="st0" d="M12.5,85.4h56c-13.7-1.9-19.4-2.5-56,0Z"/>
  <path class="st0" d="M.5,17.4v56c3.1-16.8,2-31.3,0-56Z"/>
  <path class="st0" d="M80.5,73.4v-28.6c-.4,9.5-.8,18.4,0,28.6Z"/>
  <path class="st4" d="M80.5,73.4c0,1.4-.3,2.8-.7,4.1,1.5-1.4,2-2.8.7-4.1Z"/>
  <path class="st4" d="M12.5,85.4c-2.6,0-5-.9-7-2.3,1.6,2.8,3.6,4.6,7,2.3Z"/>
  <path class="st4" d="M80.5,44.8c.2-5.1.4-10.3.3-16h-.3v16Z"/>
  <path class="st4" d="M12.5,5.4c-6.5-1-8.4,1.4-9.6,4.8,2.2-2.9,5.7-4.8,9.6-4.8Z"/>
  <path class="st4" d="M89.7,28c3.6,3.6,20.5,0,20.5,0v-11.4c-.4-1.7-.6-3.1-.8-4.3-1.4-3.7-4.5-6.5-8.4-7.4-.8-.1-1.8-.2-2.8-.3-2.9.3-5.7.5-8.5.7,0,0-4,18.6,0,22.7Z"/>
  <g>
    <rect class="st0" x="-529" y="51.4" width="80" height="80" rx="-184.5" ry="-184.5" pointer-events="all"/>
    <path class="st6" d="M-517,51.4c15.2,1.1,30-.9,56,0,9.9,2.2,10.9,4.6,12,12,.7,21.3.2,35.5,0,56,4.4,6.8-6.2,8.4-12,12-19.6-1.4-25.9,1.8-56,0-4.5-2.2-15.1-4.7-12-12,2.6-20.8,4.5-36.1,0-56,5.4-13.2,3.9-12.3,12-12" pointer-events="all"/>
  </g>
  <g>
    <circle class="st1" cx="-489" cy="93.4" r="25" pointer-events="all"/>
    <path class="st2" d="M-503.2,77.4h28.6c.7,0,1.2.6,1.2,1.2v21.7c0,.7-.6,1.2-1.2,1.2h-15.6c0,0,0,.2.2.2,2.8.6,5.6,1,5.6,1,.2.5.3,1.1.6,1.9.4,1.1,1.5,1.2,1.8,1.2h1.3c.3,0,.6.3.6.6v1.2h-17.4v-1.2c0-.3.3-.6.6-.6h1.3c.3,0,1.4-.1,1.8-1.2.6-1.9.9-3.1.9-3.1h-10.2c-.7,0-1.2-.6-1.2-1.2v-21.7c0-.7.6-1.2,1.2-1.2ZM-501.4,97.3h24.8v-16.8h-24.8v16.8ZM-488.3,86c.4,0,.8.2,1.2.2.2,0,.3.3.3.6s0,.6-.3.6c-.4,0-.8.2-1.2.3-.2,0-.4.2-.5.4h0c0,.2,0,.5,0,.7.2.3.4.6.6,1,.1.2,0,.4-.2.7-.2.2-.5.3-.7.2-.3-.2-.7-.4-1-.6-.2-.1-.4-.1-.6,0h0c-.2,0-.4.3-.4.5,0,.4-.2.8-.2,1.2,0,.2-.3.3-.6.3s-.6,0-.6-.3c0-.4-.2-.8-.3-1.2,0-.2-.2-.4-.4-.5h0c-.2,0-.4,0-.6,0-.3.2-.7.4-1,.6-.2.1-.4,0-.7-.2-.2-.2-.3-.5-.2-.7.2-.3.4-.7.6-1,.1-.2.1-.4,0-.6h0c0-.2-.3-.4-.5-.4-.4,0-.8-.2-1.2-.3-.2,0-.3-.3-.3-.6s0-.6.3-.6c.4,0,.8-.2,1.2-.2.2,0,.4-.2.5-.4h0c0-.2,0-.5,0-.6-.2-.3-.4-.7-.6-1-.1-.2,0-.4.2-.7s.5-.3.7-.2c.3.2.7.4,1,.6.2.1.4.1.6,0h0c.2,0,.4-.3.4-.5,0-.4.2-.8.3-1.2,0-.2.3-.3.6-.3s.6,0,.6.3c0,.4.2.8.2,1.1,0,.2.2.4.4.5h0c.2,0,.5,0,.6,0,.3-.2.6-.4,1-.6.2-.1.4,0,.7.2.2.2.3.5.2.7-.2.3-.4.7-.6,1-.1.2-.1.4,0,.6h0c0,.2.3.4.5.4ZM-493.5,86.9c0,.9.7,1.6,1.6,1.6s1.6-.7,1.6-1.6-.7-1.6-1.6-1.6-1.6.7-1.6,1.6ZM-480.5,91.5c-.3,0-.6-.1-.9-.2-.2,0-.3-.2-.4-.3h0c0-.2,0-.4,0-.5.2-.3.3-.5.5-.8,0-.2,0-.4-.2-.5-.2-.2-.4-.3-.5-.2-.3.2-.5.4-.8.5-.2.1-.4.1-.5,0h0c-.2,0-.3-.2-.3-.4,0-.3-.1-.6-.2-.9,0-.2-.3-.3-.5-.3s-.5,0-.5.3c0,.3-.1.6-.2.9,0,.2-.2.3-.3.4h0c-.2,0-.4,0-.5,0-.3-.2-.5-.3-.8-.5-.2-.1-.4,0-.5.2-.2.2-.3.4-.2.5.2.3.4.6.5.8,0,.2.1.3,0,.5h0c0,.2-.2.3-.4.4-.3,0-.6.1-.9.2-.2,0-.3.3-.3.5s0,.5.3.5c.3,0,.6.1,1,.2.2,0,.3.2.4.3h0c0,.2,0,.4,0,.5-.2.3-.3.5-.5.8-.1.2,0,.4.2.5.2.2.4.3.5.2.3-.2.6-.4.8-.5.2,0,.3-.1.5,0h0c.2,0,.3.2.3.4,0,.3.1.6.2,1,0,.2.3.3.5.3s.5,0,.5-.3c0-.3.1-.6.2-.9,0-.2.2-.3.3-.4h0c.2,0,.4,0,.5,0,.3.2.5.3.8.5.2,0,.4,0,.5-.2.2-.2.3-.4.2-.5-.2-.3-.4-.6-.5-.8-.1-.2-.1-.4,0-.5h0c0-.2.2-.3.4-.4.3,0,.6-.1,1-.2.2,0,.3-.3.3-.5s0-.5-.3-.5ZM-484.4,93.3c-.7,0-1.3-.6-1.3-1.3s.6-1.3,1.3-1.3,1.3.6,1.3,1.3-.6,1.3-1.3,1.3Z"/>
  </g>
  <g>
    <g>
      <rect class="st0" x="-625" y="104.1" width="80" height="80" rx="-232.5" ry="-232.5" pointer-events="all"/>
      <path class="st5" d="M-625,172.1c-2.2-19.3-.1-38,0-56,4.4-9.5,2.8-17,12-12,11.9-3.1,19.2-2.2,56,0,6.3-2.4,15.9,5.9,12,12,1.5,17.6.9,40.9,0,56-2.6,13.1-8.9,11.8-12,12-13.4-1.2-21-2.8-56,0-10.2-4.8-9.2-8.1-12-12" pointer-events="all"/>
    </g>
    <g>
      <circle class="st1" cx="-585" cy="146.1" r="25" pointer-events="all"/>
      <path class="st2" d="M-598.8,130.6h28.2c.7,0,1.2.5,1.2,1.2v21.4c0,.7-.5,1.2-1.2,1.2h-15.4c0,0,0,.2.1.2,2.8.5,5.5.9,5.5.9.1.5.3,1.1.6,1.9.4,1.1,1.5,1.2,1.8,1.2h1.3c.3,0,.6.3.6.6v1.2h-17.1v-1.2c0-.3.3-.6.6-.6h1.3c.3,0,1.4,0,1.8-1.2.6-1.9.9-3.1.9-3.1h-10.1c-.7,0-1.2-.5-1.2-1.2v-21.4c0-.7.5-1.2,1.2-1.2ZM-597,150.2h24.5v-16.5h-24.5v16.5ZM-584.1,139.1c.4,0,.7.2,1.1.2.2,0,.3.3.3.6s0,.6-.3.6c-.4,0-.8.2-1.1.3-.2,0-.4.2-.5.4h0c0,.2,0,.5,0,.6.2.3.4.6.6,1,.1.2,0,.4-.2.6-.2.2-.5.3-.6.2-.3-.2-.7-.4-1-.6-.2-.1-.4-.1-.6,0h0c-.2,0-.4.3-.4.5,0,.4-.2.7-.2,1.1,0,.2-.3.3-.6.3s-.6,0-.6-.3c0-.4-.2-.8-.3-1.1,0-.2-.2-.4-.4-.5h0c-.2,0-.4,0-.6,0-.3.2-.7.4-1,.6-.2.1-.4,0-.6-.2-.2-.2-.3-.5-.2-.6.2-.3.4-.7.6-1,.1-.2.1-.4,0-.6h0c0-.2-.3-.4-.5-.4-.4,0-.8-.2-1.1-.3-.2,0-.3-.3-.3-.6s0-.6.3-.6c.4,0,.8-.2,1.1-.2.2,0,.4-.2.5-.4h0c0-.2,0-.5,0-.6-.2-.3-.4-.7-.6-1-.1-.2,0-.4.2-.6s.5-.3.6-.2c.3.2.7.4,1,.6.2.1.4.1.6,0h0c.2,0,.4-.3.4-.5,0-.4.2-.7.3-1.1,0-.2.3-.3.6-.3s.6,0,.6.3c0,.4.2.8.2,1.1,0,.2.2.4.4.5h0c.2,0,.4,0,.6,0,.3-.2.6-.4,1-.6.2-.1.4,0,.6.2.2.2.3.5.2.6-.2.3-.4.7-.6,1-.1.2-.1.4,0,.6h0c0,.2.3.4.5.4ZM-589.3,139.9c0,.9.7,1.6,1.6,1.6s1.6-.7,1.6-1.6-.7-1.6-1.6-1.6-1.6.7-1.6,1.6ZM-576.4,144.4c-.3,0-.6-.1-.9-.2-.2,0-.3-.2-.4-.3h0c0-.2,0-.4,0-.5.2-.3.3-.5.5-.8,0-.2,0-.4-.2-.5-.2-.2-.4-.3-.5-.2-.3.2-.5.3-.8.5-.2.1-.4.1-.5,0h0c-.2,0-.3-.2-.3-.4,0-.3-.1-.6-.2-.9,0-.2-.3-.3-.5-.3s-.5,0-.5.3c0,.3-.1.6-.2.9,0,.2-.2.3-.3.4h0c-.2,0-.4,0-.5,0-.3-.2-.5-.3-.8-.5-.2-.1-.4,0-.5.2-.2.2-.3.4-.2.5.2.3.3.6.5.8,0,.2.1.3,0,.5h0c0,.2-.2.3-.4.4-.3,0-.6.1-.9.2-.2,0-.3.3-.3.5s0,.5.3.5c.3,0,.6.1.9.2.2,0,.3.2.4.3h0c0,.2,0,.4,0,.5-.2.3-.3.5-.5.8-.1.2,0,.4.2.5.2.2.4.3.5.2.3-.2.6-.3.8-.5.2,0,.3-.1.5,0h0c.2,0,.3.2.3.4,0,.3.1.6.2.9,0,.2.3.3.5.3s.5,0,.5-.3c0-.3.1-.6.2-.9,0-.2.2-.3.3-.4h0c.2,0,.4,0,.5,0,.3.2.5.3.8.5.2,0,.4,0,.5-.2.2-.2.3-.4.2-.5-.2-.3-.3-.5-.5-.8-.1-.2-.1-.3,0-.5h0c0-.2.2-.3.4-.3.3,0,.6-.1.9-.2.2,0,.3-.3.3-.5s0-.5-.3-.5ZM-580.3,146.3c-.7,0-1.3-.6-1.3-1.3s.6-1.3,1.3-1.3,1.3.6,1.3,1.3-.6,1.3-1.3,1.3Z"/>
    </g>
  </g>
  <g>
    <rect class="st0" x="-625" y="5.4" width="80" height="80" rx="-232.5" ry="-232.5" pointer-events="all"/>
    <path class="st4" d="M-613,5.4c11.6.3,33,2.5,56,0,12.8,1.4,9.8,2.3,12,12,1.3,22.7-1.5,37,0,56,3.6,3.6-7.5,8.2-12,12-13.7-1.9-19.3-2.5-56,0-7.3,5-8.4-8.9-12-12,3.1-16.8,2-31.3,0-56,3-6.1,1.4-13.6,12-12" pointer-events="all"/>
  </g>
  <g>
    <circle class="st1" cx="-585" cy="47.4" r="25" pointer-events="all"/>
    <path class="st2" d="M-598.8,31.9h28.2c.7,0,1.2.5,1.2,1.2v21.4c0,.7-.5,1.2-1.2,1.2h-15.4c0,0,0,.2.1.2,2.8.5,5.5.9,5.5.9.1.5.3,1.1.6,1.9.4,1.1,1.5,1.2,1.8,1.2h1.3c.3,0,.6.3.6.6v1.2h-17.1v-1.2c0-.3.3-.6.6-.6h1.3c.3,0,1.4,0,1.8-1.2.6-1.9.9-3.1.9-3.1h-10.1c-.7,0-1.2-.5-1.2-1.2v-21.4c0-.7.5-1.2,1.2-1.2ZM-597,51.5h24.5v-16.5h-24.5v16.5ZM-584.1,40.3c.4,0,.7.2,1.1.2.2,0,.3.3.3.6s0,.6-.3.6c-.4,0-.8.2-1.1.3-.2,0-.4.2-.5.4h0c0,.2,0,.5,0,.6.2.3.4.6.6,1,.1.2,0,.4-.2.6-.2.2-.5.3-.6.2-.3-.2-.7-.4-1-.6-.2-.1-.4-.1-.6,0h0c-.2,0-.4.3-.4.5,0,.4-.2.7-.2,1.1,0,.2-.3.3-.6.3s-.6,0-.6-.3c0-.4-.2-.8-.3-1.1,0-.2-.2-.4-.4-.5h0c-.2,0-.4,0-.6,0-.3.2-.7.4-1,.6-.2.1-.4,0-.6-.2-.2-.2-.3-.5-.2-.6.2-.3.4-.7.6-1,.1-.2.1-.4,0-.6h0c0-.2-.3-.4-.5-.4-.4,0-.8-.2-1.1-.3-.2,0-.3-.3-.3-.6s0-.6.3-.6c.4,0,.8-.2,1.1-.2.2,0,.4-.2.5-.4h0c0-.2,0-.5,0-.6-.2-.3-.4-.7-.6-1-.1-.2,0-.4.2-.6s.5-.3.6-.2c.3.2.7.4,1,.6.2.1.4.1.6,0h0c.2,0,.4-.3.4-.5,0-.4.2-.7.3-1.1,0-.2.3-.3.6-.3s.6,0,.6.3c0,.4.2.8.2,1.1,0,.2.2.4.4.5h0c.2,0,.4,0,.6,0,.3-.2.6-.4,1-.6.2-.1.4,0,.6.2.2.2.3.5.2.6-.2.3-.4.7-.6,1-.1.2-.1.4,0,.6h0c0,.2.3.4.5.4ZM-589.3,41.2c0,.9.7,1.6,1.6,1.6s1.6-.7,1.6-1.6-.7-1.6-1.6-1.6-1.6.7-1.6,1.6ZM-576.4,45.7c-.3,0-.6-.1-.9-.2-.2,0-.3-.2-.4-.3h0c0-.2,0-.4,0-.5.2-.3.3-.5.5-.8,0-.2,0-.4-.2-.5-.2-.2-.4-.3-.5-.2-.3.2-.5.3-.8.5-.2.1-.4.1-.5,0h0c-.2,0-.3-.2-.3-.4,0-.3-.1-.6-.2-.9,0-.2-.3-.3-.5-.3s-.5,0-.5.3c0,.3-.1.6-.2.9,0,.2-.2.3-.3.4h0c-.2,0-.4,0-.5,0-.3-.2-.5-.3-.8-.5-.2-.1-.4,0-.5.2-.2.2-.3.4-.2.5.2.3.3.6.5.8,0,.2.1.3,0,.5h0c0,.2-.2.3-.4.4-.3,0-.6.1-.9.2-.2,0-.3.3-.3.5s0,.5.3.5c.3,0,.6.1.9.2.2,0,.3.2.4.3h0c0,.2,0,.4,0,.5-.2.3-.3.5-.5.8-.1.2,0,.4.2.5.2.2.4.3.5.2.3-.2.6-.3.8-.5.2,0,.3-.1.5,0h0c.2,0,.3.2.3.4,0,.3.1.6.2.9,0,.2.3.3.5.3s.5,0,.5-.3c0-.3.1-.6.2-.9,0-.2.2-.3.3-.4h0c.2,0,.4,0,.5,0,.3.2.5.3.8.5.2,0,.4,0,.5-.2.2-.2.3-.4.2-.5-.2-.3-.3-.5-.5-.8-.1-.2-.1-.3,0-.5h0c0-.2.2-.3.4-.3.3,0,.6-.1.9-.2.2,0,.3-.3.3-.5s0-.5-.3-.5ZM-580.3,47.5c-.7,0-1.3-.6-1.3-1.3s.6-1.3,1.3-1.3,1.3.6,1.3,1.3-.6,1.3-1.3,1.3Z"/>
  </g>
  <path class="st2" d="M-573.8-9.7c0-.2,0-.6,0-.8,0-.3-.2-.5-.3-.6-.2-.2-.5-.4-.8-.4h-3.8c-.7,0-1.1.5-1.1,1,0,.7.5,1.2,1.2,1.3,0-.2,0-.4.1-.6-.3,0-.7-.2-.7-.7,0-.3.2-.5.5-.5h0c.1,0,.3,0,.3.2.2.2.2.6.1,1-.2,1-.6,3.3-.5,4.3,0,.4.2,1.7,1.3,1.7h3.4c.8,0,1.3-.7,1.6-1.3h-3.9c0,0-.1.2-.2.3-.3.5-.8.7-1.1.6,0,0,0,0,0,0,.4,0,.7-.4,1-.8,0,0,.1-.2.1-.3h2.4c0-.2,0-.4,0-.6"/>
  <g>
    <rect class="st0" x="-324.7" y="51.4" width="80" height="80" rx="-82.4" ry="-82.4" pointer-events="all"/>
    <path class="st6" d="M-312.7,51.4c15.2,1.1,30-.9,56,0,9.9,2.2,10.9,4.6,12,12,.7,21.3.2,35.5,0,56,4.4,6.8-6.2,8.4-12,12-19.6-1.4-25.9,1.8-56,0-4.5-2.2-15.1-4.7-12-12,2.6-20.8,4.5-36.1,0-56,5.4-13.2,3.9-12.3,12-12" pointer-events="all"/>
  </g>
  <g>
    <circle class="st1" cx="-284.7" cy="93.4" r="25" pointer-events="all"/>
    <path class="st2" d="M-299,77.4h28.6c.7,0,1.2.6,1.2,1.2v21.7c0,.7-.6,1.2-1.2,1.2h-15.6c0,0,0,.2.2.2,2.8.6,5.6,1,5.6,1,.2.5.3,1.1.6,1.9.4,1.1,1.5,1.2,1.8,1.2h1.3c.3,0,.6.3.6.6v1.2h-17.4v-1.2c0-.3.3-.6.6-.6h1.3c.3,0,1.4-.1,1.8-1.2.6-1.9.9-3.1.9-3.1h-10.2c-.7,0-1.2-.6-1.2-1.2v-21.7c0-.7.6-1.2,1.2-1.2ZM-297.1,97.3h24.8v-16.8h-24.8v16.8ZM-284,86c.4,0,.8.2,1.2.2.2,0,.3.3.3.6s0,.6-.3.6c-.4,0-.8.2-1.2.3-.2,0-.4.2-.5.4h0c0,.2,0,.5,0,.7.2.3.4.6.6,1,.1.2,0,.4-.2.7-.2.2-.5.3-.7.2-.3-.2-.7-.4-1-.6-.2-.1-.4-.1-.6,0h0c-.2,0-.4.3-.4.5,0,.4-.2.8-.2,1.2,0,.2-.3.3-.6.3s-.6,0-.6-.3c0-.4-.2-.8-.3-1.2,0-.2-.2-.4-.4-.5h0c-.2,0-.4,0-.6,0-.3.2-.7.4-1,.6-.2.1-.4,0-.7-.2-.2-.2-.3-.5-.2-.7.2-.3.4-.7.6-1,.1-.2.1-.4,0-.6h0c0-.2-.3-.4-.5-.4-.4,0-.8-.2-1.2-.3-.2,0-.3-.3-.3-.6s0-.6.3-.6c.4,0,.8-.2,1.2-.2.2,0,.4-.2.5-.4h0c0-.2,0-.5,0-.6-.2-.3-.4-.7-.6-1-.1-.2,0-.4.2-.7s.5-.3.7-.2c.3.2.7.4,1,.6.2.1.4.1.6,0h0c.2,0,.4-.3.4-.5,0-.4.2-.8.3-1.2,0-.2.3-.3.6-.3s.6,0,.6.3c0,.4.2.8.2,1.1,0,.2.2.4.4.5h0c.2,0,.5,0,.6,0,.3-.2.6-.4,1-.6.2-.1.4,0,.7.2.2.2.3.5.2.7-.2.3-.4.7-.6,1-.1.2-.1.4,0,.6h0c0,.2.3.4.5.4ZM-289.3,86.9c0,.9.7,1.6,1.6,1.6s1.6-.7,1.6-1.6-.7-1.6-1.6-1.6-1.6.7-1.6,1.6ZM-276.2,91.5c-.3,0-.6-.1-.9-.2-.2,0-.3-.2-.4-.3h0c0-.2,0-.4,0-.5.2-.3.3-.5.5-.8,0-.2,0-.4-.2-.5-.2-.2-.4-.3-.5-.2-.3.2-.5.4-.8.5-.2.1-.4.1-.5,0h0c-.2,0-.3-.2-.3-.4,0-.3-.1-.6-.2-.9,0-.2-.3-.3-.5-.3s-.5,0-.5.3c0,.3-.1.6-.2.9,0,.2-.2.3-.3.4h0c-.2,0-.4,0-.5,0-.3-.2-.5-.3-.8-.5-.2-.1-.4,0-.5.2-.2.2-.3.4-.2.5.2.3.4.6.5.8,0,.2.1.3,0,.5h0c0,.2-.2.3-.4.4-.3,0-.6.1-.9.2-.2,0-.3.3-.3.5s0,.5.3.5c.3,0,.6.1,1,.2.2,0,.3.2.4.3h0c0,.2,0,.4,0,.5-.2.3-.3.5-.5.8-.1.2,0,.4.2.5.2.2.4.3.5.2.3-.2.6-.4.8-.5.2,0,.3-.1.5,0h0c.2,0,.3.2.3.4,0,.3.1.6.2,1,0,.2.3.3.5.3s.5,0,.5-.3c0-.3.1-.6.2-.9,0-.2.2-.3.3-.4h0c.2,0,.4,0,.5,0,.3.2.5.3.8.5.2,0,.4,0,.5-.2.2-.2.3-.4.2-.5-.2-.3-.4-.6-.5-.8-.1-.2-.1-.4,0-.5h0c0-.2.2-.3.4-.4.3,0,.6-.1,1-.2.2,0,.3-.3.3-.5s0-.5-.3-.5ZM-280.2,93.3c-.7,0-1.3-.6-1.3-1.3s.6-1.3,1.3-1.3,1.3.6,1.3,1.3-.6,1.3-1.3,1.3Z"/>
  </g>
  <g>
    <g>
      <rect class="st0" x="-420.7" y="104.1" width="80" height="80" rx="-130.4" ry="-130.4" pointer-events="all"/>
      <path class="st5" d="M-420.7,172.1c-2.2-19.3-.1-38,0-56,4.4-9.5,2.8-17,12-12,11.9-3.1,19.2-2.2,56,0,6.3-2.4,15.9,5.9,12,12,1.5,17.6.9,40.9,0,56-2.6,13.1-8.9,11.8-12,12-13.4-1.2-21-2.8-56,0-10.2-4.8-9.2-8.1-12-12" pointer-events="all"/>
    </g>
    <g>
      <circle class="st1" cx="-380.7" cy="146.1" r="25" pointer-events="all"/>
      <path class="st2" d="M-394.5,130.6h28.2c.7,0,1.2.5,1.2,1.2v21.4c0,.7-.5,1.2-1.2,1.2h-15.4c0,0,0,.2.1.2,2.8.5,5.5.9,5.5.9.1.5.3,1.1.6,1.9.4,1.1,1.5,1.2,1.8,1.2h1.3c.3,0,.6.3.6.6v1.2h-17.1v-1.2c0-.3.3-.6.6-.6h1.3c.3,0,1.4,0,1.8-1.2.6-1.9.9-3.1.9-3.1h-10.1c-.7,0-1.2-.5-1.2-1.2v-21.4c0-.7.5-1.2,1.2-1.2ZM-392.7,150.2h24.5v-16.5h-24.5v16.5ZM-379.8,139.1c.4,0,.7.2,1.1.2.2,0,.3.3.3.6s0,.6-.3.6c-.4,0-.8.2-1.1.3-.2,0-.4.2-.5.4h0c0,.2,0,.5,0,.6.2.3.4.6.6,1,.1.2,0,.4-.2.6-.2.2-.5.3-.6.2-.3-.2-.7-.4-1-.6-.2-.1-.4-.1-.6,0h0c-.2,0-.4.3-.4.5,0,.4-.2.7-.2,1.1,0,.2-.3.3-.6.3s-.6,0-.6-.3c0-.4-.2-.8-.3-1.1,0-.2-.2-.4-.4-.5h0c-.2,0-.4,0-.6,0-.3.2-.7.4-1,.6-.2.1-.4,0-.6-.2-.2-.2-.3-.5-.2-.6.2-.3.4-.7.6-1,.1-.2.1-.4,0-.6h0c0-.2-.3-.4-.5-.4-.4,0-.8-.2-1.1-.3-.2,0-.3-.3-.3-.6s0-.6.3-.6c.4,0,.8-.2,1.1-.2.2,0,.4-.2.5-.4h0c0-.2,0-.5,0-.6-.2-.3-.4-.7-.6-1-.1-.2,0-.4.2-.6s.5-.3.6-.2c.3.2.7.4,1,.6.2.1.4.1.6,0h0c.2,0,.4-.3.4-.5,0-.4.2-.7.3-1.1,0-.2.3-.3.6-.3s.6,0,.6.3c0,.4.2.8.2,1.1,0,.2.2.4.4.5h0c.2,0,.4,0,.6,0,.3-.2.6-.4,1-.6.2-.1.4,0,.6.2.2.2.3.5.2.6-.2.3-.4.7-.6,1-.1.2-.1.4,0,.6h0c0,.2.3.4.5.4ZM-385,139.9c0,.9.7,1.6,1.6,1.6s1.6-.7,1.6-1.6-.7-1.6-1.6-1.6-1.6.7-1.6,1.6ZM-372.1,144.4c-.3,0-.6-.1-.9-.2-.2,0-.3-.2-.4-.3h0c0-.2,0-.4,0-.5.2-.3.3-.5.5-.8,0-.2,0-.4-.2-.5-.2-.2-.4-.3-.5-.2-.3.2-.5.3-.8.5-.2.1-.4.1-.5,0h0c-.2,0-.3-.2-.3-.4,0-.3-.1-.6-.2-.9,0-.2-.3-.3-.5-.3s-.5,0-.5.3c0,.3-.1.6-.2.9,0,.2-.2.3-.3.4h0c-.2,0-.4,0-.5,0-.3-.2-.5-.3-.8-.5-.2-.1-.4,0-.5.2-.2.2-.3.4-.2.5.2.3.3.6.5.8,0,.2.1.3,0,.5h0c0,.2-.2.3-.4.4-.3,0-.6.1-.9.2-.2,0-.3.3-.3.5s0,.5.3.5c.3,0,.6.1.9.2.2,0,.3.2.4.3h0c0,.2,0,.4,0,.5-.2.3-.3.5-.5.8-.1.2,0,.4.2.5.2.2.4.3.5.2.3-.2.6-.3.8-.5.2,0,.3-.1.5,0h0c.2,0,.3.2.3.4,0,.3.1.6.2.9,0,.2.3.3.5.3s.5,0,.5-.3c0-.3.1-.6.2-.9,0-.2.2-.3.3-.4h0c.2,0,.4,0,.5,0,.3.2.5.3.8.5.2,0,.4,0,.5-.2.2-.2.3-.4.2-.5-.2-.3-.3-.5-.5-.8-.1-.2-.1-.3,0-.5h0c0-.2.2-.3.4-.3.3,0,.6-.1.9-.2.2,0,.3-.3.3-.5s0-.5-.3-.5ZM-376,146.3c-.7,0-1.3-.6-1.3-1.3s.6-1.3,1.3-1.3,1.3.6,1.3,1.3-.6,1.3-1.3,1.3Z"/>
    </g>
    <path class="st2" d="M-352.7,122.1c0,.2-.2.4-.3.6-.7,1.1-1.6,1.3-2.2,1.1-.1,0,0-.1,0-.1.8,0,1.4-.7,1.9-1.5.1-.2.2-.4.3-.6h4.7c0-.3,0-.8,0-1.3,0-2,.6-5.4,1-7.1,0-.5.1-1.2,0-1.7,0-.6-.3-1-.5-1.2-.4-.5-.9-.7-1.5-.7h-7.5c-1.4,0-2.2.9-2.2,1.9-.1,1.4,1,2.3,2.3,2.5,0-.5.2-.9.2-1.1-.5,0-1.4-.4-1.4-1.4,0-.5.5-.9,1-.9h0c.3,0,.5.1.7.3.3.4.4,1.1.3,1.9-.4,1.9-1.2,6.4-1.1,8.3,0,.8.3,3.3,2.5,3.3h6.7c1.7,0,2.6-1.4,3.1-2.5h-7.6ZM-354,115.6c-.2,0-.4.2-.4.4s.2.4.4.4.4-.2.4-.4-.2-.4-.4-.4ZM-354.1,114.1c0-.2.2-.4.4-.4s.4.2.4.4-.2.4-.4.4-.4-.2-.4-.4ZM-354.2,117.5c-.2,0-.4.2-.4.4s.2.4.4.4.4-.2.4-.4-.2-.4-.4-.4ZM-354.8,119.9c0-.2.2-.4.4-.4s.4.2.4.4-.2.4-.4.4-.4-.2-.4-.4ZM-353.1,116.4h3.9c0-.1,0-.3,0-.4s0-.3,0-.4h-3.9c0,.3,0,.6-.1.8ZM-348.9,114.5h-3.9c0-.3,0-.5.1-.8h0c0,0,3.9,0,3.9,0,0,.1,0,.3,0,.4,0,.1,0,.3,0,.4ZM-353.3,118.4h3.9v-.8c0,0-3.8,0-3.8,0,0,.3,0,.6-.1.8ZM-349.6,120.3h-3.9c0-.1,0-.2,0-.4,0-.1,0-.3,0-.5h3.9s0,0,0,0c0,.3,0,.5,0,.8Z"/>
  </g>
  <path class="st2" d="M-257.8,69.4c0,.2-.2.4-.3.6-.7,1.1-1.6,1.3-2.2,1.1-.1,0,0-.1,0-.1.8,0,1.4-.7,1.9-1.5.1-.2.2-.4.3-.6h4.7c0-.3,0-.8,0-1.3,0-2,.6-5.4,1-7.1,0-.5.1-1.2,0-1.7,0-.6-.3-1-.5-1.2-.4-.5-.9-.7-1.5-.7h-7.5c-1.4,0-2.2.9-2.2,1.9-.1,1.4,1,2.3,2.3,2.5,0-.5.2-.9.2-1.1-.5,0-1.4-.4-1.4-1.4,0-.5.5-.9,1-.9h0c.3,0,.5.1.7.3.3.4.4,1.1.3,1.9-.4,1.9-1.2,6.4-1.1,8.3,0,.8.3,3.3,2.5,3.3h6.7c1.7,0,2.6-1.4,3.1-2.5h-7.6ZM-259.1,62.8c-.2,0-.4.2-.4.4s.2.4.4.4.4-.2.4-.4-.2-.4-.4-.4ZM-259.3,61.3c0-.2.2-.4.4-.4s.4.2.4.4-.2.4-.4.4-.4-.2-.4-.4ZM-259.4,64.8c-.2,0-.4.2-.4.4s.2.4.4.4.4-.2.4-.4-.2-.4-.4-.4ZM-260,67.1c0-.2.2-.4.4-.4s.4.2.4.4-.2.4-.4.4-.4-.2-.4-.4ZM-258.2,63.7h3.9c0-.1,0-.3,0-.4s0-.3,0-.4h-3.9c0,.3,0,.6-.1.8ZM-254.1,61.8h-3.9c0-.3,0-.5.1-.8h0c0,0,3.9,0,3.9,0,0,.1,0,.3,0,.4,0,.1,0,.3,0,.4ZM-258.5,65.6h3.9v-.8c0,0-3.8,0-3.8,0,0,.3,0,.6-.1.8ZM-254.8,67.6h-3.9c0-.1,0-.2,0-.4,0-.1,0-.3,0-.5h3.9s0,0,0,0c0,.3,0,.5,0,.8Z"/>
  <g>
    <rect class="st0" x="-420.7" y="5.4" width="80" height="80" rx="-130.4" ry="-130.4" pointer-events="all"/>
    <path class="st4" d="M-408.7,5.4c11.6.3,33,2.5,56,0,12.8,1.4,9.8,2.3,12,12,1.3,22.7-1.5,37,0,56,3.6,3.6-7.5,8.2-12,12-13.7-1.9-19.3-2.5-56,0-7.3,5-8.4-8.9-12-12,3.1-16.8,2-31.3,0-56,3-6.1,1.4-13.6,12-12" pointer-events="all"/>
  </g>
  <g>
    <circle class="st1" cx="-380.7" cy="47.4" r="25" pointer-events="all"/>
    <path class="st2" d="M-394.5,31.9h28.2c.7,0,1.2.5,1.2,1.2v21.4c0,.7-.5,1.2-1.2,1.2h-15.4c0,0,0,.2.1.2,2.8.5,5.5.9,5.5.9.1.5.3,1.1.6,1.9.4,1.1,1.5,1.2,1.8,1.2h1.3c.3,0,.6.3.6.6v1.2h-17.1v-1.2c0-.3.3-.6.6-.6h1.3c.3,0,1.4,0,1.8-1.2.6-1.9.9-3.1.9-3.1h-10.1c-.7,0-1.2-.5-1.2-1.2v-21.4c0-.7.5-1.2,1.2-1.2ZM-392.7,51.5h24.5v-16.5h-24.5v16.5ZM-379.8,40.3c.4,0,.7.2,1.1.2.2,0,.3.3.3.6s0,.6-.3.6c-.4,0-.8.2-1.1.3-.2,0-.4.2-.5.4h0c0,.2,0,.5,0,.6.2.3.4.6.6,1,.1.2,0,.4-.2.6-.2.2-.5.3-.6.2-.3-.2-.7-.4-1-.6-.2-.1-.4-.1-.6,0h0c-.2,0-.4.3-.4.5,0,.4-.2.7-.2,1.1,0,.2-.3.3-.6.3s-.6,0-.6-.3c0-.4-.2-.8-.3-1.1,0-.2-.2-.4-.4-.5h0c-.2,0-.4,0-.6,0-.3.2-.7.4-1,.6-.2.1-.4,0-.6-.2-.2-.2-.3-.5-.2-.6.2-.3.4-.7.6-1,.1-.2.1-.4,0-.6h0c0-.2-.3-.4-.5-.4-.4,0-.8-.2-1.1-.3-.2,0-.3-.3-.3-.6s0-.6.3-.6c.4,0,.8-.2,1.1-.2.2,0,.4-.2.5-.4h0c0-.2,0-.5,0-.6-.2-.3-.4-.7-.6-1-.1-.2,0-.4.2-.6s.5-.3.6-.2c.3.2.7.4,1,.6.2.1.4.1.6,0h0c.2,0,.4-.3.4-.5,0-.4.2-.7.3-1.1,0-.2.3-.3.6-.3s.6,0,.6.3c0,.4.2.8.2,1.1,0,.2.2.4.4.5h0c.2,0,.4,0,.6,0,.3-.2.6-.4,1-.6.2-.1.4,0,.6.2.2.2.3.5.2.6-.2.3-.4.7-.6,1-.1.2-.1.4,0,.6h0c0,.2.3.4.5.4ZM-385,41.2c0,.9.7,1.6,1.6,1.6s1.6-.7,1.6-1.6-.7-1.6-1.6-1.6-1.6.7-1.6,1.6ZM-372.1,45.7c-.3,0-.6-.1-.9-.2-.2,0-.3-.2-.4-.3h0c0-.2,0-.4,0-.5.2-.3.3-.5.5-.8,0-.2,0-.4-.2-.5-.2-.2-.4-.3-.5-.2-.3.2-.5.3-.8.5-.2.1-.4.1-.5,0h0c-.2,0-.3-.2-.3-.4,0-.3-.1-.6-.2-.9,0-.2-.3-.3-.5-.3s-.5,0-.5.3c0,.3-.1.6-.2.9,0,.2-.2.3-.3.4h0c-.2,0-.4,0-.5,0-.3-.2-.5-.3-.8-.5-.2-.1-.4,0-.5.2-.2.2-.3.4-.2.5.2.3.3.6.5.8,0,.2.1.3,0,.5h0c0,.2-.2.3-.4.4-.3,0-.6.1-.9.2-.2,0-.3.3-.3.5s0,.5.3.5c.3,0,.6.1.9.2.2,0,.3.2.4.3h0c0,.2,0,.4,0,.5-.2.3-.3.5-.5.8-.1.2,0,.4.2.5.2.2.4.3.5.2.3-.2.6-.3.8-.5.2,0,.3-.1.5,0h0c.2,0,.3.2.3.4,0,.3.1.6.2.9,0,.2.3.3.5.3s.5,0,.5-.3c0-.3.1-.6.2-.9,0-.2.2-.3.3-.4h0c.2,0,.4,0,.5,0,.3.2.5.3.8.5.2,0,.4,0,.5-.2.2-.2.3-.4.2-.5-.2-.3-.3-.5-.5-.8-.1-.2-.1-.3,0-.5h0c0-.2.2-.3.4-.3.3,0,.6-.1.9-.2.2,0,.3-.3.3-.5s0-.5-.3-.5ZM-376,47.5c-.7,0-1.3-.6-1.3-1.3s.6-1.3,1.3-1.3,1.3.6,1.3,1.3-.6,1.3-1.3,1.3Z"/>
  </g>
  <path class="st2" d="M-354.7,24.4c0,.2-.2.4-.3.6-.7,1.1-1.6,1.3-2.2,1.1-.1,0,0-.1,0-.1.8,0,1.4-.7,1.9-1.5.1-.2.2-.4.3-.6h4.7c0-.3,0-.8,0-1.3,0-2,.6-5.4,1-7.1,0-.5.1-1.2,0-1.7,0-.6-.3-1-.5-1.2-.4-.5-.9-.7-1.5-.7h-7.5c-1.4,0-2.2.9-2.2,1.9-.1,1.4,1,2.3,2.3,2.5,0-.5.2-.9.2-1.1-.5,0-1.4-.4-1.4-1.4,0-.5.5-.9,1-.9h0c.3,0,.5.1.7.3.3.4.4,1.1.3,1.9-.4,1.9-1.2,6.4-1.1,8.3,0,.8.3,3.3,2.5,3.3h6.7c1.7,0,2.6-1.4,3.1-2.5h-7.6ZM-356,17.8c-.2,0-.4.2-.4.4s.2.4.4.4.4-.2.4-.4-.2-.4-.4-.4ZM-356.1,16.3c0-.2.2-.4.4-.4s.4.2.4.4-.2.4-.4.4-.4-.2-.4-.4ZM-356.2,19.8c-.2,0-.4.2-.4.4s.2.4.4.4.4-.2.4-.4-.2-.4-.4-.4ZM-356.8,22.1c0-.2.2-.4.4-.4s.4.2.4.4-.2.4-.4.4-.4-.2-.4-.4ZM-355.1,18.7h3.9c0-.1,0-.3,0-.4s0-.3,0-.4h-3.9c0,.3,0,.6-.1.8ZM-350.9,16.8h-3.9c0-.3,0-.5.1-.8h0c0,0,3.9,0,3.9,0,0,.1,0,.3,0,.4,0,.1,0,.3,0,.4ZM-355.3,20.6h3.9v-.8c0,0-3.8,0-3.8,0,0,.3,0,.6-.1.8ZM-351.6,22.6h-3.9c0-.1,0-.2,0-.4,0-.1,0-.3,0-.5h3.9s0,0,0,0c0,.3,0,.5,0,.8Z"/>
  <path class="st0" d=""/>
  <path class="st2" d="M99.8,21.3c0,.2-.2.4-.3.6-.7,1.1-1.6,1.3-2.2,1.1-.1,0,0-.1,0-.1.8,0,1.4-.7,1.9-1.5.1-.2.2-.4.3-.6h4.7c0-.3,0-.8,0-1.3,0-2,.6-5.4,1-7.1,0-.5.1-1.2,0-1.7,0-.6-.3-1-.5-1.2-.4-.5-.9-.7-1.5-.7h-7.5c-1.4,0-2.2.9-2.2,1.9-.1,1.4,1,2.3,2.3,2.5,0-.5.2-.9.2-1.1-.5,0-1.4-.4-1.4-1.4,0-.5.5-.9,1-.9h0c.3,0,.5.1.7.3.3.4.4,1.1.3,1.9-.4,1.9-1.2,6.4-1.1,8.3,0,.8.3,3.3,2.5,3.3h6.7c1.7,0,2.6-1.4,3.1-2.5h-7.6ZM98.5,14.8c-.2,0-.4.2-.4.4s.2.4.4.4.4-.2.4-.4-.2-.4-.4-.4ZM98.4,13.3c0-.2.2-.4.4-.4s.4.2.4.4-.2.4-.4.4-.4-.2-.4-.4ZM98.3,16.7c-.2,0-.4.2-.4.4s.2.4.4.4.4-.2.4-.4-.2-.4-.4-.4ZM97.7,19.1c0-.2.2-.4.4-.4s.4.2.4.4-.2.4-.4.4-.4-.2-.4-.4ZM99.4,15.6h3.9c0-.1,0-.3,0-.4s0-.3,0-.4h-3.9c0,.3,0,.6-.1.8ZM103.6,13.7h-3.9c0-.3,0-.5.1-.8h0c0,0,3.9,0,3.9,0,0,.1,0,.3,0,.4,0,.1,0,.3,0,.4ZM99.2,17.6h3.9v-.8c0,0-3.8,0-3.8,0,0,.3,0,.6-.1.8ZM102.9,19.5h-3.9c0-.1,0-.2,0-.4,0-.1,0-.3,0-.5h3.9s0,0,0,0c0,.3,0,.5,0,.8Z"/>
  <g>
    <path class="st0" d="M-139.3,172.1c-.7,3.3-1.6,5.7-2.6,7.4,1.6-2,2.6-4.6,2.6-7.4Z"/>
    <path class="st0" d="M-219.3,172.1c0,6.6,5.4,12,12,12-10.2-4.8-9.2-8.1-12-12Z"/>
    <path class="st0" d="M-207.3,184.1h56c-13.4-1.2-21-2.8-56,0Z"/>
    <path class="st0" d="M-219.3,116.1c1.3-2.8,2.1-5.5,2.8-7.6-1.7,2.1-2.8,4.7-2.8,7.6Z"/>
    <path class="st0" d="M-150.7,184.1c-.2,0-.4,0-.6,0,.2,0,.4,0,.6,0Z"/>
    <path class="st5" d="M-219.3,172.1v-56c-.1,18-2.2,36.7,0,56Z"/>
    <path class="st5" d="M-159.2,103.7c-30-1.8-37.1-2.4-48.1.5h48.1v-.5Z"/>
    <path class="st5" d="M-207.3,104.1c-6.5-3.5-7.6-.8-9.2,4.4,2.2-2.7,5.5-4.4,9.2-4.4Z"/>
    <path class="st5" d="M-139.3,172.1c.7-11.6,1.2-27.9.7-42.9h-.7v42.9Z"/>
    <path class="st5" d="M-150.7,184.1c2.4,0,6,.1,8.8-4.5-2.1,2.6-5.2,4.3-8.8,4.5Z"/>
    <path class="st5" d="M-159.8,125.9l.6-21.7h-48.1c-3.7,0-7,1.7-9.2,4.4-.7,2.2-1.5,4.8-2.8,7.6v56c2.8,3.9,1.8,7.2,12,12,35-2.8,42.6-1.2,56,0,.2,0,.4,0,.6,0,3.5-.2,6.7-1.9,8.8-4.5,1-1.7,1.9-4.1,2.6-7.4v-42.9l-20.5-3.4Z"/>
    <path class="st5" d="M-158.1,124.6l21.3,2v-13.1c0-6.6-5.4-12-12-12h-7.9l-1.4,23.1Z"/>
  </g>
  <g>
    <path class="st0" d="M-45.9,126.9c-2.8,1.6-6.6,2.8-9.4,4.5,3.8,0,7.2-1.8,9.4-4.5Z"/>
    <path class="st0" d="M-85.6,51.4h-25.7c8.1.6,16,.3,25.7,0Z"/>
    <path class="st0" d="M-76.3,131.4h21c-8.5-.6-14.5-.3-21,0Z"/>
    <path class="st0" d="M-123.3,63.4v56c2.6-20.8,4.5-36.1,0-56Z"/>
    <path class="st0" d="M-123.3,63.4c1.6-3.9,2.6-6.6,3.4-8.4-2.1,2.2-3.4,5.1-3.4,8.4Z"/>
    <path class="st0" d="M-111.3,131.4c-2.4-1.1-6.4-2.4-9.2-4.3,2.2,2.7,5.5,4.3,9.2,4.3Z"/>
    <path class="st6" d="M-64.3,51.2c-8.1-.1-15.1,0-21.3.2h21.3v-.2Z"/>
    <path class="st6" d="M-76.3,131.4h-35c17.1,1,26.5.4,35,0Z"/>
    <path class="st6" d="M-43.3,119.4c0,2.8-1,5.4-2.6,7.5,3.1-1.7,5-3.9,2.6-7.5Z"/>
    <path class="st6" d="M-120.5,127c-1.7-2.1-2.8-4.7-2.8-7.7-1.5,3.5.2,5.9,2.8,7.7Z"/>
    <path class="st6" d="M-43.3,119.4c.2-16,.5-28.1.3-42.8h-.3v42.8Z"/>
    <path class="st6" d="M-111.3,51.4c-5.7-.2-6.6-.7-8.6,3.6,2.2-2.2,5.2-3.6,8.6-3.6Z"/>
    <path class="st6" d="M-63.3,73.4l-1-22h-21.3c-9.6.3-17.6.6-25.7,0-3.4,0-6.4,1.4-8.6,3.6-.8,1.8-1.8,4.5-3.4,8.4,4.5,19.9,2.6,35.2,0,56,0,2.9,1,5.6,2.8,7.7,2.9,2,6.9,3.2,9.2,4.3h35c6.5-.3,12.5-.6,21,0,2.8-1.7,6.6-3,9.4-4.5,1.6-2.1,2.6-4.6,2.6-7.5v-42.8l-19.9-3.2Z"/>
    <path class="st6" d="M-61.2,71.9l21,2.6v-13.2c-.3-1.8-.5-3.3-.9-4.6-.9-2.1-2.3-3.8-4.1-5.1-1.6-.9-3.9-1.6-7-2.3h-9v22.6Z"/>
  </g>
  <path class="st4" d="M-158.1,26.9l-1.7-20.8c-19.7,1.2-37.3-.5-47.5-.7-3.9,0-7.4,1.9-9.6,4.8-.8,2.2-1.2,4.8-2.4,7.2,2,24.7,3.1,39.2,0,56,1.9,1.6,3.1,6.4,5,9.7,2,1.4,4.4,2.3,7,2.3,36.6-2.5,42.3-1.9,56,0,2.9-2.5,8.6-5.3,11.3-7.9.5-1.3.7-2.7.7-4.1-.8-10.2-.4-19.1,0-28.6v-16l-18.8-1.9Z"/>
  <g>
    <circle class="st1" cx="-83.3" cy="93.4" r="25" pointer-events="all"/>
    <path class="st2" d="M-97.6,77.4h28.6c.7,0,1.2.6,1.2,1.2v21.7c0,.7-.6,1.2-1.2,1.2h-15.6c0,0,0,.2.2.2,2.8.6,5.6,1,5.6,1,.2.5.3,1.1.6,1.9.4,1.1,1.5,1.2,1.8,1.2h1.3c.3,0,.6.3.6.6v1.2h-17.4v-1.2c0-.3.3-.6.6-.6h1.3c.3,0,1.4-.1,1.8-1.2.6-1.9.9-3.1.9-3.1h-10.2c-.7,0-1.2-.6-1.2-1.2v-21.7c0-.7.6-1.2,1.2-1.2ZM-95.7,97.3h24.8v-16.8h-24.8v16.8ZM-82.6,86c.4,0,.8.2,1.2.2.2,0,.3.3.3.6s0,.6-.3.6c-.4,0-.8.2-1.2.3-.2,0-.4.2-.5.4h0c0,.2,0,.5,0,.7.2.3.4.6.6,1,.1.2,0,.4-.2.7-.2.2-.5.3-.7.2-.3-.2-.7-.4-1-.6-.2-.1-.4-.1-.6,0h0c-.2,0-.4.3-.4.5,0,.4-.2.8-.2,1.2,0,.2-.3.3-.6.3s-.6,0-.6-.3c0-.4-.2-.8-.3-1.2,0-.2-.2-.4-.4-.5h0c-.2,0-.4,0-.6,0-.3.2-.7.4-1,.6-.2.1-.4,0-.7-.2-.2-.2-.3-.5-.2-.7.2-.3.4-.7.6-1,.1-.2.1-.4,0-.6h0c0-.2-.3-.4-.5-.4-.4,0-.8-.2-1.2-.3-.2,0-.3-.3-.3-.6s0-.6.3-.6c.4,0,.8-.2,1.2-.2.2,0,.4-.2.5-.4h0c0-.2,0-.5,0-.6-.2-.3-.4-.7-.6-1-.1-.2,0-.4.2-.7s.5-.3.7-.2c.3.2.7.4,1,.6.2.1.4.1.6,0h0c.2,0,.4-.3.4-.5,0-.4.2-.8.3-1.2,0-.2.3-.3.6-.3s.6,0,.6.3c0,.4.2.8.2,1.1,0,.2.2.4.4.5h0c.2,0,.5,0,.6,0,.3-.2.6-.4,1-.6.2-.1.4,0,.7.2.2.2.3.5.2.7-.2.3-.4.7-.6,1-.1.2-.1.4,0,.6h0c0,.2.3.4.5.4ZM-87.9,86.9c0,.9.7,1.6,1.6,1.6s1.6-.7,1.6-1.6-.7-1.6-1.6-1.6-1.6.7-1.6,1.6ZM-74.8,91.5c-.3,0-.6-.1-.9-.2-.2,0-.3-.2-.4-.3h0c0-.2,0-.4,0-.5.2-.3.3-.5.5-.8,0-.2,0-.4-.2-.5-.2-.2-.4-.3-.5-.2-.3.2-.5.4-.8.5-.2.1-.4.1-.5,0h0c-.2,0-.3-.2-.3-.4,0-.3-.1-.6-.2-.9,0-.2-.3-.3-.5-.3s-.5,0-.5.3c0,.3-.1.6-.2.9,0,.2-.2.3-.3.4h0c-.2,0-.4,0-.5,0-.3-.2-.5-.3-.8-.5-.2-.1-.4,0-.5.2-.2.2-.3.4-.2.5.2.3.4.6.5.8,0,.2.1.3,0,.5h0c0,.2-.2.3-.4.4-.3,0-.6.1-.9.2-.2,0-.3.3-.3.5s0,.5.3.5c.3,0,.6.1,1,.2.2,0,.3.2.4.3h0c0,.2,0,.4,0,.5-.2.3-.3.5-.5.8-.1.2,0,.4.2.5.2.2.4.3.5.2.3-.2.6-.4.8-.5.2,0,.3-.1.5,0h0c.2,0,.3.2.3.4,0,.3.1.6.2,1,0,.2.3.3.5.3s.5,0,.5-.3c0-.3.1-.6.2-.9,0-.2.2-.3.3-.4h0c.2,0,.4,0,.5,0,.3.2.5.3.8.5.2,0,.4,0,.5-.2.2-.2.3-.4.2-.5-.2-.3-.4-.6-.5-.8-.1-.2-.1-.4,0-.5h0c0-.2.2-.3.4-.4.3,0,.6-.1,1-.2.2,0,.3-.3.3-.5s0-.5-.3-.5ZM-78.8,93.3c-.7,0-1.3-.6-1.3-1.3s.6-1.3,1.3-1.3,1.3.6,1.3,1.3-.6,1.3-1.3,1.3Z"/>
  </g>
  <g>
    <circle class="st1" cx="-179.3" cy="146.1" r="25" pointer-events="all"/>
    <path class="st2" d="M-193.1,130.6h28.2c.7,0,1.2.5,1.2,1.2v21.4c0,.7-.5,1.2-1.2,1.2h-15.4c0,0,0,.2.1.2,2.8.5,5.5.9,5.5.9.1.5.3,1.1.6,1.9.4,1.1,1.5,1.2,1.8,1.2h1.3c.3,0,.6.3.6.6v1.2h-17.1v-1.2c0-.3.3-.6.6-.6h1.3c.3,0,1.4,0,1.8-1.2.6-1.9.9-3.1.9-3.1h-10.1c-.7,0-1.2-.5-1.2-1.2v-21.4c0-.7.5-1.2,1.2-1.2ZM-191.3,150.2h24.5v-16.5h-24.5v16.5ZM-178.4,139.1c.4,0,.7.2,1.1.2.2,0,.3.3.3.6s0,.6-.3.6c-.4,0-.8.2-1.1.3-.2,0-.4.2-.5.4h0c0,.2,0,.5,0,.6.2.3.4.6.6,1,.1.2,0,.4-.2.6-.2.2-.5.3-.6.2-.3-.2-.7-.4-1-.6-.2-.1-.4-.1-.6,0h0c-.2,0-.4.3-.4.5,0,.4-.2.7-.2,1.1,0,.2-.3.3-.6.3s-.6,0-.6-.3c0-.4-.2-.8-.3-1.1,0-.2-.2-.4-.4-.5h0c-.2,0-.4,0-.6,0-.3.2-.7.4-1,.6-.2.1-.4,0-.6-.2-.2-.2-.3-.5-.2-.6.2-.3.4-.7.6-1,.1-.2.1-.4,0-.6h0c0-.2-.3-.4-.5-.4-.4,0-.8-.2-1.1-.3-.2,0-.3-.3-.3-.6s0-.6.3-.6c.4,0,.8-.2,1.1-.2.2,0,.4-.2.5-.4h0c0-.2,0-.5,0-.6-.2-.3-.4-.7-.6-1-.1-.2,0-.4.2-.6s.5-.3.6-.2c.3.2.7.4,1,.6.2.1.4.1.6,0h0c.2,0,.4-.3.4-.5,0-.4.2-.7.3-1.1,0-.2.3-.3.6-.3s.6,0,.6.3c0,.4.2.8.2,1.1,0,.2.2.4.4.5h0c.2,0,.4,0,.6,0,.3-.2.6-.4,1-.6.2-.1.4,0,.6.2.2.2.3.5.2.6-.2.3-.4.7-.6,1-.1.2-.1.4,0,.6h0c0,.2.3.4.5.4ZM-183.6,139.9c0,.9.7,1.6,1.6,1.6s1.6-.7,1.6-1.6-.7-1.6-1.6-1.6-1.6.7-1.6,1.6ZM-170.7,144.4c-.3,0-.6-.1-.9-.2-.2,0-.3-.2-.4-.3h0c0-.2,0-.4,0-.5.2-.3.3-.5.5-.8,0-.2,0-.4-.2-.5-.2-.2-.4-.3-.5-.2-.3.2-.5.3-.8.5-.2.1-.4.1-.5,0h0c-.2,0-.3-.2-.3-.4,0-.3-.1-.6-.2-.9,0-.2-.3-.3-.5-.3s-.5,0-.5.3c0,.3-.1.6-.2.9,0,.2-.2.3-.3.4h0c-.2,0-.4,0-.5,0-.3-.2-.5-.3-.8-.5-.2-.1-.4,0-.5.2-.2.2-.3.4-.2.5.2.3.3.6.5.8,0,.2.1.3,0,.5h0c0,.2-.2.3-.4.4-.3,0-.6.1-.9.2-.2,0-.3.3-.3.5s0,.5.3.5c.3,0,.6.1.9.2.2,0,.3.2.4.3h0c0,.2,0,.4,0,.5-.2.3-.3.5-.5.8-.1.2,0,.4.2.5.2.2.4.3.5.2.3-.2.6-.3.8-.5.2,0,.3-.1.5,0h0c.2,0,.3.2.3.4,0,.3.1.6.2.9,0,.2.3.3.5.3s.5,0,.5-.3c0-.3.1-.6.2-.9,0-.2.2-.3.3-.4h0c.2,0,.4,0,.5,0,.3.2.5.3.8.5.2,0,.4,0,.5-.2.2-.2.3-.4.2-.5-.2-.3-.3-.5-.5-.8-.1-.2-.1-.3,0-.5h0c0-.2.2-.3.4-.3.3,0,.6-.1.9-.2.2,0,.3-.3.3-.5s0-.5-.3-.5ZM-174.6,146.3c-.7,0-1.3-.6-1.3-1.3s.6-1.3,1.3-1.3,1.3.6,1.3,1.3-.6,1.3-1.3,1.3Z"/>
  </g>
  <path class="st2" d="M-147.2,119.4c0,.2-.2.4-.3.6-.7,1.1-1.6,1.3-2.2,1.1-.1,0,0-.1,0-.1.8,0,1.4-.7,1.9-1.5.1-.2.2-.4.3-.6h4.7c0-.3,0-.8,0-1.3,0-2,.6-5.4,1-7.1,0-.5.1-1.2,0-1.7,0-.6-.3-1-.5-1.2-.4-.5-.9-.7-1.5-.7h-7.5c-1.4,0-2.2.9-2.2,1.9-.1,1.4,1,2.3,2.3,2.5,0-.5.2-.9.2-1.1-.5,0-1.4-.4-1.4-1.4,0-.5.5-.9,1-.9h0c.3,0,.5.1.7.3.3.4.4,1.1.3,1.9-.4,1.9-1.2,6.4-1.1,8.3,0,.8.3,3.3,2.5,3.3h6.7c1.7,0,2.6-1.4,3.1-2.5h-7.6ZM-148.5,112.8c-.2,0-.4.2-.4.4s.2.4.4.4.4-.2.4-.4-.2-.4-.4-.4ZM-148.6,111.3c0-.2.2-.4.4-.4s.4.2.4.4-.2.4-.4.4-.4-.2-.4-.4ZM-148.7,114.7c-.2,0-.4.2-.4.4s.2.4.4.4.4-.2.4-.4-.2-.4-.4-.4ZM-149.3,117.1c0-.2.2-.4.4-.4s.4.2.4.4-.2.4-.4.4-.4-.2-.4-.4ZM-147.6,113.7h3.9c0-.1,0-.3,0-.4s0-.3,0-.4h-3.9c0,.3,0,.6-.1.8ZM-143.4,111.7h-3.9c0-.3,0-.5.1-.8h0c0,0,3.9,0,3.9,0,0,.1,0,.3,0,.4,0,.1,0,.3,0,.4ZM-147.8,115.6h3.9v-.8c0,0-3.8,0-3.8,0,0,.3,0,.6-.1.8ZM-144.1,117.6h-3.9c0-.1,0-.2,0-.4,0-.1,0-.3,0-.5h3.9s0,0,0,0c0,.3,0,.5,0,.8Z"/>
  <path class="st2" d="M-52.1,66.4c0,.2-.2.4-.3.6-.7,1.1-1.6,1.3-2.2,1.1-.1,0,0-.1,0-.1.8,0,1.4-.7,1.9-1.5.1-.2.2-.4.3-.6h4.7c0-.3,0-.8,0-1.3,0-2,.6-5.4,1-7.1,0-.5.1-1.2,0-1.7,0-.6-.3-1-.5-1.2-.4-.5-.9-.7-1.5-.7h-7.5c-1.4,0-2.2.9-2.2,1.9-.1,1.4,1,2.3,2.3,2.5,0-.5.2-.9.2-1.1-.5,0-1.4-.4-1.4-1.4,0-.5.5-.9,1-.9h0c.3,0,.5.1.7.3.3.4.4,1.1.3,1.9-.4,1.9-1.2,6.4-1.1,8.3,0,.8.3,3.3,2.5,3.3h6.7c1.7,0,2.6-1.4,3.1-2.5h-7.6ZM-53.4,59.8c-.2,0-.4.2-.4.4s.2.4.4.4.4-.2.4-.4-.2-.4-.4-.4ZM-53.5,58.3c0-.2.2-.4.4-.4s.4.2.4.4-.2.4-.4.4-.4-.2-.4-.4ZM-53.7,61.7c-.2,0-.4.2-.4.4s.2.4.4.4.4-.2.4-.4-.2-.4-.4-.4ZM-54.2,64.1c0-.2.2-.4.4-.4s.4.2.4.4-.2.4-.4.4-.4-.2-.4-.4ZM-52.5,60.7h3.9c0-.1,0-.3,0-.4s0-.3,0-.4h-3.9c0,.3,0,.6-.1.8ZM-48.3,58.7h-3.9c0-.3,0-.5.1-.8h0c0,0,3.9,0,3.9,0,0,.1,0,.3,0,.4,0,.1,0,.3,0,.4ZM-52.8,62.6h3.9v-.8c0,0-3.8,0-3.8,0,0,.3,0,.6-.1.8ZM-49,64.6h-3.9c0-.1,0-.2,0-.4,0-.1,0-.3,0-.5h3.9s0,0,0,0c0,.3,0,.5,0,.8Z"/>
  <g>
    <circle class="st1" cx="-179.3" cy="47.4" r="25" pointer-events="all"/>
    <path class="st2" d="M-193.1,31.9h28.2c.7,0,1.2.5,1.2,1.2v21.4c0,.7-.5,1.2-1.2,1.2h-15.4c0,0,0,.2.1.2,2.8.5,5.5.9,5.5.9.1.5.3,1.1.6,1.9.4,1.1,1.5,1.2,1.8,1.2h1.3c.3,0,.6.3.6.6v1.2h-17.1v-1.2c0-.3.3-.6.6-.6h1.3c.3,0,1.4,0,1.8-1.2.6-1.9.9-3.1.9-3.1h-10.1c-.7,0-1.2-.5-1.2-1.2v-21.4c0-.7.5-1.2,1.2-1.2ZM-191.3,51.5h24.5v-16.5h-24.5v16.5ZM-178.4,40.3c.4,0,.7.2,1.1.2.2,0,.3.3.3.6s0,.6-.3.6c-.4,0-.8.2-1.1.3-.2,0-.4.2-.5.4h0c0,.2,0,.5,0,.6.2.3.4.6.6,1,.1.2,0,.4-.2.6-.2.2-.5.3-.6.2-.3-.2-.7-.4-1-.6-.2-.1-.4-.1-.6,0h0c-.2,0-.4.3-.4.5,0,.4-.2.7-.2,1.1,0,.2-.3.3-.6.3s-.6,0-.6-.3c0-.4-.2-.8-.3-1.1,0-.2-.2-.4-.4-.5h0c-.2,0-.4,0-.6,0-.3.2-.7.4-1,.6-.2.1-.4,0-.6-.2-.2-.2-.3-.5-.2-.6.2-.3.4-.7.6-1,.1-.2.1-.4,0-.6h0c0-.2-.3-.4-.5-.4-.4,0-.8-.2-1.1-.3-.2,0-.3-.3-.3-.6s0-.6.3-.6c.4,0,.8-.2,1.1-.2.2,0,.4-.2.5-.4h0c0-.2,0-.5,0-.6-.2-.3-.4-.7-.6-1-.1-.2,0-.4.2-.6s.5-.3.6-.2c.3.2.7.4,1,.6.2.1.4.1.6,0h0c.2,0,.4-.3.4-.5,0-.4.2-.7.3-1.1,0-.2.3-.3.6-.3s.6,0,.6.3c0,.4.2.8.2,1.1,0,.2.2.4.4.5h0c.2,0,.4,0,.6,0,.3-.2.6-.4,1-.6.2-.1.4,0,.6.2.2.2.3.5.2.6-.2.3-.4.7-.6,1-.1.2-.1.4,0,.6h0c0,.2.3.4.5.4ZM-183.6,41.2c0,.9.7,1.6,1.6,1.6s1.6-.7,1.6-1.6-.7-1.6-1.6-1.6-1.6.7-1.6,1.6ZM-170.7,45.7c-.3,0-.6-.1-.9-.2-.2,0-.3-.2-.4-.3h0c0-.2,0-.4,0-.5.2-.3.3-.5.5-.8,0-.2,0-.4-.2-.5-.2-.2-.4-.3-.5-.2-.3.2-.5.3-.8.5-.2.1-.4.1-.5,0h0c-.2,0-.3-.2-.3-.4,0-.3-.1-.6-.2-.9,0-.2-.3-.3-.5-.3s-.5,0-.5.3c0,.3-.1.6-.2.9,0,.2-.2.3-.3.4h0c-.2,0-.4,0-.5,0-.3-.2-.5-.3-.8-.5-.2-.1-.4,0-.5.2-.2.2-.3.4-.2.5.2.3.3.6.5.8,0,.2.1.3,0,.5h0c0,.2-.2.3-.4.4-.3,0-.6.1-.9.2-.2,0-.3.3-.3.5s0,.5.3.5c.3,0,.6.1.9.2.2,0,.3.2.4.3h0c0,.2,0,.4,0,.5-.2.3-.3.5-.5.8-.1.2,0,.4.2.5.2.2.4.3.5.2.3-.2.6-.3.8-.5.2,0,.3-.1.5,0h0c.2,0,.3.2.3.4,0,.3.1.6.2.9,0,.2.3.3.5.3s.5,0,.5-.3c0-.3.1-.6.2-.9,0-.2.2-.3.3-.4h0c.2,0,.4,0,.5,0,.3.2.5.3.8.5.2,0,.4,0,.5-.2.2-.2.3-.4.2-.5-.2-.3-.3-.5-.5-.8-.1-.2-.1-.3,0-.5h0c0-.2.2-.3.4-.3.3,0,.6-.1.9-.2.2,0,.3-.3.3-.5s0-.5-.3-.5ZM-174.6,47.5c-.7,0-1.3-.6-1.3-1.3s.6-1.3,1.3-1.3,1.3.6,1.3,1.3-.6,1.3-1.3,1.3Z"/>
  </g>
  <path class="st0" d="M-219.3,73.4c0,4,2,7.5,5,9.7-1.8-3.3-3-8.1-5-9.7Z"/>
  <path class="st0" d="M-159.8,6.1v-.7h-47.5c10.2.2,27.8,1.9,47.5.7Z"/>
  <path class="st0" d="M-140,77.5c-2.7,2.6-8.4,5.4-11.3,7.9,5.2,0,9.6-3.3,11.3-7.9Z"/>
  <path class="st0" d="M-219.3,17.4c1.2-2.4,1.6-5,2.4-7.2-1.5,2-2.4,4.5-2.4,7.2Z"/>
  <path class="st0" d="M-207.3,85.4h56c-13.7-1.9-19.4-2.5-56,0Z"/>
  <path class="st0" d="M-219.3,17.4v56c3.1-16.8,2-31.3,0-56Z"/>
  <path class="st0" d="M-139.3,73.4v-28.6c-.4,9.5-.8,18.4,0,28.6Z"/>
  <path class="st4" d="M-139.3,73.4c0,1.4-.3,2.8-.7,4.1,1.5-1.4,2-2.8.7-4.1Z"/>
  <path class="st4" d="M-207.3,85.4c-2.6,0-5-.9-7-2.3,1.6,2.8,3.6,4.6,7,2.3Z"/>
  <path class="st4" d="M-139.3,44.8c.2-5.1.4-10.3.3-16h-.3v16Z"/>
  <path class="st4" d="M-207.3,5.4c-6.5-1-8.4,1.4-9.6,4.8,2.2-2.9,5.7-4.8,9.6-4.8Z"/>
  <path class="st4" d="M-156.7,25.2l19.1,1.7v-11.4c-.4-1.7-.6-3.1-.8-4.3-1.4-3.7-4.5-6.5-8.4-7.4-.8-.1-1.8-.2-2.8-.3-2.9.3-5.7.5-8.5.7l1.4,20.9Z"/>
  <path class="st2" d="M-147.9,20.2c0,.2-.2.4-.3.6-.7,1.1-1.6,1.3-2.2,1.1-.1,0,0-.1,0-.1.8,0,1.4-.7,1.9-1.5.1-.2.2-.4.3-.6h4.7c0-.3,0-.8,0-1.3,0-2,.6-5.4,1-7.1,0-.5.1-1.2,0-1.7,0-.6-.3-1-.5-1.2-.4-.5-.9-.7-1.5-.7h-7.5c-1.4,0-2.2.9-2.2,1.9-.1,1.4,1,2.3,2.3,2.5,0-.5.2-.9.2-1.1-.5,0-1.4-.4-1.4-1.4,0-.5.5-.9,1-.9h0c.3,0,.5.1.7.3.3.4.4,1.1.3,1.9-.4,1.9-1.2,6.4-1.1,8.3,0,.8.3,3.3,2.5,3.3h6.7c1.7,0,2.6-1.4,3.1-2.5h-7.6ZM-149.2,13.6c-.2,0-.4.2-.4.4s.2.4.4.4.4-.2.4-.4-.2-.4-.4-.4ZM-149.3,12.1c0-.2.2-.4.4-.4s.4.2.4.4-.2.4-.4.4-.4-.2-.4-.4ZM-149.4,15.6c-.2,0-.4.2-.4.4s.2.4.4.4.4-.2.4-.4-.2-.4-.4-.4ZM-150,17.9c0-.2.2-.4.4-.4s.4.2.4.4-.2.4-.4.4-.4-.2-.4-.4ZM-148.3,14.5h3.9c0-.1,0-.3,0-.4s0-.3,0-.4h-3.9c0,.3,0,.6-.1.8ZM-144.1,12.6h-3.9c0-.3,0-.5.1-.8h0c0,0,3.9,0,3.9,0,0,.1,0,.3,0,.4,0,.1,0,.3,0,.4ZM-148.6,16.4h3.9v-.8c0,0-3.8,0-3.8,0,0,.3,0,.6-.1.8ZM-144.8,18.4h-3.9c0-.1,0-.2,0-.4,0-.1,0-.3,0-.5h3.9s0,0,0,0c0,.3,0,.5,0,.8Z"/>
  <rect class="st5" x="198.4" y="19.4" width="134.1" height="126.3"/>
</svg>