<svg width="50" height="50" viewBox="0 0 50 50" fill="none" xmlns="http://www.w3.org/2000/svg">
<path d="M34.2206 30.4838C35.3631 29.3413 37.2155 29.3413 38.358 30.4838C39.5005 31.6263 39.5005 33.4787 38.358 34.6212L33.9545 39.0246C33.9067 39.1127 33.8458 39.1956 33.7713 39.2702L31.1385 41.9031C30.723 42.3185 30.0494 42.3185 29.634 41.9031L22.4629 34.732L24.5316 32.6633C25.6741 31.5208 27.5264 31.5209 28.6689 32.6633L30.355 34.3494L34.2206 30.4838Z" fill="white"/>
<path fill-rule="evenodd" clip-rule="evenodd" d="M36.6244 12.1511C40.1038 15.6305 40.1038 21.2717 36.6244 24.7511C34.0589 27.3167 30.318 27.9903 27.1351 26.7724C26.7121 26.6105 26.226 26.6868 25.9057 27.0071L18.4766 34.4362L21.9557 37.9153C22.3712 38.3308 22.3712 39.0044 21.9557 39.4198L19.3229 42.0526C18.9074 42.4681 18.2338 42.4681 17.8184 42.0526L14.3393 38.5735L13.7751 39.1377C13.3596 39.5532 12.6861 39.5532 12.2706 39.1377L9.63776 36.5049C9.22231 36.0894 9.22231 35.4158 9.63776 35.0004L21.7684 22.8698C22.0887 22.5495 22.165 22.0634 22.0031 21.6404C20.7852 18.4574 21.4588 14.7166 24.0244 12.1511C27.5038 8.67165 33.145 8.67165 36.6244 12.1511ZM32.4871 16.2884C31.2927 15.094 29.3561 15.094 28.1617 16.2884C26.9673 17.4828 26.9673 19.4193 28.1617 20.6138C29.3561 21.8082 31.2927 21.8082 32.4871 20.6138C33.6815 19.4193 33.6815 17.4828 32.4871 16.2884Z" fill="white"/>
</svg>
