<svg width="24" height="27" viewBox="0 0 24 27" fill="none" xmlns="http://www.w3.org/2000/svg">
    <path fill-rule="evenodd" clip-rule="evenodd" d="M12 7C7.58172 7 4 10.5817 4 15C4 19.4183 7.58172 23 12 23C16.4183 23 20 19.4183 20 15C20 10.5817 16.4183 7 12 7ZM2 15C2 9.47715 6.47715 5 12 5C17.5228 5 22 9.47715 22 15C22 20.5228 17.5228 25 12 25C6.47715 25 2 20.5228 2 15ZM15.7071 12.2929C16.0976 12.6834 16.0976 13.3166 15.7071 13.7071L11.7071 17.7071C11.3166 18.0976 10.6834 18.0976 10.2929 17.7071L8.29289 15.7071C7.90237 15.3166 7.90237 14.6834 8.29289 14.2929C8.68342 13.9024 9.31658 13.9024 9.70711 14.2929L11 15.5858L14.2929 12.2929C14.6834 11.9024 15.3166 11.9024 15.7071 12.2929Z" fill="#154273"/>
</svg>
