<svg width="96" height="97" viewBox="0 0 96 97" fill="none" xmlns="http://www.w3.org/2000/svg">
<circle cx="48" cy="48.4888" r="47" fill="white" stroke="black" stroke-width="2"/>
<g clip-path="url(#clip0_1033_4243)">
<path d="M24.5764 57.3824C24.0321 57.3824 23.4787 57.2644 22.9547 57.0139C21.0747 56.1162 20.2723 53.8731 21.1639 51.9894C21.6685 50.9232 26.3505 41.5164 35.0658 39.896C40.1485 38.9558 45.2186 40.856 50.1466 45.5511C53.403 48.6521 56.4573 49.9782 59.2191 49.4949C63.6158 48.7256 67.1462 43.4673 68.036 41.686C68.9702 39.8181 71.2388 39.0613 73.1085 39.9941C74.9765 40.9276 75.7333 43.1983 74.8004 45.0666C74.5907 45.4859 69.56 55.3632 60.5217 56.9432C55.2634 57.8664 50.0191 55.8716 44.931 51.0264C41.8643 48.1063 39.0165 46.8605 36.467 47.3273C32.2688 48.0938 28.9264 53.2963 27.9928 55.2365C27.3413 56.5898 25.9862 57.3824 24.5763 57.3824L24.5764 57.3824Z" fill="black"/>
</g>
<path d="M92.08 14.9486C91.76 13.7765 90.32 12.8883 88.42 12.6909C82.96 12.1357 73.82 12.1357 72 12.1357C70.18 12.1357 61.04 12.1357 55.56 12.7032C53.66 12.8883 52.22 13.7765 51.92 14.9486C51 18.3289 51 23.9668 51 25.0895C51 26.2121 51 31.8501 51.92 35.2304C52.24 36.4024 53.68 37.2907 55.58 37.488C61.06 38.0555 70.18 38.0555 72.02 38.0555C73.84 38.0555 82.98 38.0555 88.46 37.488C90.36 37.2907 91.8 36.4024 92.12 35.2304C93.04 31.8501 93.04 26.2245 93.04 25.0895C93 21.7092 93 18.3289 92.08 14.9486Z" fill="white" stroke="black" stroke-width="2"/>
<path d="M85.8842 18.9756V32.0956H83.2842V18.9756H85.8842Z" fill="black"/>
<path d="M74.81 27.6356V32.0956H72.21V18.9756H76.47C79.43 18.9756 81.07 20.6756 81.07 23.1156C81.07 25.8956 79.13 27.7156 76.23 27.7156C75.69 27.7156 75.27 27.6956 74.81 27.6356ZM74.77 21.0356V25.5556C75.13 25.6156 75.53 25.6356 75.89 25.6356C77.39 25.6356 78.35 24.7756 78.35 23.2956C78.35 21.8556 77.59 21.0356 76.07 21.0356H74.77Z" fill="black"/>
<path d="M66.4983 18.9756L70.3183 32.0956H67.3183L66.5983 29.2756H62.1583L61.4383 32.0956H58.7383L62.5783 18.9756H66.4983ZM66.0583 27.1956L64.4383 21.1356H64.2983L62.6783 27.1956H66.0583Z" fill="black"/>
<defs>
<clipPath id="clip0_1033_4243">
<rect width="54.4" height="17.7877" fill="white" transform="translate(20.7998 39.5947)"/>
</clipPath>
</defs>
</svg>
