<svg width="139" height="139" viewBox="0 0 139 139" fill="none" xmlns="http://www.w3.org/2000/svg">
    <rect width="138.96" height="138.96" transform="translate(0 0.0195312)" fill="black" fill-opacity="0.0"/>
    <path fill-rule="evenodd" clip-rule="evenodd" d="M108.308 22.0443C112.785 22.7905 116.191 26.1959 116.936 30.672C119.093 43.6145 119.093 56.5509 119.093 69.5C119.093 73.8138 119.093 95.3854 116.936 108.328C116.191 112.804 112.785 116.209 108.308 116.956C95.3654 119.113 73.7938 119.113 69.48 119.113C65.1661 119.113 43.5946 119.113 30.6519 116.956C26.1748 116.209 22.7694 112.804 22.0243 108.328C19.8667 95.3854 19.8667 73.8138 19.8667 69.5C19.8667 65.1862 19.8667 43.6146 22.0243 30.672C22.7694 26.1959 26.1748 22.7905 30.6519 22.0443C43.5946 19.8867 65.1661 19.8867 69.48 19.8867C73.7938 19.8867 95.3654 19.8867 108.308 22.0443ZM62.9662 73.8425L61.7406 104.24H75.9937V56.4725H62.9662V73.8425ZM69.5297 47.7875C64.6626 47.7875 61.8806 45.0661 61.8806 40.0948C61.8806 35.8721 64.4633 32.5887 69.4303 32.5887C74.2976 32.5887 77.0794 35.2149 77.0794 40.0948C77.0794 44.4097 74.4967 47.7875 69.5297 47.7875Z" fill="white"/>
</svg>
