<svg width="139" height="139" viewBox="0 0 139 139" fill="none" xmlns="http://www.w3.org/2000/svg">
    <rect width="138.96" height="138.96" transform="translate(0 0.0195312)" fill="black" fill-opacity="0.2"/>
    <path d="M68.3957 80.8404C74.8002 80.8404 79.9921 75.7616 79.9921 69.4965C79.9921 63.2315 74.8002 58.1526 68.3957 58.1526C61.9911 58.1526 56.7992 63.2315 56.7992 69.4965C56.7992 75.7616 61.9911 80.8404 68.3957 80.8404Z" fill="white"/>
    <path fill-rule="evenodd" clip-rule="evenodd" d="M115.848 30.6665C115.102 26.1922 111.696 22.789 107.214 22.0428C94.2801 19.8867 72.707 19.8867 68.3901 19.8867C64.0778 19.8867 42.5047 19.8867 29.562 22.0428C25.0884 22.7892 21.6828 26.1922 20.9365 30.6665C18.7822 43.6131 18.7822 65.1812 18.7822 69.4946C18.7822 73.8117 18.7822 95.38 20.9365 108.323C21.6828 112.801 25.0884 116.204 29.562 116.95C42.5047 119.111 64.0778 119.111 68.3901 119.111C72.7072 119.111 94.2801 119.111 107.214 116.95C111.696 116.204 115.102 112.801 115.848 108.323C118.006 95.38 118.006 73.8117 118.006 69.4946C118.006 56.5498 118.006 43.6128 115.848 30.6665ZM104.559 71.3343C104.559 72.3687 103.784 73.555 102.837 73.9708L96.3823 76.8955C95.4172 77.2679 94.3007 78.3533 93.9007 79.3073L93.5392 80.1695C93.1395 81.1238 93.1764 82.6684 93.6217 83.6023L96.1706 89.9375C96.5696 90.892 96.2909 92.2647 95.5511 92.9879L92.6178 95.8559C91.878 96.5792 90.4802 96.874 89.5116 96.5112L82.8597 94.1096C81.9081 93.7047 80.3443 93.6903 79.3853 94.0781L78.4417 94.4596C77.4826 94.8474 76.4029 95.958 76.0427 96.9277L73.2693 103.17C72.8622 104.121 71.6821 104.899 70.6477 104.899H66.4755C65.4411 104.899 64.2419 104.13 63.8107 103.19L60.848 96.9411C60.4618 95.9817 59.3612 94.8787 58.4023 94.4904L57.462 94.1098C56.5031 93.7216 54.9487 93.7553 54.0075 94.1847L47.4946 96.7023C46.5345 97.0873 45.1438 96.8106 44.4043 96.0874L41.4659 93.2131C40.7264 92.4898 40.4287 91.1094 40.8043 90.1453L43.2353 83.6733C43.6543 82.7275 43.668 81.1739 43.2661 80.2205L42.905 79.3649C42.5029 78.4117 41.3765 77.3475 40.402 77.0001L33.969 74.2587C33.0124 73.8655 32.2294 72.6972 32.2294 71.6628V67.6471C32.2294 66.6125 33.0048 65.427 33.9528 65.0125L40.3929 62.1041C41.3582 61.7324 42.4762 60.648 42.8772 59.6944L43.2424 58.8261C43.6437 57.8727 43.6083 56.3279 43.1643 55.3936L40.6211 49.0594C40.2227 48.1047 40.5019 46.7314 41.2412 46.0082L44.1711 43.141C44.9104 42.4173 46.3087 42.121 47.2779 42.4823L53.9495 44.8789C54.9016 45.2834 56.4649 45.2953 57.4231 44.9054L58.3441 44.5308C59.3025 44.1413 60.3821 43.0292 60.7432 42.0597L63.5224 35.8161C63.9303 34.8655 65.1104 34.0876 66.145 34.0876H70.3173C71.3519 34.0876 72.5504 34.8573 72.981 35.7976L75.9402 42.0539C76.3264 43.0136 77.427 44.1164 78.3863 44.5041L79.3223 44.883C80.2814 45.271 81.8358 45.2367 82.7768 44.8068L89.2977 42.2929C90.258 41.9082 91.6492 42.1855 92.3891 42.9085L95.3181 45.7711C96.0579 46.4943 96.3567 47.8748 95.9819 48.8388L93.5583 55.3152C93.1389 56.2608 93.1239 57.8148 93.5245 58.7684L93.8903 59.6386C94.2914 60.5922 95.4169 61.6559 96.3916 62.0025L102.819 64.7348C103.776 65.1273 104.559 66.2948 104.559 67.3294L104.559 71.3343Z" fill="white"/>
</svg>
