<svg width="139" height="139" viewBox="0 0 139 139" fill="none" xmlns="http://www.w3.org/2000/svg">
    <rect width="138.96" height="138.96" transform="translate(0 0.0195312)" fill="black" fill-opacity="0.0"/>
    <path d="M127.995 55.7019L72.0995 97.2874C70.5357 98.4508 68.4244 98.4508 66.8607 97.2874L10.9655 55.7019C10.0382 55.0121 10.0382 53.5895 10.9655 52.8997L66.8607 11.3139C68.4244 10.1506 70.5357 10.1506 72.0995 11.3139L127.995 52.8997C128.922 53.5897 128.922 55.0121 127.995 55.7019Z" fill="white"/>
    <path d="M69.4801 107.344L119.882 70.9432L127.995 76.9788C128.922 77.6686 128.922 79.0912 127.995 79.781L72.0995 121.367C70.5357 122.53 68.4244 122.53 66.8607 121.367L10.9655 79.781C10.0382 79.091 10.0382 77.6686 10.9655 76.9788L19.0782 70.9432L69.4801 107.344Z" fill="white"/>
</svg>
