<svg width="139" height="139" viewBox="0 0 139 139" fill="none" xmlns="http://www.w3.org/2000/svg">
    <rect width="138.96" height="138.96" transform="translate(0 0.0195312)" fill="black" fill-opacity="0.2"/>
    <path d="M119.563 17.2287C122.973 17.8117 125.568 20.4728 126.135 23.9705C127.778 34.0824 127.778 36.4008 127.778 46.5192C127.778 49.8896 127.778 58.9543 126.135 69.0684C125.568 72.5648 122.973 75.2259 119.563 75.8091C117.531 76.1565 115.213 76.4292 112.795 76.648L117.112 88.4633C117.451 89.3114 117.417 89.9899 116.976 90.5327C116.359 91.2918 115.248 91.665 114.085 90.889L97.8494 77.7347C97.9215 75.1577 97.9235 73.1024 97.9235 71.7909C97.9235 60.553 97.9235 57.5315 96.028 45.8684C95.0535 39.8625 90.6083 35.3291 84.703 34.3199C75.4834 32.7434 61.4404 32.4136 52.7869 32.3749C53.027 29.7345 53.3621 26.8995 53.838 23.9705C54.4062 20.4728 57.0004 17.8117 60.4101 17.2287C70.2687 15.543 86.7005 15.543 89.9869 15.543C93.2724 15.543 109.704 15.543 119.563 17.2287Z" fill="white"/>
    <path d="M50.9044 37.2555C54.5673 37.2555 72.8872 37.2555 83.8792 39.1351C87.681 39.785 90.5731 42.7516 91.2061 46.6509C93.0382 57.9258 93.0382 60.5106 93.0382 71.7909C93.0382 75.5481 93.0382 85.6559 91.2061 96.9299C90.5731 100.829 87.681 103.796 83.8792 104.447C73.8851 106.154 57.8698 106.309 52.2845 106.323L27.8546 121.25C26.784 121.931 25.3738 121.613 24.6996 120.54C24.3878 120.042 24.2862 119.48 24.3793 118.941L24.4927 118.54L24.5133 118.55L31.587 93.5864C31.587 93.5864 31.1456 93.1827 30.7187 93.8044L22.58 105.088C20.9388 104.903 19.3683 104.692 17.9296 104.447C14.1267 103.796 11.2346 100.829 10.6017 96.9299C8.76978 85.6559 8.76978 75.5481 8.76978 71.7909C8.76978 68.0336 8.76978 57.9258 10.6017 46.6509C11.2346 42.7516 14.1267 39.785 17.9296 39.1351C28.9205 37.2555 47.2404 37.2555 50.9044 37.2555Z" fill="white"/>
</svg>
