<svg width="139" height="139" viewBox="0 0 139 139" fill="none" xmlns="http://www.w3.org/2000/svg">
    <rect width="138.96" height="138.96" transform="translate(0 0.0195312)" fill="black" fill-opacity="0.2"/>
    <path d="M117.247 74.7112C106.174 64.2892 88.3693 64.5063 77.513 75.3626C67.7424 84.9161 66.4397 99.6806 73.3877 110.754H21.7119C19.3235 110.754 17.5865 110.103 16.9352 107.714L3.03916 48.4391C2.60491 46.0507 4.34191 43.6623 6.94741 43.6623H99.4427C99.6598 43.4452 99.8769 42.5767 98.1399 42.3596C95.7515 41.9253 17.8037 36.9315 17.8037 36.9315V28.0293C17.8037 25.8581 19.5407 24.1211 21.7119 24.1211H52.3265C54.4978 24.1211 56.2348 25.8581 56.2348 28.0293V30.6348H113.339C115.51 30.6348 117.247 32.3718 117.247 34.5431V74.7112Z" fill="white"/>
    <path fill-rule="evenodd" clip-rule="evenodd" d="M135.486 124.433L117.682 108.583C123.544 99.2464 122.676 86.8702 114.425 78.8366C105.088 69.5002 89.8897 69.5002 80.5533 78.8366C71.2169 88.173 71.2169 103.372 80.5533 112.708C89.0212 120.525 101.397 121.61 110.734 115.531L126.801 133.335C128.972 135.723 132.663 135.289 135.052 132.901C137.657 130.295 138.091 126.821 135.486 124.433ZM108.562 106.411C102.483 112.491 92.7123 112.491 86.8499 106.411C80.7704 100.332 80.7704 90.5614 86.8499 84.699C92.9294 78.6195 102.7 78.6195 108.562 84.699C114.642 90.7785 114.642 100.332 108.562 106.411Z" fill="white"/>
</svg>
